<svg width="24" height="24" viewBox="0 0 24 24" fill="none" xmlns="http://www.w3.org/2000/svg">
<g clip-path="url(#clip0_9_7201)">
<path d="M11 9.50002C11 9.79669 10.912 10.0867 10.7472 10.3334C10.5824 10.58 10.3481 10.7723 10.074 10.8858C9.79993 10.9994 9.49833 11.0291 9.20736 10.9712C8.91638 10.9133 8.64911 10.7705 8.43933 10.5607C8.22955 10.3509 8.08669 10.0836 8.02881 9.79265C7.97094 9.50168 8.00064 9.20008 8.11417 8.92599C8.2277 8.6519 8.41996 8.41763 8.66664 8.25281C8.91331 8.08799 9.20332 8.00002 9.49999 8.00002C9.89782 8.00002 10.2793 8.15805 10.5607 8.43935C10.842 8.72066 11 9.10219 11 9.50002ZM14.5 8.00002C14.2033 8.00002 13.9133 8.08799 13.6666 8.25281C13.42 8.41763 13.2277 8.6519 13.1142 8.92599C13.0006 9.20008 12.9709 9.50168 13.0288 9.79265C13.0867 10.0836 13.2296 10.3509 13.4393 10.5607C13.6491 10.7705 13.9164 10.9133 14.2074 10.9712C14.4983 11.0291 14.7999 10.9994 15.074 10.8858C15.3481 10.7723 15.5824 10.58 15.7472 10.3334C15.912 10.0867 16 9.79669 16 9.50002C16 9.10219 15.842 8.72066 15.5607 8.43935C15.2793 8.15805 14.8978 8.00002 14.5 8.00002ZM9.49999 13C9.20332 13 8.91331 13.088 8.66664 13.2528C8.41996 13.4176 8.2277 13.6519 8.11417 13.926C8.00064 14.2001 7.97094 14.5017 8.02881 14.7927C8.08669 15.0836 8.22955 15.3509 8.43933 15.5607C8.64911 15.7705 8.91638 15.9133 9.20736 15.9712C9.49833 16.0291 9.79993 15.9994 10.074 15.8858C10.3481 15.7723 10.5824 15.58 10.7472 15.3334C10.912 15.0867 11 14.7967 11 14.5C11 14.1022 10.842 13.7207 10.5607 13.4394C10.2793 13.1581 9.89782 13 9.49999 13ZM14.5 13C14.2033 13 13.9133 13.088 13.6666 13.2528C13.42 13.4176 13.2277 13.6519 13.1142 13.926C13.0006 14.2001 12.9709 14.5017 13.0288 14.7927C13.0867 15.0836 13.2296 15.3509 13.4393 15.5607C13.6491 15.7705 13.9164 15.9133 14.2074 15.9712C14.4983 16.0291 14.7999 15.9994 15.074 15.8858C15.3481 15.7723 15.5824 15.58 15.7472 15.3334C15.912 15.0867 16 14.7967 16 14.5C16 14.1022 15.842 13.7207 15.5607 13.4394C15.2793 13.1581 14.8978 13 14.5 13ZM24 9.50002V14.5C23.9984 15.9582 23.4184 17.3562 22.3873 18.3873C21.3562 19.4185 19.9582 19.9984 18.5 20H5.49999C4.04179 19.9984 2.64377 19.4185 1.61266 18.3873C0.581553 17.3562 0.00158054 15.9582 -7.62939e-06 14.5L-7.62939e-06 9.50002C0.00158054 8.04181 0.581553 6.64379 1.61266 5.61268C2.64377 4.58158 4.04179 4.0016 5.49999 4.00002H18.5C19.9582 4.0016 21.3562 4.58158 22.3873 5.61268C23.4184 6.64379 23.9984 8.04181 24 9.50002ZM18.5 17C18.6679 16.9999 18.8355 16.9828 19 16.949V7.04902C18.8354 7.01593 18.6679 6.99952 18.5 7.00002H5.49999C5.33204 7.00018 5.16452 7.01726 4.99999 7.05102V16.951C5.16459 16.9841 5.3321 17.0005 5.49999 17H18.5Z" fill="#708090"/>
</g>
<defs>
<clipPath id="clip0_9_7201">
<rect width="24" height="24" fill="white"/>
</clipPath>
</defs>
</svg>
