<svg width="24" height="24" viewBox="0 0 24 24" fill="none" xmlns="http://www.w3.org/2000/svg">
<g clip-path="url(#clip0_9_7042)">
<path d="M19.9998 7.99997C20.0006 6.48175 19.5694 4.99464 18.7565 3.71238C17.9436 2.43013 16.7826 1.40566 15.4091 0.758656C14.0356 0.111656 12.5064 -0.131162 11.0001 0.0585693C9.49377 0.248301 8.07254 0.862747 6.90242 1.83013C5.73229 2.79751 4.86161 4.07788 4.39206 5.52168C3.92251 6.96547 3.8735 8.51306 4.25075 9.98368C4.62799 11.4543 5.41592 12.7872 6.52248 13.8267C7.62904 14.8662 9.00855 15.5693 10.4998 15.854V18H8.99985C8.60202 18 8.22049 18.158 7.93919 18.4393C7.65788 18.7206 7.49985 19.1021 7.49985 19.5C7.49985 19.8978 7.65788 20.2793 7.93919 20.5606C8.22049 20.8419 8.60202 21 8.99985 21H10.4998V22.5C10.4998 22.8978 10.6579 23.2793 10.9392 23.5606C11.2205 23.8419 11.602 24 11.9998 24C12.3977 24 12.7792 23.8419 13.0605 23.5606C13.3418 23.2793 13.4998 22.8978 13.4998 22.5V21H14.9998C15.3977 21 15.7792 20.8419 16.0605 20.5606C16.3418 20.2793 16.4998 19.8978 16.4998 19.5C16.4998 19.1021 16.3418 18.7206 16.0605 18.4393C15.7792 18.158 15.3977 18 14.9998 18H13.4998V15.854C15.3267 15.5033 16.9746 14.5277 18.1607 13.0946C19.3467 11.6615 19.997 9.86022 19.9998 7.99997ZM6.99985 7.99997C6.99985 7.01107 7.29309 6.04437 7.8425 5.22212C8.39191 4.39987 9.1728 3.75901 10.0864 3.38057C11.0001 3.00214 12.0054 2.90312 12.9753 3.09605C13.9452 3.28897 14.8361 3.76517 15.5354 4.46444C16.2346 5.1637 16.7108 6.05462 16.9038 7.02452C17.0967 7.99443 16.9977 8.99976 16.6192 9.91339C16.2408 10.827 15.5999 11.6079 14.7777 12.1573C13.9555 12.7067 12.9888 13 11.9998 13C10.6743 12.9984 9.4034 12.4711 8.46607 11.5338C7.52873 10.5964 7.00143 9.32557 6.99985 7.99997Z" fill="#708090"/>
</g>
<defs>
<clipPath id="clip0_9_7042">
<rect width="24" height="24" fill="white"/>
</clipPath>
</defs>
</svg>
