<svg width="24" height="24" viewBox="0 0 24 24" fill="none" xmlns="http://www.w3.org/2000/svg">
<path d="M9.99997 11.5C9.99997 11.8978 9.84193 12.2793 9.56063 12.5606C9.27932 12.8419 8.89779 13 8.49997 13C8.10214 13 7.72061 12.8419 7.43931 12.5606C7.158 12.2793 6.99997 11.8978 6.99997 11.5C6.99997 11.1021 7.158 10.7206 7.43931 10.4393C7.72061 10.158 8.10214 9.99997 8.49997 9.99997C8.89779 9.99997 9.27932 10.158 9.56063 10.4393C9.84193 10.7206 9.99997 11.1021 9.99997 11.5ZM13.5 15C13.1021 15 12.7206 15.158 12.4393 15.4393C12.158 15.7206 12 16.1021 12 16.5C12 16.8978 12.158 17.2793 12.4393 17.5606C12.7206 17.8419 13.1021 18 13.5 18C13.8978 18 14.2793 17.8419 14.5606 17.5606C14.8419 17.2793 15 16.8978 15 16.5C15 16.1021 14.8419 15.7206 14.5606 15.4393C14.2793 15.158 13.8978 15 13.5 15ZM8.49997 15C8.10214 15 7.72061 15.158 7.43931 15.4393C7.158 15.7206 6.99997 16.1021 6.99997 16.5C6.99997 16.8978 7.158 17.2793 7.43931 17.5606C7.72061 17.8419 8.10214 18 8.49997 18C8.89779 18 9.27932 17.8419 9.56063 17.5606C9.84193 17.2793 9.99997 16.8978 9.99997 16.5C9.99997 16.1021 9.84193 15.7206 9.56063 15.4393C9.27932 15.158 8.89779 15 8.49997 15ZM22 17.506V10.354C22.7824 9.73279 23.3716 8.90157 23.6987 7.95762C24.0258 7.01368 24.0773 5.99608 23.847 5.02397C23.543 3.85476 22.8543 2.82193 21.8917 2.09194C20.9291 1.36194 19.7488 0.977287 18.541 0.999972H5.45897C4.25111 0.977287 3.07079 1.36194 2.10822 2.09194C1.14566 2.82193 0.456906 3.85476 0.152967 5.02397C-0.077319 5.99608 -0.0258998 7.01368 0.301204 7.95762C0.628309 8.90157 1.21756 9.73279 1.99997 10.354V17.506C2.00156 18.9636 2.58172 20.361 3.613 21.3912C4.64428 22.4213 6.04232 23 7.49997 23H16.5C17.9576 23 19.3557 22.4213 20.3869 21.3912C21.4182 20.361 21.9984 18.9636 22 17.506ZM18.541 3.99997C19.075 3.98458 19.5991 4.14619 20.0317 4.45962C20.4644 4.77306 20.7812 5.22074 20.933 5.73297C21.0354 6.22827 20.9751 6.7434 20.761 7.20163C20.5469 7.65987 20.1906 8.03669 19.745 8.27597C19.5182 8.40808 19.33 8.59739 19.1993 8.82499C19.0685 9.05258 18.9998 9.3105 19 9.57297V17.506C18.9984 18.168 18.7343 18.8023 18.2656 19.2699C17.797 19.7374 17.162 20 16.5 20H7.49997C6.83797 20 6.20299 19.7374 5.73432 19.2699C5.26565 18.8023 5.00156 18.168 4.99997 17.506V9.57297C5.00064 9.30999 4.93217 9.05146 4.80141 8.82329C4.67065 8.59512 4.48221 8.40534 4.25497 8.27297C3.81014 8.0339 3.4543 7.65772 3.24028 7.20031C3.02626 6.74291 2.96548 6.22867 3.06697 5.73397C3.21839 5.22147 3.53513 4.77346 3.96781 4.45981C4.40049 4.14615 4.92479 3.98447 5.45897 3.99997H18.541Z" fill="#708090"/>
</svg>
