<svg width="24" height="24" viewBox="0 0 24 24" fill="none" xmlns="http://www.w3.org/2000/svg">
<path d="M8.43914 12.4391L9.87914 11.0001L8.43914 9.56109C8.15775 9.27969 7.99966 8.89804 7.99966 8.50009C7.99966 8.10214 8.15775 7.72048 8.43914 7.43909C8.72054 7.15769 9.10219 6.99961 9.50014 6.99961C9.8981 6.99961 10.2797 7.15769 10.5611 7.43909L12.0001 8.87909L13.4391 7.43909C13.7205 7.15769 14.1022 6.99961 14.5001 6.99961C14.8981 6.99961 15.2797 7.15769 15.5611 7.43909C15.8425 7.72048 16.0006 8.10214 16.0006 8.50009C16.0006 8.89804 15.8425 9.27969 15.5611 9.56109L14.1211 11.0001L15.5611 12.4391C15.8425 12.7205 16.0006 13.1021 16.0006 13.5001C16.0006 13.898 15.8425 14.2797 15.5611 14.5611C15.2797 14.8425 14.8981 15.0006 14.5001 15.0006C14.1022 15.0006 13.7205 14.8425 13.4391 14.5611L12.0001 13.1211L10.5611 14.5611C10.2797 14.8425 9.8981 15.0006 9.50014 15.0006C9.10219 15.0006 8.72054 14.8425 8.43914 14.5611C8.15775 14.2797 7.99966 13.898 7.99966 13.5001C7.99966 13.1021 8.15775 12.7205 8.43914 12.4391ZM4.26214 18.8941C2.18765 16.8197 1.01871 14.0084 1.01084 11.0748C1.00297 8.14107 2.15681 5.32357 4.22014 3.23809C5.23945 2.212 6.45166 1.39766 7.78697 0.841965C9.12228 0.286267 10.5543 0.000183105 12.0006 0.000183105C13.447 0.000183105 14.879 0.286267 16.2143 0.841965C17.5496 1.39766 18.7618 2.212 19.7811 3.23809C21.84 5.31501 22.9952 8.12111 22.9952 11.0456C22.9952 13.9701 21.84 16.7762 19.7811 18.8531L15.9731 22.3901C14.9033 23.427 13.4704 24.0043 11.9805 23.9987C10.4907 23.9931 9.06214 23.405 8.00014 22.3601L4.26214 18.8941ZM6.34614 16.7371L10.0681 20.1911C10.5781 20.6927 11.2632 20.9764 11.9786 20.982C12.6939 20.9876 13.3834 20.7147 13.9011 20.2211L17.7001 16.7001C19.1854 15.1835 20.0136 13.143 20.0056 11.0203C19.9975 8.89754 19.1538 6.86339 17.6571 5.35809C16.9166 4.61213 16.0358 4.02008 15.0654 3.61607C14.095 3.21205 13.0543 3.00405 12.0031 3.00405C10.952 3.00405 9.91129 3.21205 8.94091 3.61607C7.97053 4.02008 7.08969 4.61213 6.34914 5.35809C4.849 6.87151 4.00708 8.91604 4.00652 11.047C4.00596 13.1779 4.8468 15.2229 6.34614 16.7371Z" fill="#708090"/>
</svg>
