<svg width="24" height="24" viewBox="0 0 24 24" fill="none" xmlns="http://www.w3.org/2000/svg">
<g clip-path="url(#clip0_9_6803)">
<path d="M22.4999 17.5006H20.4999V15.5006C20.4999 15.1028 20.3419 14.7213 20.0606 14.4399C19.7792 14.1586 19.3977 14.0006 18.9999 14.0006C18.6021 14.0006 18.2205 14.1586 17.9392 14.4399C17.6579 14.7213 17.4999 15.1028 17.4999 15.5006V17.5006H15.4999C15.1021 17.5006 14.7206 17.6586 14.4392 17.94C14.1579 18.2213 13.9999 18.6028 13.9999 19.0006C13.9999 19.3984 14.1579 19.78 14.4392 20.0613C14.7206 20.3426 15.1021 20.5006 15.4999 20.5006H17.4999V22.5006C17.4999 22.8984 17.6579 23.28 17.9392 23.5613C18.2205 23.8426 18.6021 24.0006 18.9999 24.0006C19.3977 24.0006 19.7792 23.8426 20.0606 23.5613C20.3419 23.28 20.4999 22.8984 20.4999 22.5006V20.5006H22.4999C22.8977 20.5006 23.2792 20.3426 23.5605 20.0613C23.8418 19.78 23.9999 19.3984 23.9999 19.0006C23.9999 18.6028 23.8418 18.2213 23.5605 17.94C23.2792 17.6586 22.8977 17.5006 22.4999 17.5006Z" fill="#708090"/>
<path d="M11.5701 20.9897C9.82866 20.9063 8.14896 20.319 6.73506 19.2991C5.32115 18.2791 4.23392 16.8705 3.60546 15.2443C2.977 13.6181 2.83437 11.8444 3.19491 10.1387C3.55545 8.43304 4.40363 6.86877 5.63639 5.63601C6.86915 4.40325 8.43342 3.55507 10.1391 3.19453C11.8448 2.83399 13.6185 2.97662 15.2447 3.60508C16.8709 4.23354 18.2795 5.32078 19.2994 6.73468C20.3194 8.14858 20.9067 9.82829 20.9901 11.5697C21.0086 11.9675 21.1845 12.3417 21.4789 12.6098C21.7733 12.878 22.1622 13.0182 22.5601 12.9997C22.9579 12.9811 23.332 12.8053 23.6002 12.5108C23.8684 12.2164 24.0086 11.8275 23.9901 11.4297C23.8797 9.10761 23.0972 6.86758 21.7377 4.98183C20.3783 3.09609 18.5003 1.64582 16.3321 0.807269C14.1639 -0.0312781 11.7989 -0.221994 9.52433 0.258299C7.24979 0.738593 5.16373 1.86921 3.51966 3.51276C1.87559 5.15631 0.744304 7.24201 0.263286 9.5164C-0.217732 11.7908 -0.0277694 14.1559 0.810087 16.3244C1.64794 18.4928 3.09762 20.3712 4.98293 21.7313C6.86824 23.0914 9.10802 23.8746 11.4301 23.9857H11.5011C11.8989 23.9948 12.284 23.8456 12.5718 23.5707C12.8596 23.2959 13.0264 22.918 13.0356 22.5202C13.0447 22.1224 12.8954 21.7372 12.6206 21.4494C12.3458 21.1616 11.9679 20.9948 11.5701 20.9857V20.9897Z" fill="#708090"/>
<path d="M12 6C11.6021 6 11.2206 6.15803 10.9393 6.43934C10.658 6.72064 10.5 7.10217 10.5 7.5V11.055L8.09997 12.555C7.93295 12.6596 7.78818 12.796 7.67391 12.9565C7.55965 13.1171 7.47813 13.2985 7.43402 13.4906C7.38991 13.6826 7.38407 13.8815 7.41683 14.0758C7.44959 14.2701 7.52032 14.456 7.62497 14.623C7.72953 14.79 7.86598 14.9348 8.02651 15.049C8.18704 15.1633 8.36851 15.2448 8.56056 15.2889C8.7526 15.333 8.95146 15.3389 9.14576 15.3061C9.34006 15.2734 9.52601 15.2026 9.69297 15.098L12.562 13.298C12.8498 13.1176 13.087 12.8669 13.2511 12.5695C13.4152 12.272 13.5009 11.9377 13.5 11.598V7.5C13.5 7.10217 13.3419 6.72064 13.0606 6.43934C12.7793 6.15803 12.3978 6 12 6Z" fill="#708090"/>
</g>
<defs>
<clipPath id="clip0_9_6803">
<rect width="24" height="24" fill="white"/>
</clipPath>
</defs>
</svg>
