<svg width="24" height="24" viewBox="0 0 24 24" fill="none" xmlns="http://www.w3.org/2000/svg">
<g clip-path="url(#clip0_9_6967)">
<path d="M1.05599 22.6113L3.06699 23.2363C3.09099 23.2463 3.11199 23.2603 3.13699 23.2683C3.16199 23.2763 3.18699 23.2743 3.21199 23.2813L5.31199 23.9333C5.69204 24.0511 6.10331 24.013 6.45532 23.8276C6.80732 23.6421 7.07123 23.3244 7.18899 22.9443C7.30674 22.5643 7.2687 22.153 7.08323 21.801C6.89775 21.449 6.58004 21.1851 6.19999 21.0673L5.55599 20.8673L6.19999 19.0003C7.31503 19.0027 8.40077 18.6434 9.29421 17.9762C10.1876 17.3091 10.8406 16.3701 11.155 15.3003L12 12.8113L12.818 15.2213C13.125 16.307 13.7774 17.2631 14.6763 17.9449C15.5752 18.6268 16.6717 18.9973 17.8 19.0003L18.447 20.8693L17.803 21.0693C17.4229 21.1871 17.1052 21.451 16.9197 21.803C16.7343 22.155 16.6962 22.5663 16.814 22.9463C16.9317 23.3264 17.1957 23.6441 17.5477 23.8296C17.8997 24.015 18.3109 24.0531 18.691 23.9353L20.791 23.2833C20.816 23.2763 20.841 23.2833 20.866 23.2703C20.891 23.2573 20.912 23.2483 20.936 23.2383L22.947 22.6133C23.1385 22.5579 23.3171 22.4649 23.4722 22.3397C23.6274 22.2144 23.756 22.0596 23.8506 21.884C23.9452 21.7085 24.0038 21.5159 24.0231 21.3175C24.0424 21.1191 24.0219 20.9188 23.9629 20.7283C23.9039 20.5379 23.8075 20.3611 23.6793 20.2084C23.5512 20.0556 23.3939 19.93 23.2166 19.8387C23.0394 19.7475 22.8457 19.6925 22.6469 19.677C22.4481 19.6614 22.2483 19.6857 22.059 19.7483L21.313 19.9793L20.67 18.1233C21.6008 17.5253 22.3112 16.6401 22.6934 15.6019C23.0757 14.5637 23.1089 13.4291 22.788 12.3703L21.096 7.37032C20.845 6.533 20.2747 5.82796 19.5084 5.40738C18.7421 4.9868 17.8411 4.88442 17 5.12232L13.45 6.10632C12.9009 6.26118 12.4013 6.55577 12 6.96132C11.5989 6.55624 11.1002 6.26141 10.552 6.10532L6.99999 5.12332C6.16729 4.88283 5.27349 4.97855 4.5106 5.38991C3.74771 5.80127 3.17661 6.49545 2.91999 7.32332L1.19099 12.4443C0.891032 13.4951 0.937373 14.6146 1.32315 15.6371C1.70893 16.6595 2.41364 17.5306 3.33299 18.1213L2.68999 19.9773L1.94399 19.7463C1.7547 19.6837 1.55483 19.6594 1.35606 19.675C1.15729 19.6905 0.963613 19.7455 0.786344 19.8367C0.609075 19.928 0.451775 20.0536 0.32364 20.2064C0.195506 20.3591 0.0991078 20.5359 0.0400823 20.7263C-0.0189432 20.9168 -0.0394119 21.1171 -0.020127 21.3155C-0.000842119 21.5139 0.0578093 21.7065 0.152398 21.882C0.246987 22.0576 0.375616 22.2124 0.530764 22.3377C0.685911 22.4629 0.864465 22.5559 1.05599 22.6113ZM14.041 9.16032C14.0632 9.12106 14.093 9.08666 14.1287 9.05917C14.1645 9.03168 14.2054 9.01167 14.249 9.00032L17.799 8.01632C17.8285 8.00699 17.8591 8.00161 17.89 8.00032C17.9707 8.00314 18.0482 8.03235 18.1107 8.08347C18.1732 8.13458 18.2172 8.20479 18.236 8.28332L19.157 11.0003H14.557L14.019 9.41332C14.0051 9.37189 13.9999 9.32805 14.0037 9.28453C14.0075 9.24101 14.0202 9.19874 14.041 9.16032ZM6.10699 8.00032C6.13874 8.00064 6.17033 8.00501 6.20099 8.01332L9.75099 9.00032C9.79488 9.01202 9.83593 9.0325 9.87169 9.06051C9.90744 9.08853 9.93713 9.1235 9.95899 9.16332C9.99591 9.2245 10.0104 9.29662 9.99999 9.36732L9.44699 11.0003H4.84699L5.77999 8.24032C5.80189 8.17074 5.84541 8.10996 5.90421 8.0668C5.96301 8.02364 6.03404 8.00035 6.10699 8.00032Z" fill="#708090"/>
<path d="M16.5001 4.00048C16.6971 4.00057 16.8922 3.96185 17.0743 3.88652C17.2563 3.8112 17.4218 3.70075 17.5611 3.56148L18.5611 2.56148C18.8425 2.28009 19.0006 1.89843 19.0006 1.50048C19.0006 1.10253 18.8425 0.720875 18.5611 0.439481C18.2797 0.158086 17.8981 0 17.5001 0C17.1022 0 16.7205 0.158086 16.4391 0.439481L15.4391 1.43948C15.2292 1.64926 15.0862 1.9166 15.0283 2.20766C14.9704 2.49872 15.0001 2.80042 15.1137 3.0746C15.2273 3.34877 15.4196 3.58309 15.6664 3.7479C15.9132 3.91271 16.2034 4.00062 16.5001 4.00048Z" fill="#708090"/>
<path d="M6.43893 3.56148C6.72032 3.84288 7.10198 4.00096 7.49993 4.00096C7.89788 4.00096 8.27953 3.84288 8.56092 3.56148C8.84232 3.28009 9.0004 2.89843 9.0004 2.50048C9.0004 2.10253 8.84232 1.72088 8.56092 1.43948L7.56093 0.439481C7.27953 0.158086 6.89788 -2.96497e-09 6.49993 0C6.10198 2.96498e-09 5.72032 0.158086 5.43893 0.439481C5.15754 0.720875 4.99945 1.10253 4.99945 1.50048C4.99945 1.89843 5.15754 2.28009 5.43893 2.56148L6.43893 3.56148Z" fill="#708090"/>
<path d="M12 4C12.3978 4 12.7794 3.84196 13.0607 3.56066C13.342 3.27936 13.5 2.89782 13.5 2.5V1.5C13.5 1.10218 13.342 0.720644 13.0607 0.43934C12.7794 0.158035 12.3978 0 12 0C11.6022 0 11.2206 0.158035 10.9393 0.43934C10.658 0.720644 10.5 1.10218 10.5 1.5V2.5C10.5 2.89782 10.658 3.27936 10.9393 3.56066C11.2206 3.84196 11.6022 4 12 4Z" fill="#708090"/>
</g>
<defs>
<clipPath id="clip0_9_6967">
<rect width="24" height="24" fill="white"/>
</clipPath>
</defs>
</svg>
