<svg width="24" height="24" viewBox="0 0 24 24" fill="none" xmlns="http://www.w3.org/2000/svg">
<g clip-path="url(#clip0_9_7084)">
<path d="M18.4998 24.0001H13.0338C11.1607 24.0328 9.30122 23.6753 7.57375 22.9504C5.84627 22.2254 4.2886 21.1488 2.99982 19.7891C1.90934 18.5969 1.08308 17.1878 0.575212 15.654C0.0673437 14.1202 -0.110675 12.4965 0.0528237 10.8891C0.300912 8.27373 1.39873 5.81158 3.17841 3.87913C4.95809 1.94667 7.32169 0.650247 9.90782 0.188087C11.6068 -0.127043 13.3546 -0.0599994 15.0244 0.384353C16.6942 0.828706 18.2442 1.63922 19.5618 2.75709C20.9567 3.92969 22.0772 5.39427 22.8441 7.04737C23.6109 8.70047 24.0055 10.5018 23.9998 12.3241V18.5001C23.998 19.9582 23.4179 21.3561 22.3869 22.3871C21.3558 23.4182 19.9579 23.9982 18.4998 24.0001ZM12.0298 3.00009C9.78433 2.99815 7.61882 3.83374 5.95665 5.34353C4.29448 6.85332 3.25515 8.92874 3.04182 11.1641C2.91948 12.3565 3.05044 13.5613 3.42612 14.6995C3.80181 15.8378 4.41373 16.8838 5.22182 17.7691C6.22896 18.8196 7.44347 19.6493 8.78829 20.2055C10.1331 20.7617 11.5789 21.0323 13.0338 21.0001H18.4998C19.1629 21.0001 19.7988 20.7367 20.2676 20.2679C20.7364 19.799 20.9998 19.1631 20.9998 18.5001V12.3241C21.0044 10.9399 20.7054 9.57154 20.1238 8.31544C19.5423 7.05934 18.6923 5.94607 17.6338 5.05409C16.0693 3.72523 14.0826 2.99706 12.0298 3.00009ZM11.9998 6.00009C11.602 6.00009 11.2205 6.15812 10.9392 6.43943C10.6579 6.72073 10.4998 7.10226 10.4998 7.50009C10.4998 7.89791 10.6579 8.27944 10.9392 8.56075C11.2205 8.84205 11.602 9.00009 11.9998 9.00009C12.3976 9.00009 12.7792 8.84205 13.0605 8.56075C13.3418 8.27944 13.4998 7.89791 13.4998 7.50009C13.4998 7.10226 13.3418 6.72073 13.0605 6.43943C12.7792 6.15812 12.3976 6.00009 11.9998 6.00009ZM12.4998 19.0001C12.102 19.0001 11.7205 18.8421 11.4392 18.5607C11.1579 18.2794 10.9998 17.8979 10.9998 17.5001V13.0001H10.4998C10.102 13.0001 9.72047 12.8421 9.43916 12.5607C9.15786 12.2794 8.99982 11.8979 8.99982 11.5001C8.99982 11.1023 9.15786 10.7207 9.43916 10.4394C9.72047 10.1581 10.102 10.0001 10.4998 10.0001H11.4998C12.1629 10.0001 12.7988 10.2635 13.2676 10.7323C13.7364 11.2012 13.9998 11.837 13.9998 12.5001V17.5001C13.9998 17.8979 13.8418 18.2794 13.5605 18.5607C13.2792 18.8421 12.8976 19.0001 12.4998 19.0001Z" fill="#708090"/>
</g>
<defs>
<clipPath id="clip0_9_7084">
<rect width="24" height="24" fill="white"/>
</clipPath>
</defs>
</svg>
