<svg width="24" height="24" viewBox="0 0 24 24" fill="none" xmlns="http://www.w3.org/2000/svg">
<g clip-path="url(#clip0_9_6856)">
<path d="M15.4999 6C15.8978 6 16.2793 6.15804 16.5606 6.43934C16.8419 6.72064 16.9999 7.10218 16.9999 7.5C16.9999 7.89783 16.8419 8.27936 16.5606 8.56066C16.2793 8.84197 15.8978 9 15.4999 9H8.49994C8.10211 9 7.72058 8.84197 7.43928 8.56066C7.15797 8.27936 6.99994 7.89783 6.99994 7.5C6.99994 7.10218 7.15797 6.72064 7.43928 6.43934C7.72058 6.15804 8.10211 6 8.49994 6H15.4999ZM23.5609 23.561C23.4216 23.7004 23.2562 23.811 23.0742 23.8864C22.8921 23.9619 22.697 24.0007 22.4999 24.0007C22.3029 24.0007 22.1077 23.9619 21.9257 23.8864C21.7436 23.811 21.5782 23.7004 21.4389 23.561L19.4279 21.549C18.8274 21.8424 18.1683 21.9966 17.4999 22C16.6099 22 15.7399 21.7361 14.9999 21.2416C14.2599 20.7472 13.6831 20.0443 13.3425 19.2221C13.0019 18.3998 12.9128 17.495 13.0864 16.6221C13.26 15.7492 13.6886 14.9474 14.318 14.318C14.9473 13.6887 15.7491 13.2601 16.622 13.0865C17.4949 12.9128 18.3997 13.0019 19.222 13.3425C20.0443 13.6831 20.7471 14.2599 21.2416 14.9999C21.736 15.74 21.9999 16.61 21.9999 17.5C21.9965 18.1684 21.8424 18.8274 21.5489 19.428L23.5609 21.439C23.7003 21.5783 23.8109 21.7437 23.8863 21.9258C23.9618 22.1078 24.0006 22.3029 24.0006 22.5C24.0006 22.6971 23.9618 22.8922 23.8863 23.0742C23.8109 23.2563 23.7003 23.4217 23.5609 23.561ZM17.4999 19C17.7966 19 18.0866 18.912 18.3333 18.7472C18.58 18.5824 18.7722 18.3481 18.8858 18.074C18.9993 17.7999 19.029 17.4983 18.9711 17.2074C18.9132 16.9164 18.7704 16.6491 18.5606 16.4393C18.3508 16.2296 18.0835 16.0867 17.7926 16.0288C17.5016 15.9709 17.2 16.0007 16.9259 16.1142C16.6518 16.2277 16.4176 16.42 16.2527 16.6666C16.0879 16.9133 15.9999 17.2033 15.9999 17.5C15.9999 17.8978 16.158 18.2794 16.4393 18.5607C16.7206 18.842 17.1021 19 17.4999 19ZM11.4999 21H7.49994C6.8369 21 6.20101 20.7366 5.73217 20.2678C5.26333 19.7989 4.99994 19.163 4.99994 18.5V5.5C4.99994 4.83696 5.26333 4.20107 5.73217 3.73223C6.20101 3.26339 6.8369 3 7.49994 3H18.4999C18.6325 3 18.7597 3.05268 18.8535 3.14645C18.9473 3.24022 18.9999 3.36739 18.9999 3.5V10.5C18.9999 10.8978 19.158 11.2794 19.4393 11.5607C19.7206 11.842 20.1021 12 20.4999 12C20.8978 12 21.2793 11.842 21.5606 11.5607C21.8419 11.2794 21.9999 10.8978 21.9999 10.5V3.5C21.9999 2.57174 21.6312 1.6815 20.9748 1.02513C20.3184 0.368749 19.4282 0 18.4999 0H7.49994C6.04174 0.00158817 4.64371 0.581561 3.61261 1.61267C2.5815 2.64377 2.00153 4.0418 1.99994 5.5V18.5C2.00153 19.9582 2.5815 21.3562 3.61261 22.3873C4.64371 23.4184 6.04174 23.9984 7.49994 24H11.4999C11.8978 24 12.2793 23.842 12.5606 23.5607C12.8419 23.2794 12.9999 22.8978 12.9999 22.5C12.9999 22.1022 12.8419 21.7206 12.5606 21.4393C12.2793 21.158 11.8978 21 11.4999 21Z" fill="#708090"/>
</g>
<defs>
<clipPath id="clip0_9_6856">
<rect width="24" height="24" fill="white"/>
</clipPath>
</defs>
</svg>
