<svg width="24" height="24" viewBox="0 0 24 24" fill="none" xmlns="http://www.w3.org/2000/svg">
<g clip-path="url(#clip0_9_6851)">
<path d="M22.4998 18.972C22.3043 18.9684 22.11 19.0038 21.9283 19.0761C21.7466 19.1484 21.5811 19.2561 21.4414 19.3931C21.3018 19.53 21.1909 19.6934 21.115 19.8736C21.0392 20.0539 21 20.2474 20.9998 20.443C20.8757 20.6244 20.7071 20.771 20.5101 20.8685C20.3131 20.966 20.0943 21.0113 19.8748 21C19.6085 21.0015 19.3457 20.9387 19.1088 20.817C20.5777 19.1473 21.5604 17.1065 21.9498 14.917C22.0821 14.1713 21.9622 13.4027 21.6091 12.7327C21.256 12.0627 20.6898 11.5294 19.9998 11.217V8.5C19.9985 7.30693 19.5239 6.16311 18.6803 5.31948C17.8367 4.47585 16.6929 4.00132 15.4998 4H14.9998V3C14.9998 2.20435 14.6837 1.44129 14.1211 0.87868C13.5585 0.31607 12.7954 0 11.9998 0C11.2041 0 10.4411 0.31607 9.87848 0.87868C9.31587 1.44129 8.9998 2.20435 8.9998 3V4H8.4998C7.30673 4.00132 6.1629 4.47585 5.31928 5.31948C4.47565 6.16311 4.00112 7.30693 3.9998 8.5V11.083C3.31589 11.399 2.75578 11.9324 2.40684 12.6001C2.05789 13.2677 1.93974 14.0321 2.0708 14.774C2.4699 17.0004 3.44256 19.0842 4.8928 20.82C4.65468 20.94 4.39144 21.0017 4.1248 21C3.90663 21.0085 3.68975 20.9629 3.49347 20.8673C3.29719 20.7717 3.12759 20.629 2.9998 20.452C2.99343 20.0542 2.82929 19.6752 2.54349 19.3984C2.25768 19.1216 1.87362 18.9696 1.4758 18.976C1.07797 18.9824 0.698969 19.1465 0.422165 19.4323C0.145361 19.7181 -0.00656968 20.1022 -0.000204494 20.5C-0.000204494 22.364 1.9278 24 4.1248 24C5.06256 24.002 5.97888 23.7196 6.7528 23.19C7.52576 23.717 8.43921 23.9998 9.37476 24.0016C10.3103 24.0033 11.2248 23.7241 11.9998 23.2C12.7765 23.7252 13.693 24.0049 14.6305 24.0029C15.568 24.001 16.4833 23.7174 17.2578 23.189C18.0282 23.7174 18.9406 24.0002 19.8748 24C22.0718 24 23.9998 22.364 23.9998 20.5C24.0014 20.0991 23.8448 19.7137 23.5639 19.4276C23.2831 19.1415 22.9007 18.9778 22.4998 18.972ZM8.4998 7H15.4998C15.8976 7 16.2792 7.15804 16.5605 7.43934C16.8418 7.72064 16.9998 8.10218 16.9998 8.5V10.3L13.0758 9.174C12.4071 8.94787 11.684 8.93877 11.0098 9.148L6.9998 10.221V8.5C6.9998 8.10218 7.15783 7.72064 7.43914 7.43934C7.72044 7.15804 8.10197 7 8.4998 7ZM9.3748 21C9.16048 21.0131 8.94609 20.9757 8.74881 20.891C8.55153 20.8062 8.37685 20.6764 8.2388 20.512C8.01924 19.9822 7.7153 19.4915 7.3388 19.059C6.15072 17.7003 5.3522 16.0455 5.0278 14.27C5.00794 14.1824 5.01498 14.0909 5.04798 14.0074C5.08099 13.9239 5.13843 13.8523 5.2128 13.802L10.4998 12.388V20.537C10.3592 20.6938 10.185 20.8169 9.99022 20.8971C9.79543 20.9772 9.58507 21.0124 9.3748 21ZM14.6248 21C14.2121 21.0076 13.8113 20.8618 13.4998 20.591V12.418L18.7388 13.93C18.8308 13.9694 18.9063 14.0395 18.9526 14.1282C18.9989 14.217 19.0131 14.319 18.9928 14.417C18.6752 16.153 17.8682 17.7622 16.6668 19.055C16.287 19.49 15.981 19.9842 15.7608 20.518C15.6225 20.6818 15.4476 20.8108 15.2503 20.8945C15.0529 20.9782 14.8387 21.0144 14.6248 21Z" fill="#708090"/>
</g>
<defs>
<clipPath id="clip0_9_6851">
<rect width="24" height="24" fill="white"/>
</clipPath>
</defs>
</svg>
