<svg width="24" height="24" viewBox="0 0 24 24" fill="none" xmlns="http://www.w3.org/2000/svg">
<g clip-path="url(#clip0_9_6989)">
<path d="M16.0002 11.5001C16.0002 11.8979 15.8421 12.2794 15.5608 12.5607C15.2795 12.842 14.898 13.0001 14.5002 13.0001H14.0002V16.0001C14.0003 16.1008 13.9902 16.2013 13.9702 16.3001C13.9107 16.8762 13.6855 17.4227 13.3216 17.8733C12.9578 18.3239 12.471 18.6593 11.9203 18.8388C11.3696 19.0182 10.7787 19.0341 10.2192 18.8843C9.65974 18.7346 9.15571 18.4258 8.76826 17.9953C8.38081 17.5648 8.12659 17.0311 8.03643 16.459C7.94627 15.8869 8.02403 15.3009 8.2603 14.7721C8.49657 14.2433 8.88119 13.7944 9.36751 13.4799C9.85384 13.1654 10.421 12.9987 11.0002 13.0001V12.5001C11.0002 11.837 11.2635 11.2012 11.7324 10.7323C12.2012 10.2635 12.8371 10.0001 13.5002 10.0001H14.5002C14.898 10.0001 15.2795 10.1581 15.5608 10.4394C15.8421 10.7207 16.0002 11.1023 16.0002 11.5001ZM22.0002 8.15708V18.5001C21.9983 19.9582 21.4182 21.3561 20.3872 22.3871C19.3561 23.4182 17.9583 23.9982 16.5002 24.0001H7.50015C6.04203 23.9982 4.64416 23.4182 3.61311 22.3871C2.58206 21.3561 2.002 19.9582 2.00015 18.5001V5.50008C2.002 4.04196 2.58206 2.64409 3.61311 1.61304C4.64416 0.581991 6.04203 0.00193319 7.50015 8.09362e-05H13.8432C14.5657 -0.00186913 15.2815 0.139512 15.949 0.41604C16.6166 0.692568 17.2226 1.09875 17.7322 1.61108L20.3892 4.26808C20.9015 4.7776 21.3077 5.38367 21.5842 6.05122C21.8607 6.71876 22.0021 7.43453 22.0002 8.15708ZM19.0002 18.5001V9.00008H15.0002C14.4697 9.00008 13.961 8.78937 13.5859 8.41429C13.2109 8.03922 13.0002 7.53051 13.0002 7.00008V3.00008H7.50015C6.83711 3.00008 6.20123 3.26347 5.73239 3.73231C5.26354 4.20115 5.00015 4.83704 5.00015 5.50008V18.5001C5.00015 19.1631 5.26354 19.799 5.73239 20.2678C6.20123 20.7367 6.83711 21.0001 7.50015 21.0001H16.5002C17.1632 21.0001 17.7991 20.7367 18.2679 20.2678C18.7368 19.799 19.0002 19.1631 19.0002 18.5001Z" fill="#708090"/>
</g>
<defs>
<clipPath id="clip0_9_6989">
<rect width="24" height="24" fill="white"/>
</clipPath>
</defs>
</svg>
