<svg width="24" height="24" viewBox="0 0 24 24" fill="none" xmlns="http://www.w3.org/2000/svg">
<g clip-path="url(#clip0_9_7074)">
<path d="M23.9997 11.2459C23.8547 8.90625 23.0283 6.66019 21.6223 4.78457C20.2162 2.90894 18.2921 1.48573 16.087 0.690381C13.882 -0.104971 11.4924 -0.237704 9.21281 0.308546C6.93323 0.854796 4.86332 2.05615 3.25822 3.76452C1.65312 5.47289 0.583004 7.6136 0.179776 9.92278C-0.223452 12.2319 0.0578353 14.6086 0.988965 16.7599C1.92009 18.9111 3.46036 20.7429 5.41991 22.0294C7.37946 23.3159 9.67262 24.0009 12.0167 23.9999H18.4997C19.9579 23.998 21.3557 23.418 22.3868 22.3869C23.4178 21.3559 23.9979 19.958 23.9997 18.4999V11.3399V11.2459ZM20.9997 18.4999C20.9997 19.1629 20.7363 19.7988 20.2675 20.2676C19.7987 20.7365 19.1628 20.9999 18.4997 20.9999H12.0167C10.7462 20.9991 9.4901 20.7306 8.33032 20.2118C7.17054 19.693 6.13313 18.9355 5.28574 17.9889C4.43459 17.0429 3.79554 15.9259 3.41145 14.7127C3.02736 13.4996 2.9071 12.2183 3.05874 10.9549C3.298 8.96305 4.19315 7.10745 5.60317 5.68041C7.01319 4.25337 8.85793 3.33602 10.8467 3.07288C11.2359 3.02432 11.6276 2.99994 12.0197 2.99988C14.1159 2.99388 16.1474 3.7252 17.7587 5.06588C18.6981 5.84619 19.4696 6.80878 20.0266 7.89553C20.5837 8.98228 20.9147 10.1706 20.9997 11.3889V18.4999Z" fill="#708090"/>
<path d="M9.50012 11.0002H12.5001C12.8979 11.0002 13.2795 10.8421 13.5608 10.5608C13.8421 10.2795 14.0001 9.89798 14.0001 9.50015C14.0001 9.10233 13.8421 8.7208 13.5608 8.43949C13.2795 8.15819 12.8979 8.00015 12.5001 8.00015H9.50012C9.1023 8.00015 8.72077 8.15819 8.43946 8.43949C8.15816 8.7208 8.00012 9.10233 8.00012 9.50015C8.00012 9.89798 8.15816 10.2795 8.43946 10.5608C8.72077 10.8421 9.1023 11.0002 9.50012 11.0002Z" fill="#708090"/>
<path d="M16.5001 12.9998H9.50012C9.1023 12.9998 8.72077 13.1579 8.43946 13.4392C8.15816 13.7205 8.00012 14.102 8.00012 14.4998C8.00012 14.8977 8.15816 15.2792 8.43946 15.5605C8.72077 15.8418 9.1023 15.9998 9.50012 15.9998H16.5001C16.8979 15.9998 17.2795 15.8418 17.5608 15.5605C17.8421 15.2792 18.0001 14.8977 18.0001 14.4998C18.0001 14.102 17.8421 13.7205 17.5608 13.4392C17.2795 13.1579 16.8979 12.9998 16.5001 12.9998Z" fill="#708090"/>
</g>
<defs>
<clipPath id="clip0_9_7074">
<rect width="24" height="24" fill="white"/>
</clipPath>
</defs>
</svg>
