<svg width="24" height="24" viewBox="0 0 24 24" fill="none" xmlns="http://www.w3.org/2000/svg">
<g clip-path="url(#clip0_9_6912)">
<path d="M23.9899 8C23.9899 7.73478 23.8846 7.48043 23.697 7.29289C23.5095 7.10536 23.2551 7 22.9899 7H18.4209C18.2232 7.00004 18.0299 7.05871 17.8655 7.1686C17.7011 7.27848 17.5729 7.43465 17.4972 7.61735C17.4216 7.80005 17.4018 8.00108 17.4403 8.19503C17.4789 8.38898 17.5741 8.56715 17.7139 8.707L18.9429 9.936L16.9049 11.974C15.8831 11.3378 14.7036 11.0004 13.4999 11C13.3189 11 13.1409 11.013 12.9639 11.028C12.9789 10.852 12.9999 10.679 12.9999 10.5C12.9985 9.29803 12.6612 8.12038 12.0259 7.1L14.0639 5.062L15.2929 6.291C15.4332 6.43124 15.612 6.5266 15.8066 6.56494C16.0012 6.60329 16.2028 6.5829 16.3858 6.50636C16.5688 6.42982 16.7249 6.30059 16.8343 6.1351C16.9436 5.96961 17.0013 5.77535 16.9999 5.577L16.9899 1C16.9899 0.734784 16.8846 0.48043 16.697 0.292893C16.5095 0.105357 16.2551 0 15.9899 0L11.4209 0C11.2232 4.22243e-05 11.0299 0.0587141 10.8655 0.168598C10.7011 0.278483 10.5729 0.434646 10.4972 0.617346C10.4216 0.800045 10.4018 1.00108 10.4403 1.19503C10.4789 1.38898 10.5741 1.56715 10.7139 1.707L11.9429 2.936L9.89992 4.974C9.04428 4.44408 8.07727 4.12009 7.07508 4.02757C6.07289 3.93504 5.06291 4.0765 4.12471 4.4408C3.18651 4.80511 2.34572 5.3823 1.66859 6.1269C0.991462 6.87151 0.496493 7.76318 0.222681 8.73167C-0.0511302 9.70016 -0.0963027 10.719 0.0907229 11.7079C0.277748 12.6968 0.691862 13.6288 1.30044 14.4304C1.90901 15.232 2.69542 15.8814 3.5977 16.3273C4.49998 16.7732 5.49348 17.0035 6.49992 17C6.68292 17 6.85992 16.978 7.03992 16.963C7.02492 17.142 6.99992 17.318 6.99992 17.5C6.99645 18.5064 7.22674 19.4999 7.67265 20.4022C8.11855 21.3045 8.76789 22.0909 9.5695 22.6995C10.3711 23.3081 11.3031 23.7222 12.292 23.9092C13.2809 24.0962 14.2998 24.0511 15.2683 23.7772C16.2367 23.5034 17.1284 23.0085 17.873 22.3313C18.6176 21.6542 19.1948 20.8134 19.5591 19.8752C19.9234 18.937 20.0649 17.927 19.9724 16.9248C19.8798 15.9227 19.5558 14.9556 19.0259 14.1L21.0639 12.062L22.2929 13.291C22.4332 13.4312 22.612 13.5266 22.8066 13.5649C23.0012 13.6033 23.2028 13.5829 23.3858 13.5064C23.5688 13.4298 23.7249 13.3006 23.8343 13.1351C23.9436 12.9696 24.0013 12.7753 23.9999 12.577L23.9899 8ZM2.99992 10.5C2.99992 9.80777 3.20519 9.13108 3.58978 8.5555C3.97436 7.97993 4.52099 7.53133 5.16053 7.26642C5.80007 7.00152 6.5038 6.9322 7.18274 7.06725C7.86167 7.2023 8.48531 7.53564 8.97479 8.02513C9.46428 8.51461 9.79762 9.13825 9.93267 9.81718C10.0677 10.4961 9.99841 11.1999 9.7335 11.8394C9.46859 12.4789 9.01999 13.0256 8.44442 13.4101C7.86884 13.7947 7.19216 14 6.49992 14C5.57166 14 4.68142 13.6313 4.02505 12.9749C3.36867 12.3185 2.99992 11.4283 2.99992 10.5ZM13.4999 21C12.8077 21 12.131 20.7947 11.5554 20.4101C10.9799 20.0256 10.5312 19.4789 10.2663 18.8394C10.0014 18.1999 9.93212 17.4961 10.0672 16.8172C10.2022 16.1383 10.5356 15.5146 11.025 15.0251C11.5145 14.5356 12.1382 14.2023 12.8171 14.0673C13.496 13.9322 14.1998 14.0015 14.8393 14.2664C15.4789 14.5313 16.0255 14.9799 16.4101 15.5555C16.7946 16.1311 16.9999 16.8078 16.9999 17.5C16.9999 18.4283 16.6312 19.3185 15.9748 19.9749C15.3184 20.6313 14.4282 21 13.4999 21Z" fill="#708090"/>
</g>
<defs>
<clipPath id="clip0_9_6912">
<rect width="24" height="24" fill="white"/>
</clipPath>
</defs>
</svg>
