<svg width="24" height="24" viewBox="0 0 24 24" fill="none" xmlns="http://www.w3.org/2000/svg">
<g clip-path="url(#clip0_9_6896)">
<path d="M22.448 19.0002H15.1C14.7543 18.2783 14.1721 17.6965 13.45 17.3512V14.0002C14.495 14.0002 15.385 13.9902 15.85 13.9812C16.2223 13.9746 16.5928 13.93 16.956 13.8482C18.0887 13.6009 19.1045 12.978 19.8386 12.0807C20.5726 11.1834 20.9819 10.0643 20.9998 8.9051C21.0178 7.74591 20.6434 6.61468 19.9374 5.69506C19.2315 4.77544 18.2355 4.12142 17.111 3.83917L16.926 3.79617C16.87 3.78317 16.785 3.76317 16.797 3.78717C16.7877 3.77136 16.7794 3.755 16.772 3.73817C16.226 2.48233 15.2809 1.44171 14.0833 0.777633C12.8857 0.113557 11.5024 -0.136871 10.148 0.0651736C8.95481 0.235094 7.8399 0.758748 6.94722 1.56854C6.05454 2.37834 5.42506 3.4371 5.14003 4.60817C4.94884 5.35938 4.90672 6.14077 5.01603 6.90817C4.34379 7.25922 3.79416 7.80633 3.44003 8.47694C3.0859 9.14755 2.94401 9.90998 3.03317 10.6631C3.12233 11.4162 3.43834 12.1244 3.93928 12.6938C4.44021 13.2632 5.10241 13.6668 5.83803 13.8512C6.13239 13.9268 6.43425 13.9694 6.73803 13.9782C7.30003 13.9912 8.80003 14.0002 10.448 14.0002V17.3512C9.72672 17.6968 9.14524 18.2787 8.80003 19.0002H1.44803C1.0502 19.0002 0.668673 19.1582 0.387368 19.4395C0.106064 19.7208 -0.0519714 20.1024 -0.0519714 20.5002C-0.0519714 20.898 0.106064 21.2795 0.387368 21.5608C0.668673 21.8421 1.0502 22.0002 1.44803 22.0002H8.80003C9.08063 22.5987 9.52593 23.1049 10.0838 23.4595C10.6417 23.8141 11.289 24.0024 11.95 24.0024C12.6111 24.0024 13.2584 23.8141 13.8163 23.4595C14.3741 23.1049 14.8194 22.5987 15.1 22.0002H22.45C22.8479 22.0002 23.2294 21.8421 23.5107 21.5608C23.792 21.2795 23.95 20.898 23.95 20.5002C23.95 20.1024 23.792 19.7208 23.5107 19.4395C23.2294 19.1582 22.8479 19.0002 22.45 19.0002H22.448ZM6.58303 10.9432C6.45507 10.9092 6.33772 10.8436 6.24178 10.7524C6.14584 10.6612 6.0744 10.5473 6.03403 10.4212C5.99747 10.2247 6.03242 10.0216 6.13256 9.84866C6.2327 9.6757 6.39143 9.54429 6.58003 9.47817C7.10781 9.25736 7.5414 8.85838 7.80526 8.35075C8.06913 7.84313 8.14655 7.25901 8.02403 6.70017C7.92676 6.24898 7.93566 5.78134 8.05003 5.33417C8.19716 4.74538 8.51475 4.21309 8.96301 3.80396C9.41127 3.39483 9.97028 3.12706 10.57 3.03417C10.7291 3.01198 10.8894 3.00062 11.05 3.00017C11.6767 2.99343 12.2915 3.17083 12.8183 3.51037C13.345 3.84991 13.7604 4.33665 14.013 4.91017C14.2151 5.38733 14.5354 5.80512 14.9438 6.12409C15.3522 6.44306 15.8351 6.65268 16.347 6.73317C16.821 6.8444 17.2429 7.11383 17.5431 7.49703C17.8434 7.88023 18.0041 8.35431 17.9987 8.84111C17.9934 9.3279 17.8223 9.79834 17.5137 10.1748C17.205 10.5513 16.7773 10.8114 16.301 10.9122C16.1342 10.9499 15.964 10.9706 15.793 10.9742C14.245 11.0022 8.07403 11.0082 6.81603 10.9742C6.73747 10.9722 6.65936 10.9619 6.58303 10.9432Z" fill="#708090"/>
</g>
<defs>
<clipPath id="clip0_9_6896">
<rect width="24" height="24" fill="white"/>
</clipPath>
</defs>
</svg>
