<svg width="24" height="24" viewBox="0 0 24 24" fill="none" xmlns="http://www.w3.org/2000/svg">
<path d="M17.0002 12.3509V8.49989C17.0002 8.10206 16.8421 7.72053 16.5608 7.43923C16.2795 7.15792 15.898 6.99989 15.5002 6.99989H15.0002V1.80989C15 1.50151 14.921 1.19829 14.7707 0.928995C14.6204 0.659704 14.4038 0.433276 14.1415 0.271194C13.8791 0.109111 13.5797 0.0167495 13.2716 0.00287157C12.9635 -0.0110064 12.657 0.0540596 12.3812 0.191896L10.4162 1.1749C9.99065 1.38732 9.63275 1.71411 9.38264 2.11861C9.13252 2.52311 9.00007 2.98931 9.00015 3.46489V6.99989H8.50015C8.10233 6.99989 7.7208 7.15792 7.43949 7.43923C7.15819 7.72053 7.00015 8.10206 7.00015 8.49989V12.3509C6.40377 12.6338 5.89954 13.0795 5.54565 13.6367C5.19177 14.1939 5.00266 14.8398 5.00015 15.4999V18.4999C5.00174 19.9581 5.58171 21.3561 6.61282 22.3872C7.64393 23.4183 9.04195 23.9983 10.5002 23.9999H13.5002C14.9584 23.9983 16.3564 23.4183 17.3875 22.3872C18.4186 21.3561 18.9986 19.9581 19.0002 18.4999V15.4999C18.9976 14.8398 18.8085 14.1939 18.4547 13.6367C18.1008 13.0795 17.5965 12.6338 17.0002 12.3509ZM10.0002 11.9999V9.99989H14.0002V11.9999H10.0002ZM16.0002 18.4999C16.0002 19.1629 15.7368 19.7988 15.2679 20.2676C14.7991 20.7365 14.1632 20.9999 13.5002 20.9999H10.5002C9.83711 20.9999 9.20123 20.7365 8.73239 20.2676C8.26354 19.7988 8.00015 19.1629 8.00015 18.4999V15.4999C8.00015 15.3673 8.05283 15.2401 8.1466 15.1463C8.24037 15.0526 8.36754 14.9999 8.50015 14.9999H15.5002C15.6328 14.9999 15.7599 15.0526 15.8537 15.1463C15.9475 15.2401 16.0002 15.3673 16.0002 15.4999V18.4999Z" fill="#708090"/>
</svg>
