<svg width="24" height="24" viewBox="0 0 24 24" fill="none" xmlns="http://www.w3.org/2000/svg">
<g clip-path="url(#clip0_9_6980)">
<path d="M23.2631 14.7594C23.0088 14.4904 22.6964 14.2832 22.3497 14.1536C22.0031 14.024 21.6314 13.9753 21.2631 14.0114C18.3677 14.185 15.623 15.3609 13.5 17.3374V14.8184C14.922 14.48 16.1887 13.6727 17.0957 12.5265C18.0028 11.3803 18.4975 9.96205 18.5 8.50036C18.5 5.52736 16.484 3.07036 14.513 1.05936C13.8417 0.402053 12.9396 0.0339355 12 0.0339355C11.0605 0.0339355 10.1584 0.402053 9.48705 1.05936C7.51605 3.07036 5.50005 5.52736 5.50005 8.50036C5.50259 9.96205 5.99727 11.3803 6.90435 12.5265C7.81143 13.6727 9.07806 14.48 10.5 14.8184V17.3374C8.37695 15.3611 5.63236 14.1852 2.73705 14.0114C2.36874 13.9757 1.99715 14.0245 1.65057 14.1541C1.30398 14.2837 0.991546 14.4907 0.737049 14.7594C0.465189 15.0513 0.262327 15.4005 0.143424 15.7813C0.0245218 16.162 -0.00738771 16.5646 0.0500493 16.9594C0.861049 22.6324 6.65005 24.0674 10.609 24.0674C15.621 24.2104 22.7091 23.9104 23.9501 16.9594C24.0072 16.5646 23.9751 16.1621 23.8563 15.7814C23.7374 15.4007 23.5347 15.0514 23.2631 14.7594ZM8.50005 8.50036C8.68933 6.94322 9.39323 5.49388 10.5 4.38236V7.50036C10.5 7.89819 10.6581 8.27972 10.9394 8.56102C11.2207 8.84233 11.6022 9.00036 12 9.00036C12.3979 9.00036 12.7794 8.84233 13.0607 8.56102C13.342 8.27972 13.5 7.89819 13.5 7.50036V4.38236C14.6069 5.49388 15.3108 6.94322 15.5 8.50036C15.5 9.42862 15.1313 10.3189 14.4749 10.9752C13.8185 11.6316 12.9283 12.0004 12 12.0004C11.0718 12.0004 10.1816 11.6316 9.52518 10.9752C8.8688 10.3189 8.50005 9.42862 8.50005 8.50036ZM3.12705 17.0774C4.44524 17.2102 5.7175 17.634 6.85208 18.3181C7.98666 19.0022 8.95527 19.9296 9.68805 21.0334C7.36905 20.9004 3.91705 20.1624 3.12705 17.0774ZM14.312 21.0334C15.0449 19.9297 16.0136 19.0024 17.1481 18.3183C18.2827 17.6342 19.5549 17.2104 20.873 17.0774C20.084 20.1624 16.6311 20.9004 14.312 21.0334Z" fill="#708090"/>
</g>
<defs>
<clipPath id="clip0_9_6980">
<rect width="24" height="24" fill="white"/>
</clipPath>
</defs>
</svg>
