<svg width="24" height="24" viewBox="0 0 24 24" fill="none" xmlns="http://www.w3.org/2000/svg">
<g clip-path="url(#clip0_9_7258)">
<path d="M21.621 19.4995L23.561 17.5605C23.8424 17.2791 24.0005 16.8975 24.0005 16.4995C24.0005 16.1016 23.8424 15.7199 23.561 15.4385C23.2796 15.1571 22.8979 14.999 22.5 14.999C22.102 14.999 21.7204 15.1571 21.439 15.4385L19.5 17.3785L17.561 15.4385C17.2796 15.1571 16.8979 14.999 16.5 14.999C16.102 14.999 15.7204 15.1571 15.439 15.4385C15.1576 15.7199 14.9995 16.1016 14.9995 16.4995C14.9995 16.8975 15.1576 17.2791 15.439 17.5605L17.379 19.4995L15.439 21.4385C15.1576 21.7199 14.9995 22.1016 14.9995 22.4995C14.9995 22.8975 15.1576 23.2791 15.439 23.5605C15.7204 23.8419 16.102 24 16.5 24C16.8979 24 17.2796 23.8419 17.561 23.5605L19.5 21.6205L21.439 23.5605C21.7204 23.8419 22.102 24 22.5 24C22.8979 24 23.2796 23.8419 23.561 23.5605C23.8424 23.2791 24.0005 22.8975 24.0005 22.4995C24.0005 22.1016 23.8424 21.7199 23.561 21.4385L21.621 19.4995Z" fill="#708090"/>
<path d="M11.57 20.9897C9.82865 20.9063 8.14895 20.319 6.73504 19.2991C5.32114 18.2791 4.2339 16.8705 3.60544 15.2443C2.97698 13.6181 2.83435 11.8444 3.19489 10.1387C3.55543 8.43304 4.40361 6.86877 5.63637 5.63601C6.86913 4.40325 8.4334 3.55507 10.1391 3.19453C11.8448 2.83399 13.6185 2.97662 15.2447 3.60508C16.8708 4.23354 18.2795 5.32078 19.2994 6.73468C20.3194 8.14858 20.9067 9.82829 20.99 11.5697C21.0086 11.9675 21.1844 12.3417 21.4789 12.6098C21.7733 12.878 22.1622 13.0182 22.56 12.9997C22.9579 12.9811 23.332 12.8053 23.6002 12.5108C23.8684 12.2164 24.0086 11.8275 23.99 11.4297C23.8797 9.10761 23.0972 6.86758 21.7377 4.98183C20.3783 3.09609 18.5003 1.64582 16.3321 0.807269C14.1639 -0.0312781 11.7989 -0.221994 9.52432 0.258299C7.24978 0.738593 5.16371 1.86921 3.51964 3.51276C1.87557 5.15631 0.744288 7.24201 0.263271 9.5164C-0.217747 11.7908 -0.0277847 14.1559 0.810071 16.3244C1.64793 18.4928 3.0976 20.3712 4.98291 21.7313C6.86823 23.0914 9.108 23.8746 11.43 23.9857H11.501C11.8989 23.9948 12.284 23.8456 12.5718 23.5707C12.8596 23.2959 13.0264 22.918 13.0355 22.5202C13.0447 22.1224 12.8954 21.7372 12.6206 21.4494C12.3458 21.1616 11.9679 20.9948 11.57 20.9857V20.9897Z" fill="#708090"/>
<path d="M12 6C11.6022 6 11.2206 6.15803 10.9393 6.43934C10.658 6.72064 10.5 7.10217 10.5 7.5V11.055L8.09998 12.555C7.93297 12.6596 7.78819 12.796 7.67393 12.9565C7.55966 13.1171 7.47815 13.2985 7.43403 13.4906C7.38992 13.6826 7.38408 13.8815 7.41685 14.0758C7.44961 14.2701 7.52034 14.456 7.62498 14.623C7.72955 14.79 7.86599 14.9348 8.02652 15.049C8.18705 15.1633 8.36853 15.2448 8.56057 15.2889C8.75262 15.333 8.95147 15.3389 9.14577 15.3061C9.34008 15.2734 9.52602 15.2026 9.69298 15.098L12.562 13.298C12.8498 13.1176 13.087 12.8669 13.2511 12.5695C13.4152 12.272 13.5009 11.9377 13.5 11.598V7.5C13.5 7.10217 13.3419 6.72064 13.0606 6.43934C12.7793 6.15803 12.3978 6 12 6Z" fill="#708090"/>
</g>
<defs>
<clipPath id="clip0_9_7258">
<rect width="24" height="24" fill="white"/>
</clipPath>
</defs>
</svg>
