<svg width="24" height="24" viewBox="0 0 24 24" fill="none" xmlns="http://www.w3.org/2000/svg">
<g clip-path="url(#clip0_9_6965)">
<path d="M13.4182 15.0002C14.9015 15.0002 16.3516 14.5603 17.5849 13.7362C18.8183 12.9121 19.7796 11.7408 20.3473 10.3703C20.9149 8.99987 21.0634 7.49187 20.7741 6.03701C20.4847 4.58216 19.7704 3.24578 18.7215 2.19689C17.6726 1.148 16.3362 0.43369 14.8814 0.1443C13.4265 -0.145089 11.9185 0.00343621 10.5481 0.571093C9.17761 1.13875 8.00627 2.10004 7.18217 3.33341C6.35806 4.56678 5.91819 6.01683 5.91819 7.50019C5.92031 9.48866 6.71116 11.3951 8.11722 12.8012C9.52329 14.2072 11.4297 14.9981 13.4182 15.0002ZM13.4182 3.00019C14.3082 3.00019 15.1782 3.26411 15.9182 3.75858C16.6583 4.25304 17.235 4.95585 17.5756 5.77811C17.9162 6.60038 18.0053 7.50518 17.8317 8.3781C17.6581 9.25101 17.2295 10.0528 16.6002 10.6822C15.9708 11.3115 15.169 11.7401 14.2961 11.9137C13.4232 12.0874 12.5184 11.9982 11.6961 11.6576C10.8738 11.3171 10.171 10.7403 9.67657 10.0003C9.18211 9.26024 8.91819 8.39021 8.91819 7.50019C8.91819 6.30672 9.39229 5.16212 10.2362 4.31821C11.0801 3.4743 12.2247 3.00019 13.4182 3.00019ZM23.7372 14.5562C22.6834 16.0914 21.2997 17.3716 19.6872 18.303C18.0748 19.2344 16.2745 19.7934 14.4182 19.9392V21.0002H17.5002C17.898 21.0002 18.2795 21.1582 18.5608 21.4395C18.8421 21.7208 19.0002 22.1024 19.0002 22.5002C19.0002 22.898 18.8421 23.2795 18.5608 23.5609C18.2795 23.8422 17.898 24.0002 17.5002 24.0002H8.50019C8.10236 24.0002 7.72083 23.8422 7.43953 23.5609C7.15822 23.2795 7.00019 22.898 7.00019 22.5002C7.00019 22.1024 7.15822 21.7208 7.43953 21.4395C7.72083 21.1582 8.10236 21.0002 8.50019 21.0002H11.4182V19.8252C9.36501 19.494 7.42706 18.6552 5.78022 17.3852C4.13338 16.1151 2.82978 14.4538 1.98773 12.5522C1.14569 10.6506 0.791863 8.56877 0.958367 6.49573C1.12487 4.42269 1.80643 2.42404 2.94119 0.68119C3.04737 0.513165 3.18588 0.367917 3.34868 0.253887C3.51148 0.139857 3.69532 0.0593192 3.88951 0.0169534C4.0837 -0.0254125 4.28438 -0.0287613 4.47988 0.00710157C4.67538 0.0429644 4.8618 0.117324 5.02831 0.225858C5.19483 0.334393 5.33811 0.474938 5.44983 0.639327C5.56156 0.803716 5.63949 0.988671 5.67912 1.18344C5.71875 1.37821 5.71927 1.57892 5.68065 1.77389C5.64204 1.96887 5.56506 2.15422 5.45419 2.31919C4.05637 4.41559 3.54859 6.98142 4.04256 9.45221C4.53653 11.923 5.99179 14.0964 8.08819 15.4942C10.1846 16.892 12.7504 17.3998 15.2212 16.9058C17.692 16.4119 19.8653 14.9566 21.2632 12.8602C21.3748 12.6977 21.5173 12.5589 21.6826 12.4515C21.8479 12.3442 22.0327 12.2704 22.2265 12.2345C22.4203 12.1985 22.6193 12.2011 22.8121 12.2421C23.0049 12.283 23.1877 12.3616 23.3502 12.4732C23.5126 12.5848 23.6515 12.7273 23.7588 12.8926C23.8662 13.0579 23.94 13.2427 23.9759 13.4365C24.0118 13.6303 24.0092 13.8293 23.9683 14.0221C23.9273 14.2149 23.8488 14.3977 23.7372 14.5602V14.5562Z" fill="#708090"/>
</g>
<defs>
<clipPath id="clip0_9_6965">
<rect width="24" height="24" fill="white"/>
</clipPath>
</defs>
</svg>
