<svg width="24" height="24" viewBox="0 0 24 24" fill="none" xmlns="http://www.w3.org/2000/svg">
<path d="M19.0612 7.85399C18.9219 7.7146 18.7565 7.60402 18.5744 7.52858C18.3924 7.45314 18.1973 7.41431 18.0002 7.41431C17.8031 7.41431 17.608 7.45314 17.4259 7.52858C17.2439 7.60402 17.0785 7.7146 16.9392 7.85399L12.3532 12.439C12.2594 12.5327 12.1323 12.5854 11.9997 12.5854C11.8671 12.5854 11.74 12.5327 11.6462 12.439L7.06119 7.85399C6.77993 7.57259 6.3984 7.41445 6.00054 7.41436C5.60268 7.41427 5.22108 7.57222 4.93969 7.85349C4.65829 8.13475 4.50015 8.51627 4.50006 8.91413C4.49997 9.31199 4.65793 9.69359 4.93919 9.97499L9.52519 14.561C9.8502 14.886 10.2361 15.1439 10.6607 15.3198C11.0854 15.4957 11.5405 15.5862 12.0002 15.5862C12.4598 15.5862 12.915 15.4957 13.3397 15.3198C13.7643 15.1439 14.1502 14.886 14.4752 14.561L19.0612 9.97499C19.3424 9.6937 19.5004 9.31223 19.5004 8.91449C19.5004 8.51674 19.3424 8.13528 19.0612 7.85399Z" fill="#708090"/>
</svg>
