<svg width="24" height="24" viewBox="0 0 24 24" fill="none" xmlns="http://www.w3.org/2000/svg">
<g clip-path="url(#clip0_9_6942)">
<path d="M22.5 6H1.5C1.10218 6 0.720644 5.84196 0.43934 5.56066C0.158035 5.27936 0 4.89782 0 4.5C0 4.10218 0.158035 3.72064 0.43934 3.43934C0.720644 3.15804 1.10218 3 1.5 3H22.5C22.8978 3 23.2794 3.15804 23.5607 3.43934C23.842 3.72064 24 4.10218 24 4.5C24 4.89782 23.842 5.27936 23.5607 5.56066C23.2794 5.84196 22.8978 6 22.5 6Z" fill="#708090"/>
<path d="M22.4999 10.9997H9.49991C9.10208 10.9997 8.72055 10.8417 8.43925 10.5604C8.15794 10.2791 7.99991 9.89752 7.99991 9.49969C7.99991 9.10187 8.15794 8.72034 8.43925 8.43903C8.72055 8.15773 9.10208 7.99969 9.49991 7.99969H22.4999C22.8977 7.99969 23.2792 8.15773 23.5605 8.43903C23.8418 8.72034 23.9999 9.10187 23.9999 9.49969C23.9999 9.89752 23.8418 10.2791 23.5605 10.5604C23.2792 10.8417 22.8977 10.9997 22.4999 10.9997Z" fill="#708090"/>
<path d="M22.5 21H1.5C1.10218 21 0.720644 20.842 0.43934 20.5607C0.158035 20.2794 0 19.8978 0 19.5C0 19.1022 0.158035 18.7206 0.43934 18.4393C0.720644 18.158 1.10218 18 1.5 18H22.5C22.8978 18 23.2794 18.158 23.5607 18.4393C23.842 18.7206 24 19.1022 24 19.5C24 19.8978 23.842 20.2794 23.5607 20.5607C23.2794 20.842 22.8978 21 22.5 21Z" fill="#708090"/>
<path d="M22.4999 16.0003H9.49991C9.10208 16.0003 8.72055 15.8423 8.43925 15.561C8.15794 15.2797 7.99991 14.8981 7.99991 14.5003C7.99991 14.1025 8.15794 13.7209 8.43925 13.4396C8.72055 13.1583 9.10208 13.0003 9.49991 13.0003H22.4999C22.8977 13.0003 23.2792 13.1583 23.5605 13.4396C23.8418 13.7209 23.9999 14.1025 23.9999 14.5003C23.9999 14.8981 23.8418 15.2797 23.5605 15.561C23.2792 15.8423 22.8977 16.0003 22.4999 16.0003Z" fill="#708090"/>
<path d="M1.70699 15.7452L4.68099 12.7712C4.88507 12.5665 4.99967 12.2892 4.99967 12.0002C4.99967 11.7111 4.88507 11.4339 4.68099 11.2292L1.70699 8.25519C1.56707 8.11532 1.38882 8.02009 1.19477 7.98156C1.00073 7.94302 0.799609 7.96291 0.616868 8.0387C0.434128 8.1145 0.277975 8.24279 0.168167 8.40735C0.0583583 8.57192 -0.000170599 8.76535 -1.49491e-05 8.96319V15.0372C-0.000170599 15.235 0.0583583 15.4285 0.168167 15.593C0.277975 15.7576 0.434128 15.8859 0.616868 15.9617C0.799609 16.0375 1.00073 16.0574 1.19477 16.0188C1.38882 15.9803 1.56707 15.8851 1.70699 15.7452Z" fill="#708090"/>
</g>
<defs>
<clipPath id="clip0_9_6942">
<rect width="24" height="24" fill="white"/>
</clipPath>
</defs>
</svg>
