<svg width="24" height="24" viewBox="0 0 24 24" fill="none" xmlns="http://www.w3.org/2000/svg">
<g clip-path="url(#clip0_9_7028)">
<path d="M17.0001 12.5C17.0001 12.8978 16.8421 13.2793 16.5608 13.5607C16.2795 13.842 15.8979 14 15.5001 14H8.50012C8.1023 14 7.72077 13.842 7.43946 13.5607C7.15816 13.2793 7.00012 12.8978 7.00012 12.5C7.00012 12.1022 7.15816 11.7206 7.43946 11.4393C7.72077 11.158 8.1023 11 8.50012 11H15.5001C15.8979 11 16.2795 11.158 16.5608 11.4393C16.8421 11.7206 17.0001 12.1022 17.0001 12.5ZM12.5001 16H8.50012C8.1023 16 7.72077 16.158 7.43946 16.4393C7.15816 16.7206 7.00012 17.1022 7.00012 17.5C7.00012 17.8978 7.15816 18.2793 7.43946 18.5607C7.72077 18.842 8.1023 19 8.50012 19H12.5001C12.8979 19 13.2795 18.842 13.5608 18.5607C13.8421 18.2793 14.0001 17.8978 14.0001 17.5C14.0001 17.1022 13.8421 16.7206 13.5608 16.4393C13.2795 16.158 12.8979 16 12.5001 16ZM22.0001 8.15699V18.5C21.9985 19.9582 21.4186 21.3562 20.3875 22.3873C19.3563 23.4184 17.9583 23.9984 16.5001 24H7.50012C6.04192 23.9984 4.64389 23.4184 3.61279 22.3873C2.58168 21.3562 2.00171 19.9582 2.00012 18.5V5.49999C2.00171 4.04179 2.58168 2.64376 3.61279 1.61266C4.64389 0.581553 6.04192 0.00157986 7.50012 -8.30666e-06H13.8431C14.5657 -0.00206886 15.2815 0.139261 15.9491 0.415796C16.6166 0.692331 17.2227 1.09857 17.7321 1.61099L20.3891 4.26799C20.9015 4.77751 21.3076 5.38358 21.5842 6.05113C21.8607 6.71867 22.0021 7.43444 22.0001 8.15699ZM19.0001 18.5V8.99999H15.0001C14.4697 8.99999 13.961 8.78928 13.5859 8.4142C13.2108 8.03913 13.0001 7.53043 13.0001 6.99999V2.99999H7.50012C6.83708 2.99999 6.2012 3.26338 5.73236 3.73222C5.26351 4.20107 5.00012 4.83695 5.00012 5.49999V18.5C5.00012 19.163 5.26351 19.7989 5.73236 20.2678C6.2012 20.7366 6.83708 21 7.50012 21H16.5001C17.1632 21 17.799 20.7366 18.2679 20.2678C18.7367 19.7989 19.0001 19.163 19.0001 18.5Z" fill="#708090"/>
</g>
<defs>
<clipPath id="clip0_9_7028">
<rect width="24" height="24" fill="white"/>
</clipPath>
</defs>
</svg>
