<svg width="24" height="24" viewBox="0 0 24 24" fill="none" xmlns="http://www.w3.org/2000/svg">
<g clip-path="url(#clip0_9_7003)">
<path d="M8.0002 22.3601C9.06233 23.4059 10.4915 23.9945 11.9821 24.0001C13.4726 24.0057 14.9062 23.4279 15.9762 22.3901L19.7842 18.8531C21.8423 16.7758 22.997 13.9698 22.997 11.0456C22.997 8.12135 21.8423 5.3154 19.7842 3.23809C18.7649 2.212 17.5527 1.39766 16.2174 0.841965C14.8821 0.286267 13.45 0.000183105 12.0037 0.000183105C10.5574 0.000183105 9.12533 0.286267 7.79002 0.841965C6.45471 1.39766 5.24251 2.212 4.2232 3.23809C2.15986 5.32357 1.00602 8.14107 1.01389 11.0748C1.02177 14.0084 2.1907 16.8197 4.2652 18.8941L8.0002 22.3601ZM6.3462 5.35409C7.08674 4.60813 7.96758 4.01608 8.93796 3.61207C9.90834 3.20805 10.9491 3.00005 12.0002 3.00005C13.0513 3.00005 14.0921 3.20805 15.0624 3.61207C16.0328 4.01608 16.9137 4.60813 17.6542 5.35409C19.1525 6.85916 19.9975 8.89395 20.0061 11.0176C20.0147 13.1413 19.1862 15.1829 17.7002 16.7001L13.9002 20.2251C13.3826 20.7186 12.6933 20.9915 11.9781 20.9859C11.263 20.9803 10.578 20.6967 10.0682 20.1951L6.3462 16.7371C4.84524 15.2231 4.00309 13.1775 4.00309 11.0456C4.00309 8.91368 4.84524 6.86808 6.3462 5.35409ZM7.0002 11.0001C7.0002 10.6023 7.15823 10.2207 7.43954 9.93943C7.72084 9.65812 8.10237 9.50009 8.5002 9.50009H15.5002C15.898 9.50009 16.2796 9.65812 16.5609 9.93943C16.8422 10.2207 17.0002 10.6023 17.0002 11.0001C17.0002 11.3979 16.8422 11.7794 16.5609 12.0607C16.2796 12.3421 15.898 12.5001 15.5002 12.5001H8.5002C8.10237 12.5001 7.72084 12.3421 7.43954 12.0607C7.15823 11.7794 7.0002 11.3979 7.0002 11.0001Z" fill="#708090"/>
</g>
<defs>
<clipPath id="clip0_9_7003">
<rect width="24" height="24" fill="white"/>
</clipPath>
</defs>
</svg>
