<svg width="24" height="24" viewBox="0 0 24 24" fill="none" xmlns="http://www.w3.org/2000/svg">
<g clip-path="url(#clip0_9_7134)">
<path d="M5.32384 23.9821H18.6808C19.577 23.9826 20.4587 23.7563 21.2439 23.3242C22.029 22.8921 22.692 22.2684 23.1712 21.511C23.6503 20.7537 23.93 19.8874 23.9841 18.9929C24.0383 18.0984 23.8651 17.2047 23.4808 16.3951L16.8198 3.09507C16.3976 2.1729 15.7182 1.39216 14.8633 0.846544C14.0083 0.300925 13.0141 0.0136067 11.9998 0.019069C10.993 0.0115078 10.0052 0.293585 9.15415 0.831688C8.30311 1.36979 7.62473 2.14123 7.19984 3.05407L0.499837 16.4341C0.123778 17.2438 -0.042071 18.1353 0.0176221 19.0262C0.0773151 19.917 0.360623 20.7784 0.841358 21.5307C1.32209 22.2831 1.98474 22.9021 2.76804 23.3306C3.55134 23.759 4.43001 23.9831 5.32284 23.9821H5.32384ZM3.21384 17.7161L9.89984 4.35807C10.0882 3.95458 10.3887 3.6138 10.7654 3.37636C11.1421 3.13893 11.5791 3.01487 12.0244 3.01898C12.4696 3.02309 12.9043 3.1552 13.2766 3.39955C13.6488 3.6439 13.943 3.99017 14.1238 4.39707L20.7858 17.6971C20.9494 18.0495 21.0215 18.4375 20.9954 18.8252C20.9694 19.2129 20.8459 19.5877 20.6366 19.9151C20.4273 20.2424 20.1388 20.5117 19.7978 20.698C19.4568 20.8844 19.0744 20.9817 18.6858 20.9811H16.6588L13.7068 15.0861C13.5555 14.7612 13.3146 14.4863 13.0124 14.2937C12.7101 14.1011 12.3592 13.9987 12.0008 13.9987C11.6425 13.9987 11.2915 14.1011 10.9893 14.2937C10.6871 14.4863 10.4462 14.7612 10.2948 15.0861L7.34484 20.9861H5.32384C4.93681 20.987 4.55574 20.8907 4.21561 20.706C3.87547 20.5214 3.58717 20.2542 3.37714 19.9292C3.16712 19.6041 3.0421 19.2314 3.01357 18.8455C2.98504 18.4595 3.0539 18.0725 3.21384 17.7201V17.7161Z" fill="#708090"/>
</g>
<defs>
<clipPath id="clip0_9_7134">
<rect width="24" height="24" fill="white"/>
</clipPath>
</defs>
</svg>
