<svg width="24" height="24" viewBox="0 0 24 24" fill="none" xmlns="http://www.w3.org/2000/svg">
<g clip-path="url(#clip0_9_7229)">
<path d="M19.0001 14.9999C19.0001 15.5303 18.7894 16.039 18.4143 16.4141C18.0393 16.7892 17.5306 16.9999 17.0001 16.9999C16.4697 16.9999 15.961 16.7892 15.5859 16.4141C15.2108 16.039 15.0001 15.5303 15.0001 14.9999C15.0001 14.4695 15.2108 13.9608 15.5859 13.5857C15.961 13.2106 16.4697 12.9999 17.0001 12.9999C17.5306 12.9999 18.0393 13.2106 18.4143 13.5857C18.7894 13.9608 19.0001 14.4695 19.0001 14.9999ZM8.00012 11.9999C7.46969 11.9999 6.96098 12.2106 6.58591 12.5857C6.21084 12.9608 6.00012 13.4695 6.00012 13.9999C6.00012 14.5303 6.21084 15.039 6.58591 15.4141C6.96098 15.7892 7.46969 15.9999 8.00012 15.9999C8.53056 15.9999 9.03926 15.7892 9.41434 15.4141C9.78941 15.039 10.0001 14.5303 10.0001 13.9999C10.0001 13.4695 9.78941 12.9608 9.41434 12.5857C9.03926 12.2106 8.53056 11.9999 8.00012 11.9999ZM24.0001 11.0069V18.4999C23.9985 19.9581 23.4186 21.3561 22.3875 22.3872C21.3563 23.4183 19.9583 23.9983 18.5001 23.9999H6.02512C4.87584 23.9994 3.75552 23.6393 2.8212 22.97C1.88689 22.3008 1.18542 21.3559 0.815124 20.2679C-0.264261 17.1982 -0.26955 13.853 0.800124 10.7799C2.03765 6.8916 4.46698 3.4911 7.74412 1.0599C8.65084 0.393399 9.74141 0.0234524 10.8665 0.000717724C11.9916 -0.0220169 13.0962 0.303572 14.0291 0.932905L21.3181 5.74891C22.1448 6.35491 22.818 7.14618 23.2838 8.05927C23.7495 8.97237 23.9949 9.9819 24.0001 11.0069ZM6.05112 6.99991H17.7721L12.3721 3.4329C11.955 3.14524 11.4591 2.99369 10.9524 2.99906C10.4457 3.00444 9.95307 3.16646 9.54212 3.4629C8.20839 4.461 7.03167 5.65322 6.05112 6.99991ZM21.0001 11.0069C20.9996 10.6658 20.9494 10.3266 20.8511 9.99991H6.02612C5.50291 10.0003 4.99294 10.1644 4.56773 10.4693C4.14252 10.7742 3.8234 11.2045 3.65512 11.6999C2.78339 14.1582 2.78339 16.8416 3.65512 19.2999C3.82257 19.7956 4.14134 20.2264 4.56652 20.5313C4.99171 20.8363 5.50187 21.0002 6.02512 20.9999H9.00012C9.00012 20.2043 9.31619 19.4412 9.8788 18.8786C10.4414 18.316 11.2045 17.9999 12.0001 17.9999C12.7958 17.9999 13.5588 18.316 14.1214 18.8786C14.6841 19.4412 15.0001 20.2043 15.0001 20.9999H18.5001C19.1632 20.9999 19.799 20.7365 20.2679 20.2677C20.7367 19.7988 21.0001 19.1629 21.0001 18.4999V11.0069Z" fill="#708090"/>
</g>
<defs>
<clipPath id="clip0_9_7229">
<rect width="24" height="24" fill="white"/>
</clipPath>
</defs>
</svg>
