<svg width="24" height="24" viewBox="0 0 24 24" fill="none" xmlns="http://www.w3.org/2000/svg">
<path d="M19.9998 14.141V12C19.9977 10.5978 19.627 9.22075 18.925 8.00692C18.2229 6.79309 17.2142 5.78511 15.9998 5.084V4C15.9998 2.93913 15.5784 1.92172 14.8282 1.17157C14.0781 0.421427 13.0607 0 11.9998 0C10.939 0 9.92154 0.421427 9.17139 1.17157C8.42124 1.92172 7.99982 2.93913 7.99982 4V5.084C6.78545 5.78511 5.7767 6.79309 5.07466 8.00692C4.37262 9.22075 4.00196 10.5978 3.99982 12V14.141C3.14274 14.3607 2.38298 14.859 1.83993 15.5575C1.29689 16.256 1.00137 17.1152 0.999817 18V20C0.999817 21.0609 1.42124 22.0783 2.17139 22.8284C2.92154 23.5786 3.93895 24 4.99982 24H18.9998C20.0607 24 21.0781 23.5786 21.8282 22.8284C22.5784 22.0783 22.9998 21.0609 22.9998 20V18C22.9983 17.1152 22.7027 16.256 22.1597 15.5575C21.6167 14.859 20.8569 14.3607 19.9998 14.141ZM16.9998 21H6.99982V20.742C7.53568 19.9016 8.27471 19.2099 9.14862 18.7307C10.0225 18.2515 11.0031 18.0002 11.9998 18.0002C12.9965 18.0002 13.9771 18.2515 14.851 18.7307C15.7249 19.2099 16.464 19.9016 16.9998 20.742V21ZM16.9998 16.537C15.5248 15.5353 13.7828 14.9997 11.9998 14.9997C10.2168 14.9997 8.47487 15.5353 6.99982 16.537V12C6.99982 10.6739 7.5266 9.40215 8.46428 8.46447C9.40197 7.52678 10.6737 7 11.9998 7C13.3259 7 14.5977 7.52678 15.5354 8.46447C16.473 9.40215 16.9998 10.6739 16.9998 12V16.537ZM14.9998 11.5C14.9998 11.8978 14.8418 12.2794 14.5605 12.5607C14.2792 12.842 13.8976 13 13.4998 13H10.4998C10.102 13 9.72046 12.842 9.43916 12.5607C9.15785 12.2794 8.99982 11.8978 8.99982 11.5C8.99982 11.1022 9.15785 10.7206 9.43916 10.4393C9.72046 10.158 10.102 10 10.4998 10H13.4998C13.8976 10 14.2792 10.158 14.5605 10.4393C14.8418 10.7206 14.9998 11.1022 14.9998 11.5Z" fill="#708090"/>
</svg>
