<svg width="24" height="24" viewBox="0 0 24 24" fill="none" xmlns="http://www.w3.org/2000/svg">
<g clip-path="url(#clip0_9_7216)">
<path d="M10.5442 7.00031H22.5442C22.942 7.00031 23.3236 6.84227 23.6049 6.56097C23.8862 6.27966 24.0442 5.89813 24.0442 5.50031C24.0442 5.10248 23.8862 4.72095 23.6049 4.43964C23.3236 4.15834 22.942 4.00031 22.5442 4.00031H10.5442C10.1464 4.00031 9.76484 4.15834 9.48353 4.43964C9.20223 4.72095 9.04419 5.10248 9.04419 5.50031C9.04419 5.89813 9.20223 6.27966 9.48353 6.56097C9.76484 6.84227 10.1464 7.00031 10.5442 7.00031Z" fill="#708090"/>
<path d="M22.5442 10.9997H10.5442C10.1464 10.9997 9.76484 11.1577 9.48353 11.439C9.20223 11.7203 9.04419 12.1019 9.04419 12.4997C9.04419 12.8975 9.20223 13.2791 9.48353 13.5604C9.76484 13.8417 10.1464 13.9997 10.5442 13.9997H22.5442C22.942 13.9997 23.3236 13.8417 23.6049 13.5604C23.8862 13.2791 24.0442 12.8975 24.0442 12.4997C24.0442 12.1019 23.8862 11.7203 23.6049 11.439C23.3236 11.1577 22.942 10.9997 22.5442 10.9997Z" fill="#708090"/>
<path d="M22.5442 18H10.5442C10.1464 18 9.76484 18.158 9.48353 18.4393C9.20223 18.7206 9.04419 19.1022 9.04419 19.5C9.04419 19.8978 9.20223 20.2794 9.48353 20.5607C9.76484 20.842 10.1464 21 10.5442 21H22.5442C22.942 21 23.3236 20.842 23.6049 20.5607C23.8862 20.2794 24.0442 19.8978 24.0442 19.5C24.0442 19.1022 23.8862 18.7206 23.6049 18.4393C23.3236 18.158 22.942 18 22.5442 18Z" fill="#708090"/>
<path d="M5.13013 6.99997C5.32788 6.99993 5.52118 6.94126 5.68559 6.83137C5.85 6.72149 5.97814 6.56533 6.05381 6.38263C6.12948 6.19993 6.14928 5.99889 6.11071 5.80494C6.07215 5.61099 5.97694 5.43282 5.83713 5.29297L3.75113 3.20697C3.5636 3.0195 3.30929 2.91418 3.04413 2.91418C2.77897 2.91418 2.52466 3.0195 2.33713 3.20697L0.25113 5.29297C0.111321 5.43282 0.0161146 5.61099 -0.022453 5.80494C-0.0610206 5.99889 -0.0412176 6.19993 0.0344525 6.38263C0.110123 6.56533 0.238262 6.72149 0.402672 6.83137C0.567082 6.94126 0.76038 6.99993 0.958131 6.99997H1.54413V18H0.958131C0.76038 18 0.567082 18.0587 0.402672 18.1686C0.238262 18.2785 0.110123 18.4346 0.0344525 18.6173C-0.0412176 18.8 -0.0610206 19.0011 -0.022453 19.195C0.0161146 19.389 0.111321 19.5671 0.25113 19.707L2.30013 21.755C2.48766 21.9424 2.74197 22.0478 3.00713 22.0478C3.27229 22.0478 3.5266 21.9424 3.71413 21.755L5.76213 19.707C5.902 19.5671 5.99723 19.3888 6.03576 19.1948C6.0743 19.0007 6.05441 18.7996 5.97862 18.6169C5.90282 18.4341 5.77453 18.278 5.60997 18.1682C5.4454 18.0583 5.25197 17.9998 5.05413 18H4.54413V6.99997H5.13013Z" fill="#708090"/>
</g>
<defs>
<clipPath id="clip0_9_7216">
<rect width="24" height="24" fill="white"/>
</clipPath>
</defs>
</svg>
