<svg width="24" height="24" viewBox="0 0 24 24" fill="none" xmlns="http://www.w3.org/2000/svg">
<g clip-path="url(#clip0_9_7066)">
<path d="M18.0002 13.4999V7.5709C18.0035 6.71659 17.8373 5.8701 17.5112 5.08048C17.185 4.29087 16.7054 3.57382 16.1002 2.9709L15.0252 1.8999C14.4222 1.29463 13.7052 0.815037 12.9156 0.488891C12.126 0.162746 11.2795 -0.00346202 10.4252 -0.000102664H7.50015C6.04195 0.00148551 4.64393 0.581458 3.61282 1.61256C2.58171 2.64367 2.00174 4.04169 2.00015 5.4999V13.4999C2.00174 14.9581 2.58171 16.3561 3.61282 17.3872C4.64393 18.4183 6.04195 18.9983 7.50015 18.9999H12.5002C13.9584 18.9983 15.3564 18.4183 16.3875 17.3872C17.4186 16.3561 17.9986 14.9581 18.0002 13.4999ZM5.00015 13.4999V5.4999C5.00015 4.83686 5.26354 4.20097 5.73239 3.73213C6.20123 3.26329 6.83711 2.9999 7.50015 2.9999H10.4292C10.6207 3.00291 10.8117 3.02164 11.0002 3.0559V4.9999C11.0002 5.53033 11.2109 6.03904 11.5859 6.41411C11.961 6.78918 12.4697 6.9999 13.0002 6.9999H14.9442C14.9784 7.18838 14.9971 7.37935 15.0002 7.5709V13.4999C15.0002 14.1629 14.7368 14.7988 14.2679 15.2677C13.7991 15.7365 13.1632 15.9999 12.5002 15.9999H7.50015C6.83711 15.9999 6.20123 15.7365 5.73239 15.2677C5.26354 14.7988 5.00015 14.1629 5.00015 13.4999ZM23.0002 8.4999V18.4999C22.9986 19.9581 22.4186 21.3561 21.3875 22.3872C20.3564 23.4183 18.9584 23.9983 17.5002 23.9999H9.50015C9.10233 23.9999 8.7208 23.8419 8.43949 23.5606C8.15819 23.2793 8.00015 22.8977 8.00015 22.4999C8.00015 22.1021 8.15819 21.7205 8.43949 21.4392C8.7208 21.1579 9.10233 20.9999 9.50015 20.9999H17.5002C18.1632 20.9999 18.7991 20.7365 19.2679 20.2677C19.7368 19.7988 20.0002 19.1629 20.0002 18.4999V8.4999C20.0002 8.10207 20.1582 7.72054 20.4395 7.43924C20.7208 7.15793 21.1023 6.9999 21.5002 6.9999C21.898 6.9999 22.2795 7.15793 22.5608 7.43924C22.8421 7.72054 23.0002 8.10207 23.0002 8.4999Z" fill="#708090"/>
</g>
<defs>
<clipPath id="clip0_9_7066">
<rect width="24" height="24" fill="white"/>
</clipPath>
</defs>
</svg>
