<svg width="24" height="24" viewBox="0 0 24 24" fill="none" xmlns="http://www.w3.org/2000/svg">
<g clip-path="url(#clip0_9_6979)">
<path d="M9.00004 12.0003C9.00004 11.2046 9.31611 10.4416 9.87872 9.87894C10.4413 9.31633 11.2044 9.00026 12 9.00026C12.7957 9.00026 13.5588 9.31633 14.1214 9.87894C14.684 10.4416 15 11.2046 15 12.0003C15 12.7959 14.684 13.559 14.1214 14.1216C13.5588 14.6842 12.7957 15.0003 12 15.0003C11.2044 15.0003 10.4413 14.6842 9.87872 14.1216C9.31611 13.559 9.00004 12.7959 9.00004 12.0003ZM16.953 20.5753C21.636 21.2483 24.867 15.6203 21.812 11.9853C22.478 11.1514 22.8791 10.1373 22.9637 9.07344C23.0483 8.00963 22.8126 6.94484 22.2868 6.01619C21.761 5.08753 20.9692 4.33754 20.0135 3.86277C19.0577 3.388 17.9817 3.2102 16.924 3.35226C16.5271 2.37157 15.8464 1.53174 14.9691 0.940399C14.0919 0.349057 13.058 0.0331421 12 0.0331421C10.9421 0.0331421 9.90821 0.349057 9.03094 0.940399C8.15367 1.53174 7.47296 2.37157 7.07604 3.35226C6.01838 3.20988 4.94232 3.38744 3.98646 3.86205C3.03061 4.33666 2.23875 5.0866 1.71288 6.01524C1.18702 6.94389 0.95125 8.00872 1.03594 9.07255C1.12062 10.1364 1.52189 11.1505 2.18804 11.9843C-0.867956 15.6213 2.36504 21.2473 7.04704 20.5743C7.42689 21.5807 8.10435 22.4476 8.98919 23.0594C9.87404 23.6712 10.9243 23.999 12 23.999C13.0758 23.999 14.126 23.6712 15.0109 23.0594C15.8957 22.4476 16.5732 21.5807 16.953 20.5743V20.5753ZM7.43804 17.3893C4.78804 18.6363 2.49404 14.8893 5.22004 13.3163C5.45327 13.1847 5.64733 12.9935 5.78237 12.7622C5.91741 12.531 5.98857 12.268 5.98857 12.0003C5.98857 11.7325 5.91741 11.4695 5.78237 11.2383C5.64733 11.007 5.45327 10.8158 5.22004 10.6843C2.56704 9.14826 4.70004 5.10526 7.44204 6.61626C7.6702 6.74987 7.92961 6.8208 8.19401 6.82187C8.4584 6.82293 8.71838 6.75409 8.9476 6.62233C9.17683 6.49056 9.36715 6.30054 9.49928 6.07153C9.63142 5.84253 9.70068 5.58266 9.70004 5.31826C9.70004 4.70826 9.94236 4.12325 10.3737 3.69192C10.805 3.26058 11.39 3.01826 12 3.01826C12.61 3.01826 13.1951 3.26058 13.6264 3.69192C14.0577 4.12325 14.3 4.70826 14.3 5.31826C14.3001 5.58232 14.3699 5.84168 14.5023 6.07013C14.6347 6.29858 14.8251 6.48803 15.0542 6.61932C15.2833 6.75061 15.543 6.8191 15.8071 6.81786C16.0711 6.81662 16.3302 6.7457 16.558 6.61226C19.3 5.10526 21.432 9.15026 18.78 10.6843C18.5468 10.8158 18.3528 11.007 18.2177 11.2383C18.0827 11.4695 18.0115 11.7325 18.0115 12.0003C18.0115 12.268 18.0827 12.531 18.2177 12.7622C18.3528 12.9935 18.5468 13.1847 18.78 13.3163C21.507 14.8923 19.209 18.6363 16.562 17.3893C16.3342 17.2549 16.0748 17.1831 15.8102 17.1813C15.5457 17.1795 15.2853 17.2477 15.0556 17.379C14.826 17.5103 14.6351 17.7 14.5024 17.9289C14.3697 18.1578 14.2999 18.4177 14.3 18.6823C14.3 19.2923 14.0577 19.8773 13.6264 20.3086C13.1951 20.7399 12.61 20.9823 12 20.9823C11.39 20.9823 10.805 20.7399 10.3737 20.3086C9.94236 19.8773 9.70004 19.2923 9.70004 18.6823C9.70021 18.4177 9.63041 18.1578 9.49771 17.9289C9.365 17.7 9.17413 17.5103 8.94444 17.379C8.71475 17.2477 8.45442 17.1795 8.18987 17.1813C7.92531 17.1831 7.66593 17.2549 7.43804 17.3893Z" fill="#708090"/>
</g>
<defs>
<clipPath id="clip0_9_6979">
<rect width="24" height="24" fill="white"/>
</clipPath>
</defs>
</svg>
