<svg width="24" height="24" viewBox="0 0 24 24" fill="none" xmlns="http://www.w3.org/2000/svg">
<g clip-path="url(#clip0_9_6795)">
<path d="M14.9999 15.6256C14.9999 14.4984 14.5522 13.4174 13.7551 12.6204C12.9581 11.8234 11.8771 11.3756 10.7499 11.3756C9.62277 11.3756 8.54176 11.8234 7.74474 12.6204C6.94771 13.4174 6.49994 14.4984 6.49994 15.6256C6.49994 16.0234 6.65797 16.405 6.93928 16.6863C7.22058 16.9676 7.60211 17.1256 7.99994 17.1256C8.39776 17.1256 8.77929 16.9676 9.0606 16.6863C9.3419 16.405 9.49994 16.0234 9.49994 15.6256C9.49994 15.2941 9.63163 14.9761 9.86606 14.7417C10.1005 14.5073 10.4184 14.3756 10.7499 14.3756C11.0815 14.3756 11.3994 14.5073 11.6338 14.7417C11.8682 14.9761 11.9999 15.2941 11.9999 15.6256C11.9999 16.2506 10.8079 17.1446 9.84994 17.8626C8.27994 19.0406 6.49994 20.3756 6.49994 22.5006C6.49994 22.8984 6.65797 23.28 6.93928 23.5613C7.22058 23.8426 7.60211 24.0006 7.99994 24.0006H13.4999C13.8978 24.0006 14.2793 23.8426 14.5606 23.5613C14.8419 23.28 14.9999 22.8984 14.9999 22.5006C14.9999 22.1028 14.8419 21.7213 14.5606 21.44C14.2793 21.1586 13.8978 21.0006 13.4999 21.0006H10.6999C11.0099 20.7466 11.3449 20.5006 11.6549 20.2636C13.2199 19.0856 14.9999 17.7506 14.9999 15.6256Z" fill="#708090"/>
<path d="M22.5 11.0006C22.1022 11.0006 21.7207 11.1586 21.4394 11.4399C21.1581 11.7213 21.0001 12.1028 21.0001 12.5006V17.0006H20.2501C19.9187 17.0001 19.6011 16.8682 19.3668 16.6339C19.1325 16.3996 19.0006 16.082 19.0001 15.7506V12.5006C19.0001 12.1028 18.842 11.7213 18.5607 11.4399C18.2794 11.1586 17.8979 11.0006 17.5001 11.0006C17.1022 11.0006 16.7207 11.1586 16.4394 11.4399C16.1581 11.7213 16.0001 12.1028 16.0001 12.5006V15.7506C16.0014 16.8774 16.4496 17.9576 17.2463 18.7544C18.0431 19.5511 19.1233 19.9993 20.2501 20.0006H21.0001V22.5006C21.0001 22.8984 21.1581 23.28 21.4394 23.5613C21.7207 23.8426 22.1022 24.0006 22.5 24.0006C22.8979 24.0006 23.2794 23.8426 23.5607 23.5613C23.842 23.28 24 22.8984 24 22.5006V12.5006C24 12.1028 23.842 11.7213 23.5607 11.4399C23.2794 11.1586 22.8979 11.0006 22.5 11.0006Z" fill="#708090"/>
<path d="M22.2929 2.7075L20.9699 4.0305C19.0082 1.82262 16.3011 0.415758 13.3669 0.0791805C10.4326 -0.257397 7.4773 0.499956 5.06658 2.20628C2.65586 3.9126 0.95908 6.44804 0.301011 9.32728C-0.357058 12.2065 0.0698118 15.2273 1.49992 17.8115C1.59545 17.9838 1.72399 18.1356 1.87819 18.2582C2.03239 18.3808 2.20923 18.4719 2.39861 18.5261C2.588 18.5804 2.78622 18.5969 2.98196 18.5745C3.1777 18.5522 3.36712 18.4915 3.53942 18.396C3.71171 18.3005 3.8635 18.1719 3.98612 18.0177C4.10874 17.8635 4.19978 17.6867 4.25406 17.4973C4.30834 17.3079 4.32478 17.1097 4.30245 16.914C4.28012 16.7182 4.21945 16.5288 4.12392 16.3565C3.04288 14.4062 2.72506 12.1238 3.23217 9.95232C3.73927 7.78087 5.03511 5.87529 6.86814 4.6055C8.70117 3.33572 10.9406 2.79231 13.1518 3.08076C15.3629 3.36922 17.388 4.46895 18.8339 6.1665L17.7069 7.2935C17.5671 7.43335 17.4719 7.61151 17.4333 7.80546C17.3948 7.99942 17.4146 8.20045 17.4902 8.38315C17.5659 8.56585 17.694 8.72201 17.8585 8.8319C18.0229 8.94178 18.2162 9.00045 18.4139 9.0005H22.9999C23.2651 9.0005 23.5195 8.89514 23.707 8.7076C23.8946 8.52007 23.9999 8.26571 23.9999 8.0005V3.4145C23.9999 3.21675 23.9412 3.02345 23.8313 2.85904C23.7214 2.69463 23.5653 2.56649 23.3826 2.49082C23.1999 2.41515 22.9988 2.39535 22.8049 2.43391C22.6109 2.47248 22.4328 2.56769 22.2929 2.7075Z" fill="#708090"/>
</g>
<defs>
<clipPath id="clip0_9_6795">
<rect width="24" height="24" fill="white"/>
</clipPath>
</defs>
</svg>
