<svg width="24" height="24" viewBox="0 0 24 24" fill="none" xmlns="http://www.w3.org/2000/svg">
<g clip-path="url(#clip0_9_7142)">
<path d="M5.70715 0C2.66956 0 0.207123 2.46244 0.207123 5.49998C0.207123 8.53753 2.66956 11 5.70715 11C8.74475 11 11.2071 8.53758 11.2071 5.50003C11.2038 2.4638 8.74334 0.00332812 5.70715 0ZM5.70715 8.00002C4.32645 8.00002 3.20717 6.88073 3.20717 5.50003C3.20717 4.11933 4.3264 3 5.70715 3C7.0879 3 8.20714 4.11928 8.20714 5.49998C8.20714 6.88069 7.08786 8.00002 5.70715 8.00002Z" fill="#708090"/>
<path d="M5.70718 13C2.66964 13 0.207199 15.4624 0.207199 18.5C0.207199 21.5375 2.66959 24 5.70718 24C8.74478 24 11.2072 21.5376 11.2072 18.5C11.2038 15.4638 8.74337 13.0033 5.70718 13ZM5.70718 21C4.32648 21 3.2072 19.8807 3.2072 18.5C3.2072 17.1193 4.32648 16 5.70718 16C7.08789 16 8.20717 17.1193 8.20717 18.5C8.20717 19.8807 7.08789 21 5.70718 21Z" fill="#708090"/>
<path d="M22.7932 18.414H20.7072V5.58601H22.7932C23.3455 5.58587 23.7931 5.13807 23.793 4.58579C23.7929 4.32071 23.6876 4.06646 23.5002 3.87901L19.9142 0.293025C19.5237 -0.0973496 18.8907 -0.0973496 18.5002 0.293025L14.9142 3.87901C14.5237 4.26957 14.5238 4.90276 14.9144 5.29323C15.1019 5.48063 15.3562 5.58596 15.6212 5.58601H17.7072V18.414H15.6212C15.0689 18.4141 14.6213 18.8619 14.6214 19.4142C14.6214 19.6793 14.7268 19.9335 14.9142 20.121L18.5001 23.707C18.8907 24.0974 19.5237 24.0974 19.9141 23.707L23.5001 20.121C23.8906 19.7304 23.8905 19.0973 23.4999 18.7068C23.3125 18.5194 23.0583 18.4141 22.7932 18.414Z" fill="#708090"/>
</g>
<defs>
<clipPath id="clip0_9_7142">
<rect width="24" height="24" fill="white"/>
</clipPath>
</defs>
</svg>
