<svg width="24" height="24" viewBox="0 0 24 24" fill="none" xmlns="http://www.w3.org/2000/svg">
<g clip-path="url(#clip0_9_6920)">
<path d="M12.0001 -1.61071e-05C10.5534 -0.00377109 9.12036 0.280515 7.78463 0.836267C6.4489 1.39202 5.23717 2.20812 4.22009 3.23698C2.15462 5.32276 0.999432 8.14176 1.0073 11.0772C1.01517 14.0126 2.18546 16.8253 4.26209 18.9L8.00009 22.359C9.06213 23.4052 10.4915 23.9942 11.9823 24C13.4731 24.0058 14.9069 23.4279 15.9771 22.39L19.7841 18.854C21.843 16.7769 22.9982 13.9706 22.9982 11.046C22.9982 8.12134 21.843 5.31508 19.7841 3.23798C18.7666 2.20846 17.5543 1.3919 16.2178 0.835954C14.8814 0.280013 13.4476 -0.00417187 12.0001 -1.61071e-05ZM17.7001 16.7L13.9001 20.226C13.3828 20.7203 12.6933 20.9936 11.9778 20.9878C11.2623 20.9821 10.5773 20.6976 10.0681 20.195L6.34609 16.736C4.84519 15.2222 4.00307 13.1767 4.00307 11.045C4.00307 8.91324 4.84519 6.8678 6.34609 5.35398C7.08663 4.60802 7.96747 4.01598 8.93785 3.61196C9.90823 3.20795 10.949 2.99995 12.0001 2.99995C13.0512 2.99995 14.0919 3.20795 15.0623 3.61196C16.0327 4.01598 16.9135 4.60802 17.6541 5.35398C19.1526 6.85893 19.9978 8.89377 20.0064 11.0175C20.015 13.1413 19.1864 15.1829 17.7001 16.7ZM17.0001 10.128V14C17.0001 14.2652 16.8947 14.5196 16.7072 14.7071C16.5197 14.8946 16.2653 15 16.0001 15H15.0001C14.7349 15 14.4805 14.8946 14.293 14.7071C14.1054 14.5196 14.0001 14.2652 14.0001 14V12C14.0001 11.7348 13.8947 11.4804 13.7072 11.2929C13.5197 11.1053 13.2653 11 13.0001 11H11.0001C10.7349 11 10.4805 11.1053 10.293 11.2929C10.1054 11.4804 10.0001 11.7348 10.0001 12V14C10.0001 14.2652 9.89473 14.5196 9.70719 14.7071C9.51966 14.8946 9.2653 15 9.00009 15H8.00009C7.73487 15 7.48052 14.8946 7.29298 14.7071C7.10544 14.5196 7.00009 14.2652 7.00009 14V10.128C7.00013 9.80504 7.07838 9.4869 7.22815 9.20078C7.37791 8.91466 7.59474 8.66906 7.86009 8.48498L10.8601 6.40298C11.1949 6.17073 11.5926 6.04627 12.0001 6.04627C12.4076 6.04627 12.8053 6.17073 13.1401 6.40298L16.1401 8.48498C16.4054 8.66906 16.6223 8.91466 16.772 9.20078C16.9218 9.4869 17 9.80504 17.0001 10.128Z" fill="#708090"/>
</g>
<defs>
<clipPath id="clip0_9_6920">
<rect width="24" height="24" fill="white"/>
</clipPath>
</defs>
</svg>
