<svg width="24" height="24" viewBox="0 0 24 24" fill="none" xmlns="http://www.w3.org/2000/svg">
<g clip-path="url(#clip0_9_6900)">
<path d="M13.4999 3V1.5C13.4999 1.10218 13.3419 0.720644 13.0606 0.43934C12.7792 0.158035 12.3977 0 11.9999 0V0C11.6021 0 11.2205 0.158035 10.9392 0.43934C10.6579 0.720644 10.4999 1.10218 10.4999 1.5V3C8.51142 3.00212 6.60499 3.79297 5.19893 5.19904C3.79286 6.6051 3.00201 8.51153 2.99989 10.5V14.682C2.96834 17.0034 3.81444 19.2511 5.36894 20.9754C6.92343 22.6997 9.07168 23.7735 11.3839 23.982C12.6147 24.0651 13.8496 23.8946 15.0118 23.4809C16.174 23.0672 17.2389 22.4192 18.1405 21.5771C19.042 20.735 19.761 19.7167 20.2529 18.5854C20.7447 17.454 20.999 16.2337 20.9999 15V10.5C20.9978 8.51153 20.2069 6.6051 18.8009 5.19904C17.3948 3.79297 15.4884 3.00212 13.4999 3ZM17.9999 15C17.9999 16.5913 17.3678 18.1174 16.2425 19.2426C15.1173 20.3679 13.5912 21 11.9999 21C10.4086 21 8.88247 20.3679 7.75725 19.2426C6.63203 18.1174 5.99989 16.5913 5.99989 15V10.5C6.00121 9.30693 6.47575 8.16311 7.31937 7.31948C8.163 6.47586 9.30682 6.00132 10.4999 6H13.4999C14.693 6.00132 15.8368 6.47586 16.6804 7.31948C17.524 8.16311 17.9986 9.30693 17.9999 10.5V15Z" fill="#708090"/>
<path d="M12 7.99969C11.6022 7.99969 11.2206 8.15773 10.9393 8.43903C10.658 8.72034 10.5 9.10187 10.5 9.49969V11.4997C10.5 11.8975 10.658 12.279 10.9393 12.5603C11.2206 12.8416 11.6022 12.9997 12 12.9997C12.3978 12.9997 12.7794 12.8416 13.0607 12.5603C13.342 12.279 13.5 11.8975 13.5 11.4997V9.49969C13.5 9.10187 13.342 8.72034 13.0607 8.43903C12.7794 8.15773 12.3978 7.99969 12 7.99969Z" fill="#708090"/>
</g>
<defs>
<clipPath id="clip0_9_6900">
<rect width="24" height="24" fill="white"/>
</clipPath>
</defs>
</svg>
