<svg width="24" height="24" viewBox="0 0 24 24" fill="none" xmlns="http://www.w3.org/2000/svg">
<g clip-path="url(#clip0_9_7013)">
<path d="M19.679 2.62993C19.3927 1.93603 18.9263 1.33118 18.328 0.877927C17.7965 0.472632 17.1779 0.196806 16.5212 0.0723443C15.8646 -0.0521172 15.1879 -0.0217872 14.545 0.160927L12.945 0.608927C12.6104 0.702748 12.2923 0.847798 12.002 1.03893C11.712 0.84799 11.3942 0.70295 11.06 0.608927L9.45399 0.160927C8.81123 -0.0216232 8.13477 -0.0518686 7.47828 0.0725901C6.82179 0.197049 6.20334 0.472787 5.67199 0.877927C5.07366 1.33118 4.60725 1.93603 4.32099 2.62993C3.0974 2.90015 2.0025 3.57943 1.21694 4.55569C0.431387 5.53196 0.0021265 6.74686 -7.62939e-06 7.99993L-7.62939e-06 13.4999C0.00184463 14.9581 0.581902 16.3559 1.61295 17.387C2.644 18.418 4.04187 18.9981 5.49999 18.9999H10.5V20.9999H8.49999C8.10217 20.9999 7.72064 21.158 7.43933 21.4393C7.15803 21.7206 6.99999 22.1021 6.99999 22.4999C6.99999 22.8978 7.15803 23.2793 7.43933 23.5606C7.72064 23.8419 8.10217 23.9999 8.49999 23.9999H15.5C15.8978 23.9999 16.2793 23.8419 16.5607 23.5606C16.842 23.2793 17 22.8978 17 22.4999C17 22.1021 16.842 21.7206 16.5607 21.4393C16.2793 21.158 15.8978 20.9999 15.5 20.9999H13.5V18.9999H18.5C19.9581 18.9981 21.356 18.418 22.387 17.387C23.4181 16.3559 23.9981 14.9581 24 13.4999V7.99993C23.9979 6.74686 23.5686 5.53196 22.783 4.55569C21.9975 3.57943 20.9026 2.90015 19.679 2.62993ZM13.5 3.79993C13.5041 3.7296 13.5307 3.66245 13.5759 3.60842C13.6211 3.55439 13.6825 3.51635 13.751 3.49993L15.351 3.05193C15.4708 3.01832 15.5946 3.00083 15.719 2.99993C16.008 2.99896 16.2893 3.09353 16.519 3.26893C16.6695 3.37968 16.7918 3.52429 16.876 3.69106C16.9603 3.85783 17.0041 4.04208 17.004 4.22893V7.80693C16.9987 8.07689 16.9056 8.33777 16.7386 8.55C16.5717 8.76223 16.3401 8.91422 16.079 8.98293L13.5 9.69993V3.79993ZM7.48499 3.26793C7.71376 3.09372 7.99345 2.99955 8.28099 2.99993C8.40438 3.00066 8.52713 3.01781 8.64599 3.05093L10.246 3.49893C10.3143 3.51553 10.3755 3.55365 10.4205 3.60767C10.4655 3.66168 10.492 3.72873 10.496 3.79893V9.69993L7.92399 8.98293C7.66305 8.91404 7.43168 8.76197 7.26494 8.54975C7.0982 8.33754 7.00519 8.07676 6.99999 7.80693V4.22793C6.99987 4.04108 7.0437 3.85683 7.12795 3.69006C7.21221 3.52329 7.33452 3.37868 7.48499 3.26793ZM21 13.4999C21 14.163 20.7366 14.7989 20.2678 15.2677C19.7989 15.7365 19.163 15.9999 18.5 15.9999H5.49999C4.83695 15.9999 4.20107 15.7365 3.73223 15.2677C3.26338 14.7989 2.99999 14.163 2.99999 13.4999V7.99993C3.001 7.61369 3.09188 7.23299 3.26545 6.88795C3.43901 6.5429 3.69049 6.24299 3.99999 6.01193V7.81193C4.00672 8.73616 4.31456 9.63301 4.87685 10.3666C5.43914 11.1001 6.22524 11.6303 7.11599 11.8769L10.316 12.7769C11.415 13.0836 12.577 13.0836 13.676 12.7769L16.876 11.8769C17.7691 11.6316 18.5575 11.1012 19.1214 10.3665C19.6854 9.63184 19.9939 8.73306 20 7.80693V6.00693C20.3102 6.23849 20.5621 6.53921 20.7357 6.88518C20.9093 7.23115 20.9998 7.61285 21 7.99993V13.4999Z" fill="#708090"/>
</g>
<defs>
<clipPath id="clip0_9_7013">
<rect width="24" height="24" fill="white"/>
</clipPath>
</defs>
</svg>
