<svg width="24" height="24" viewBox="0 0 24 24" fill="none" xmlns="http://www.w3.org/2000/svg">
<g clip-path="url(#clip0_9_6842)">
<path d="M16.4998 8.00093H8.00035V7.22796C8.00077 4.89304 9.89393 3.00058 12.2289 3.001C13.7662 3.00128 15.1823 3.83607 15.9268 5.18106C16.3288 5.90533 17.2419 6.16655 17.9662 5.76453C18.6904 5.3625 18.9517 4.44944 18.5496 3.72517C16.6148 0.233867 12.2159 -1.02779 8.72457 0.907136C6.42671 2.18065 5.00082 4.60079 5.00054 7.22796V8.60787C3.16147 9.54639 2.00298 11.4358 2.00073 13.5006V18.5003C2.00406 21.5362 4.46437 23.9966 7.50036 23.9999H16.4998C19.5358 23.9966 21.9961 21.5362 21.9994 18.5003V13.5006C21.9962 10.4646 19.5358 8.00426 16.4998 8.00093ZM18.9997 18.5003C18.9997 19.8809 17.8804 21.0001 16.4998 21.0001H7.50041C6.11979 21.0001 5.00059 19.8809 5.00059 18.5003V13.5006C5.00059 12.1199 6.11979 11.0007 7.50041 11.0007H16.4998C17.8804 11.0007 18.9997 12.1199 18.9997 13.5006V18.5003Z" fill="#708090"/>
<path d="M11.5001 13.9998H12.5001C13.3284 13.9998 14 14.6713 14 15.4997C14 16.328 13.3284 16.9996 12.5001 16.9996H11.5001C10.6718 16.9996 10.0002 16.328 10.0002 15.4997C10.0002 14.6713 10.6718 13.9998 11.5001 13.9998Z" fill="#708090"/>
</g>
<defs>
<clipPath id="clip0_9_6842">
<rect width="24" height="24" fill="white"/>
</clipPath>
</defs>
</svg>
