<svg width="24" height="24" viewBox="0 0 24 24" fill="none" xmlns="http://www.w3.org/2000/svg">
<g clip-path="url(#clip0_9_6948)">
<path d="M3.50002 5.49994H20.5C21.3285 5.49994 22 6.17152 22 6.99993C22 7.82835 21.3285 8.49993 20.5 8.49993H3.50002C2.6716 8.49993 2.00002 7.82835 2.00002 6.99993C2.00002 6.17152 2.6716 5.49994 3.50002 5.49994Z" fill="#708090"/>
<path d="M3.50002 0.5H20.5C21.3285 0.5 22 1.17158 22 2C22 2.82842 21.3285 3.5 20.5 3.5H3.50002C2.6716 3.5 2.00002 2.82842 2.00002 2C2.00002 1.17158 2.6716 0.5 3.50002 0.5Z" fill="#708090"/>
<path d="M18.5 23.5H5.49998C2.4638 23.4967 0.00332812 21.0362 0 18V14C0 12.067 1.56698 10.5 3.50002 10.5H7.00003C7.82845 10.5 8.50003 11.1716 8.50003 12C8.50003 13.3807 9.61931 14.5 11 14.5H13C14.3807 14.5 15.5 13.3807 15.5 12C15.5 11.1716 16.1716 10.5 17 10.5H20.5C22.433 10.5 24 12.067 24 14V18C23.9967 21.0362 21.5362 23.4967 18.5 23.5ZM3.50002 13.5C3.22388 13.5 3 13.7239 3 14V18C3 19.3807 4.11928 20.5 5.49998 20.5H18.5C19.8807 20.5 21 19.3807 21 18V14C21 13.7239 20.7761 13.5 20.5 13.5H18.292C17.6184 15.865 15.459 17.4972 13 17.5H11C8.54095 17.4972 6.38152 15.865 5.70797 13.5H3.50002Z" fill="#708090"/>
</g>
<defs>
<clipPath id="clip0_9_6948">
<rect width="24" height="24" fill="white"/>
</clipPath>
</defs>
</svg>
