<svg width="24" height="24" viewBox="0 0 24 24" fill="none" xmlns="http://www.w3.org/2000/svg">
<g clip-path="url(#clip0_9_7166)">
<path d="M23.4991 17.6724L15.9229 2.4302C14.847 0.263964 12.2188 -0.619958 10.0525 0.455917C9.19661 0.88098 8.50328 1.57435 8.07817 2.43025L0.502002 17.6724C-0.574529 19.839 0.309158 22.468 2.47567 23.5445C3.08149 23.8456 3.74885 24.0022 4.42535 24.0021H19.5758C21.995 24.0023 23.9564 22.0413 23.9567 19.6221C23.9568 18.9456 23.8001 18.2783 23.4991 17.6724ZM18.5877 14.5206H5.41342L7.39755 10.5284H16.6055L18.5877 14.5206ZM12.0005 2.99312C12.5285 2.98731 13.0124 3.28717 13.2421 3.76262L15.1165 7.53428H8.88461L10.759 3.76262C10.9891 3.28754 11.4727 2.98782 12.0005 2.99312ZM20.7544 20.3512C20.5043 20.7621 20.0568 21.0114 19.5757 21.0079H4.42535C3.65974 21.008 3.03902 20.3873 3.03902 19.6217C3.03902 19.4077 3.08856 19.1965 3.18377 19.0049L3.9243 17.5148H20.0768L20.8173 19.0049C21.0352 19.4334 21.0113 19.9449 20.7544 20.3512Z" fill="#708090"/>
</g>
<defs>
<clipPath id="clip0_9_7166">
<rect width="24" height="24" fill="white"/>
</clipPath>
</defs>
</svg>
