<svg width="24" height="24" viewBox="0 0 24 24" fill="none" xmlns="http://www.w3.org/2000/svg">
<g clip-path="url(#clip0_9_6789)">
<path d="M20.3999 16.6704L20.3849 16.6494L19.2699 15.0894C19.456 14.8995 19.6137 14.6836 19.7379 14.4484C19.9787 13.9702 20.081 13.4341 20.0331 12.9008C19.9852 12.3674 19.7891 11.8581 19.4669 11.4304L17.9409 9.36044C18.2526 9.11378 18.5083 8.80357 18.6909 8.45044C18.9283 7.99574 19.0336 7.48363 18.9949 6.97214C18.9562 6.46065 18.775 5.97022 18.4719 5.55644C18.4319 5.50044 14.1999 0.989438 14.1999 0.989438C13.924 0.684718 13.5878 0.440586 13.2127 0.272492C12.8376 0.104399 12.4317 0.0160039 12.0206 0.012902C11.6096 0.00980005 11.2023 0.0920586 10.8247 0.254472C10.4471 0.416885 10.1073 0.655916 9.82687 0.956438C9.82687 0.956438 5.56787 5.50044 5.52687 5.55644C5.22387 5.97032 5.04284 6.46079 5.00431 6.97229C4.96578 7.48378 5.07129 7.99584 5.30887 8.45044C5.49336 8.80631 5.7518 9.11862 6.06687 9.36644L4.53787 11.4664C4.23162 11.8863 4.04827 12.3832 4.00836 12.9014C3.96844 13.4195 4.07354 13.9386 4.31187 14.4004C4.44402 14.65 4.61253 14.8785 4.81187 15.0784L3.59987 16.6704C3.24794 17.1809 3.04226 17.7778 3.00511 18.3967C2.96795 19.0155 3.10072 19.6328 3.38905 20.1816C3.67738 20.7305 4.1103 21.1901 4.64098 21.5107C5.17165 21.8312 5.77988 22.0006 6.39987 22.0004H10.4999V22.5004C10.4999 22.8983 10.6579 23.2798 10.9392 23.5611C11.2205 23.8424 11.602 24.0004 11.9999 24.0004C12.3977 24.0004 12.7792 23.8424 13.0605 23.5611C13.3418 23.2798 13.4999 22.8983 13.4999 22.5004V22.0004H17.5999C18.2199 22.0006 18.8281 21.8312 19.3588 21.5107C19.8894 21.1901 20.3224 20.7305 20.6107 20.1816C20.899 19.6328 21.0318 19.0155 20.9946 18.3967C20.9575 17.7778 20.7518 17.1809 20.3999 16.6704ZM17.9549 18.7864C17.9228 18.8526 17.8721 18.9081 17.8091 18.9461C17.7461 18.9841 17.6734 19.003 17.5999 19.0004H6.39987C6.3265 19.0028 6.25402 18.9838 6.1912 18.9458C6.12838 18.9079 6.0779 18.8525 6.04587 18.7864C6.01268 18.7329 5.99394 18.6717 5.99149 18.6088C5.98904 18.5459 6.00295 18.4834 6.03187 18.4274L7.87287 16.0004H11.4999C11.8977 16.0004 12.2792 15.8424 12.5605 15.5611C12.8418 15.2798 12.9999 14.8983 12.9999 14.5004C12.9999 14.1026 12.8418 13.7211 12.5605 13.4398C12.2792 13.1585 11.8977 13.0004 11.4999 13.0004H7.13287L9.31587 10.0004H10.4999C10.8977 10.0004 11.2792 9.8424 11.5605 9.5611C11.8418 9.27979 11.9999 8.89826 11.9999 8.50044C11.9999 8.10261 11.8418 7.72108 11.5605 7.43978C11.2792 7.15847 10.8977 7.00044 10.4999 7.00044H8.26587L11.9849 3.01044L15.7309 7.00044H15.4469C15.1696 7.00042 14.8977 7.07727 14.6614 7.22246C14.4252 7.36765 14.2338 7.5755 14.1085 7.8229C13.9833 8.07031 13.929 8.34759 13.9519 8.62396C13.9747 8.90032 14.0737 9.16495 14.2379 9.38844L16.8889 13.0004C16.6233 13.0201 16.3677 13.1101 16.1484 13.2612C15.9291 13.4124 15.754 13.6192 15.6411 13.8604C15.5282 14.1016 15.4815 14.3685 15.5059 14.6337C15.5303 14.8989 15.6248 15.1529 15.7799 15.3694L17.9309 18.3764C17.9731 18.4357 17.9974 18.5058 18.001 18.5785C18.0045 18.6512 17.9871 18.7234 17.9509 18.7864H17.9549Z" fill="#708090"/>
</g>
<defs>
<clipPath id="clip0_9_6789">
<rect width="24" height="24" fill="white"/>
</clipPath>
</defs>
</svg>
