<svg width="24" height="24" viewBox="0 0 24 24" fill="none" xmlns="http://www.w3.org/2000/svg">
<g clip-path="url(#clip0_9_6845)">
<path d="M22.4999 5H21.1209L22.5609 3.561C22.8423 3.27961 23.0004 2.89795 23.0004 2.5C23.0004 2.10205 22.8423 1.72039 22.5609 1.439C22.2795 1.15761 21.8979 0.999519 21.4999 0.999519C21.1019 0.999519 20.7203 1.15761 20.4389 1.439L18.9999 2.879V1.5C18.9999 1.10218 18.8419 0.720644 18.5606 0.43934C18.2793 0.158035 17.8977 0 17.4999 0C17.1021 0 16.7205 0.158035 16.4392 0.43934C16.1579 0.720644 15.9999 1.10218 15.9999 1.5V4.537C15.4506 4.05713 14.8345 3.65964 14.1709 3.357C13.3586 2.99691 12.4513 2.91045 11.5856 3.11064C10.7199 3.31084 9.94266 3.78684 9.37091 4.467C7.65491 6.185 2.98192 14.749 0.349923 19.7C0.0553297 20.2523 -0.0539905 20.8846 0.0380832 21.5038C0.130157 22.1229 0.418751 22.6961 0.861306 23.1387C1.30386 23.5814 1.87695 23.8702 2.49607 23.9624C3.11519 24.0546 3.74755 23.9455 4.29992 23.651C9.25291 21.018 17.8169 16.343 19.5339 14.627C21.9999 12.165 20.9699 9.855 19.4519 8H22.4999C22.8977 8 23.2793 7.84196 23.5606 7.56066C23.8419 7.27936 23.9999 6.89782 23.9999 6.5C23.9999 6.10218 23.8419 5.72064 23.5606 5.43934C23.2793 5.15804 22.8977 5 22.4999 5ZM17.4119 12.505C16.5247 13.2356 15.5762 13.8883 14.5769 14.456L13.5609 13.439C13.2795 13.1576 12.8979 12.9995 12.4999 12.9995C12.102 12.9995 11.7203 13.1576 11.4389 13.439C11.1575 13.7204 10.9994 14.102 10.9994 14.5C10.9994 14.697 11.0382 14.8922 11.1136 15.0742C11.1891 15.2563 11.2996 15.4217 11.4389 15.561L11.9189 16.04C9.52891 17.429 6.50492 19.114 3.07292 20.968C4.03592 19.16 4.95092 17.468 5.80492 15.926L6.43892 16.561C6.72031 16.8424 7.10196 17.0005 7.49991 17.0005C7.89787 17.0005 8.27952 16.8424 8.56091 16.561C8.84231 16.2796 9.00039 15.898 9.00039 15.5C9.00039 15.102 8.84231 14.7204 8.56091 14.439L7.32691 13.206C8.12691 11.806 8.83991 10.58 9.45391 9.575L10.4389 10.561C10.7203 10.8424 11.102 11.0005 11.4999 11.0005C11.8979 11.0005 12.2795 10.8424 12.5609 10.561C12.8423 10.2796 13.0004 9.89795 13.0004 9.5C13.0004 9.10205 12.8423 8.7204 12.5609 8.439L11.1369 7.016C11.2474 6.86641 11.3666 6.72349 11.4939 6.588C12.1459 5.979 12.4269 5.88 12.9939 6.114C13.9953 6.71161 14.8983 7.46046 15.6709 8.334C18.4809 11.149 18.3129 11.6 17.4119 12.505Z" fill="#708090"/>
</g>
<defs>
<clipPath id="clip0_9_6845">
<rect width="24" height="24" fill="white"/>
</clipPath>
</defs>
</svg>
