<svg width="24" height="24" viewBox="0 0 24 24" fill="none" xmlns="http://www.w3.org/2000/svg">
<path d="M22.483 11.384C22.177 5.755 16.978 1 11.131 1H11.008C10.7824 0.691013 10.4872 0.439476 10.1464 0.265748C9.80553 0.0920205 9.42856 0.000981758 9.04599 0L7.36299 0C6.20609 0.00132381 5.09696 0.461558 4.27899 1.27971C3.46103 2.09786 3.00105 3.20709 2.99999 4.364V19.636C3.00105 20.7929 3.46103 21.9021 4.27899 22.7203C5.09696 23.5384 6.20609 23.9987 7.36299 24H9.04599C9.42856 23.999 9.80553 23.908 10.1464 23.7343C10.4872 23.5605 10.7824 23.309 11.008 23H11.454C12.9589 22.9993 14.4479 22.693 15.831 22.0998C17.214 21.5066 18.4622 20.6388 19.5 19.549C20.5307 18.4655 21.3275 17.1814 21.8407 15.7767C22.3539 14.3721 22.5725 12.8768 22.483 11.384ZM17.317 17.484C16.5646 18.2831 15.6558 18.9189 14.6472 19.3518C13.6385 19.7846 12.5516 20.0053 11.454 20H9.99999C9.68967 19.9998 9.38693 20.0959 9.1335 20.275C8.88007 20.4541 8.68843 20.7074 8.58499 21H7.36299C7.00149 20.9995 6.65496 20.8556 6.39944 20.5998C6.14391 20.3441 6.00026 19.9975 5.99999 19.636V19H6.49999C6.89782 19 7.27935 18.842 7.56065 18.5607C7.84196 18.2794 7.99999 17.8978 7.99999 17.5C7.99999 17.1022 7.84196 16.7206 7.56065 16.4393C7.27935 16.158 6.89782 16 6.49999 16H5.99999V13.5H6.49999C6.89782 13.5 7.27935 13.342 7.56065 13.0607C7.84196 12.7794 7.99999 12.3978 7.99999 12C7.99999 11.6022 7.84196 11.2206 7.56065 10.9393C7.27935 10.658 6.89782 10.5 6.49999 10.5H5.99999V8H6.49999C6.89782 8 7.27935 7.84196 7.56065 7.56066C7.84196 7.27936 7.99999 6.89782 7.99999 6.5C7.99999 6.10218 7.84196 5.72064 7.56065 5.43934C7.27935 5.15804 6.89782 5 6.49999 5H5.99999V4.364C6.00026 4.0025 6.14391 3.65587 6.39944 3.40015C6.65496 3.14444 7.00149 3.00053 7.36299 3H8.58499C8.68843 3.29258 8.88007 3.54587 9.1335 3.72497C9.38693 3.90407 9.68967 4.00016 9.99999 4H11.131C15.363 4 19.269 7.527 19.487 11.547C19.5525 12.6329 19.3936 13.7206 19.0203 14.7424C18.647 15.7642 18.0671 16.6981 17.317 17.486V17.484Z" fill="#708090"/>
<path d="M12 8.00061C11.7348 8.00061 11.4805 8.10597 11.2929 8.2935C11.1054 8.48104 11 8.73539 11 9.00061V15.0156C11.0017 15.2705 11.1007 15.5151 11.2767 15.6995C11.4527 15.8839 11.6925 15.9941 11.947 16.0076C12.9424 15.9975 13.9003 15.6262 14.6423 14.9627C15.3844 14.2992 15.8601 13.3887 15.981 12.4006C16.036 11.8445 15.974 11.283 15.799 10.7523C15.624 10.2216 15.34 9.7333 14.965 9.31891C14.5901 8.90452 14.1326 8.57316 13.622 8.34612C13.1114 8.11908 12.5589 8.00139 12 8.00061Z" fill="#708090"/>
</svg>
