<svg width="24" height="24" viewBox="0 0 24 24" fill="none" xmlns="http://www.w3.org/2000/svg">
<path d="M12 4.5C10.5167 4.5 9.06663 4.93987 7.83327 5.76398C6.5999 6.58809 5.6386 7.75943 5.07095 9.12987C4.50329 10.5003 4.35476 12.0083 4.64415 13.4632C4.93354 14.918 5.64785 16.2544 6.69674 17.3033C7.74563 18.3522 9.08201 19.0665 10.5369 19.3559C11.9917 19.6453 13.4997 19.4968 14.8702 18.9291C16.2406 18.3614 17.412 17.4001 18.2361 16.1668C19.0602 14.9334 19.5 13.4834 19.5 12C19.4979 10.0115 18.7071 8.1051 17.301 6.69904C15.8949 5.29297 13.9885 4.50212 12 4.5ZM12 16.5C11.11 16.5 10.24 16.2361 9.49998 15.7416C8.75995 15.2471 8.18318 14.5443 7.84258 13.7221C7.50199 12.8998 7.41287 11.995 7.58651 11.1221C7.76014 10.2492 8.18872 9.44736 8.81806 8.81802C9.4474 8.18868 10.2492 7.7601 11.1221 7.58647C11.995 7.41283 12.8998 7.50195 13.7221 7.84254C14.5444 8.18314 15.2472 8.75991 15.7417 9.49993C16.2361 10.24 16.5 11.11 16.5 12C16.4987 13.1931 16.0242 14.3369 15.1806 15.1805C14.3369 16.0241 13.1931 16.4987 12 16.5Z" fill="#708090"/>
</svg>
