<svg width="24" height="24" viewBox="0 0 24 24" fill="none" xmlns="http://www.w3.org/2000/svg">
<g clip-path="url(#clip0_9_7265)">
<path d="M1.44287 21.8238C1.84289 22.5275 2.43263 23.1046 3.14483 23.4894C3.85703 23.8741 4.66301 24.051 5.47087 23.9998H18.5289C19.3367 24.051 20.1427 23.8741 20.8549 23.4894C21.5671 23.1046 22.1568 22.5275 22.5569 21.8238C22.9067 21.0841 23.0475 20.2628 22.9641 19.4488C22.8808 18.6349 22.5764 17.8592 22.0839 17.2058L13.8439 5.34277C14.3324 4.95922 14.6891 4.43291 14.8644 3.8371C15.0397 3.24129 15.0249 2.60564 14.822 2.01865C14.6191 1.43166 14.2382 0.922545 13.7324 0.562191C13.2266 0.201837 12.6209 0.00817871 11.9999 0.00817871C11.3788 0.00817871 10.7732 0.201837 10.2673 0.562191C9.76151 0.922545 9.38062 1.43166 9.17772 2.01865C8.97481 2.60564 8.95999 3.24129 9.13531 3.8371C9.31064 4.43291 9.66738 4.95922 10.1559 5.34277L1.91687 17.2058C1.424 17.859 1.11929 18.6346 1.03574 19.4487C0.952183 20.2627 1.09298 21.084 1.44287 21.8238ZM16.9539 15.0788L12.8419 20.9998H9.44187L15.2559 12.6308L16.9539 15.0788ZM19.8999 20.4338C19.6429 20.9258 18.9319 20.9998 18.5309 20.9998H16.4999L18.7859 17.7088L19.6249 18.9168C19.8004 19.1229 19.9183 19.3718 19.9666 19.6382C20.0149 19.9047 19.9919 20.1791 19.8999 20.4338ZM4.38087 18.9168L11.9999 7.94777L13.4259 9.99977L5.78487 20.9998H5.47087C5.07087 20.9998 4.35887 20.9258 4.10187 20.4338C4.01016 20.1788 3.98767 19.9041 4.03668 19.6376C4.08569 19.3711 4.20445 19.1224 4.38087 18.9168Z" fill="#708090"/>
</g>
<defs>
<clipPath id="clip0_9_7265">
<rect width="24" height="24" fill="white"/>
</clipPath>
</defs>
</svg>
