<svg width="24" height="24" viewBox="0 0 24 24" fill="none" xmlns="http://www.w3.org/2000/svg">
<g clip-path="url(#clip0_9_6927)">
<path d="M4.49991 7.00019C4.04009 7.00148 3.58457 6.91156 3.15974 6.73561C2.7349 6.55967 2.34918 6.30121 2.02491 5.97519L0.499912 4.62019C0.202869 4.35497 0.0233498 3.98262 0.000845396 3.58504C-0.0102976 3.38818 0.0174429 3.19106 0.0824833 3.00492C0.147524 2.81878 0.24859 2.64727 0.379912 2.50019C0.511234 2.35311 0.670239 2.23334 0.84785 2.14771C1.02546 2.06208 1.2182 2.01227 1.41506 2.00112C1.81264 1.97862 2.20287 2.11497 2.49991 2.38019L4.08391 3.79419C4.13549 3.85514 4.19901 3.90487 4.27057 3.9403C4.34212 3.97573 4.42017 3.99611 4.49991 4.00019C4.63226 4.00016 4.75921 3.94766 4.85291 3.85419L8.46591 0.41419C8.75601 0.151687 9.13719 0.0129134 9.52815 0.0274675C9.91912 0.0420216 10.2889 0.208751 10.5587 0.492096C10.8285 0.775442 10.9769 1.15298 10.9722 1.54419C10.9676 1.93539 10.8103 2.30931 10.5339 2.58619L6.94791 6.00019C6.62571 6.31972 6.24363 6.57252 5.82356 6.74412C5.40348 6.91572 4.95368 7.00274 4.49991 7.00019ZM23.9999 3.50019C23.9999 3.10237 23.8419 2.72083 23.5606 2.43953C23.2793 2.15823 22.8977 2.00019 22.4999 2.00019H14.4999C14.1021 2.00019 13.7206 2.15823 13.4393 2.43953C13.1579 2.72083 12.9999 3.10237 12.9999 3.50019C12.9999 3.89801 13.1579 4.27955 13.4393 4.56085C13.7206 4.84215 14.1021 5.00019 14.4999 5.00019H22.4999C22.8977 5.00019 23.2793 4.84215 23.5606 4.56085C23.8419 4.27955 23.9999 3.89801 23.9999 3.50019ZM6.94791 14.0002L10.5339 10.5862C10.8103 10.3093 10.9676 9.93539 10.9722 9.54419C10.9769 9.15298 10.8285 8.77544 10.5587 8.4921C10.2889 8.20875 9.91912 8.04202 9.52815 8.02747C9.13719 8.01291 8.75601 8.15169 8.46591 8.41419L4.85291 11.8542C4.75915 11.9479 4.63199 12.0006 4.49941 12.0006C4.36683 12.0006 4.23968 11.9479 4.14591 11.8542L2.56091 10.2682C2.27952 9.98679 1.89786 9.82871 1.49991 9.82871C1.10196 9.82871 0.720307 9.98679 0.438912 10.2682C0.157517 10.5496 -0.000568817 10.9312 -0.000568817 11.3292C-0.000568817 11.7271 0.157517 12.1088 0.438912 12.3902L2.02491 13.9752C2.67687 14.6268 3.55955 14.9949 4.48127 14.9995C5.403 15.0042 6.28937 14.6451 6.94791 14.0002ZM23.9999 11.5002C23.9999 11.1024 23.8419 10.7208 23.5606 10.4395C23.2793 10.1582 22.8977 10.0002 22.4999 10.0002H14.4999C14.1021 10.0002 13.7206 10.1582 13.4393 10.4395C13.1579 10.7208 12.9999 11.1024 12.9999 11.5002C12.9999 11.898 13.1579 12.2795 13.4393 12.5609C13.7206 12.8422 14.1021 13.0002 14.4999 13.0002H22.4999C22.8977 13.0002 23.2793 12.8422 23.5606 12.5609C23.8419 12.2795 23.9999 11.898 23.9999 11.5002ZM6.94791 22.0002L10.5339 18.5862C10.8103 18.3093 10.9676 17.9354 10.9722 17.5442C10.9769 17.153 10.8285 16.7754 10.5587 16.4921C10.2889 16.2088 9.91912 16.042 9.52815 16.0275C9.13719 16.0129 8.75601 16.1517 8.46591 16.4142L4.85291 19.8542C4.75921 19.9477 4.63226 20.0002 4.49991 20.0002C4.42017 19.9961 4.34212 19.9757 4.27057 19.9403C4.19901 19.9049 4.13549 19.8551 4.08391 19.7942L2.49991 18.3802C2.20287 18.115 1.81264 17.9786 1.41506 18.0011C1.01748 18.0236 0.645128 18.2031 0.379912 18.5002C0.114695 18.7972 -0.021659 19.1875 0.000845396 19.585C0.0233498 19.9826 0.202869 20.355 0.499912 20.6202L2.02291 21.9752C2.67496 22.6274 3.55806 22.9958 4.48027 23.0005C5.40248 23.0052 6.28928 22.6457 6.94791 22.0002ZM23.9999 19.5002C23.9999 19.1024 23.8419 18.7208 23.5606 18.4395C23.2793 18.1582 22.8977 18.0002 22.4999 18.0002H14.4999C14.1021 18.0002 13.7206 18.1582 13.4393 18.4395C13.1579 18.7208 12.9999 19.1024 12.9999 19.5002C12.9999 19.898 13.1579 20.2795 13.4393 20.5609C13.7206 20.8422 14.1021 21.0002 14.4999 21.0002H22.4999C22.8977 21.0002 23.2793 20.8422 23.5606 20.5609C23.8419 20.2795 23.9999 19.898 23.9999 19.5002Z" fill="#708090"/>
</g>
<defs>
<clipPath id="clip0_9_6927">
<rect width="24" height="24" fill="white"/>
</clipPath>
</defs>
</svg>
