<svg width="24" height="24" viewBox="0 0 24 24" fill="none" xmlns="http://www.w3.org/2000/svg">
<g clip-path="url(#clip0_9_7241)">
<path d="M21.0001 21.9492C21.0001 19.4639 18.9854 17.4492 16.5001 17.4492H10.8321V19.1292C10.8298 20.3519 9.83665 21.3413 8.61391 21.339C8.00201 21.3378 7.41785 21.0834 7.00015 20.6362L0.778102 13.9412C-0.25896 12.8153 -0.25896 11.0821 0.778102 9.95625L7.0001 3.26123C7.83176 2.36489 9.23262 2.31243 10.129 3.14409C10.5808 3.56329 10.8374 4.15186 10.8371 4.76822V6.4492H14.5001C19.7443 6.45529 23.9941 10.705 24.0001 15.9492V21.9492C24.0001 22.7776 23.3285 23.4492 22.5001 23.4492C21.6717 23.4492 21.0001 22.7776 21.0001 21.9492ZM21.0001 15.9492C20.9957 12.3612 18.0882 9.45361 14.5001 9.4492H9.33213C8.50371 9.4492 7.83213 8.77762 7.83213 7.9492V6.7492L2.9771 11.9002L7.83209 17.1283V15.9493C7.83209 15.1208 8.50366 14.4493 9.33209 14.4493H16.5001C18.1237 14.4472 19.7036 14.9749 21.0001 15.9523V15.9492Z" fill="#708090"/>
</g>
<defs>
<clipPath id="clip0_9_7241">
<rect width="24" height="24" fill="white"/>
</clipPath>
</defs>
</svg>
