<svg width="24" height="24" viewBox="0 0 24 24" fill="none" xmlns="http://www.w3.org/2000/svg">
<g clip-path="url(#clip0_9_7090)">
<path d="M2.53997 20.5002C2.32893 20.5002 2.12027 20.4556 1.92762 20.3695C1.73497 20.2833 1.56266 20.1575 1.42197 20.0002C0.834944 19.3491 0.413084 18.5665 0.191971 17.7182C-0.109698 16.5386 -0.0303061 15.2938 0.418775 14.1622C0.867856 13.0305 1.66358 12.0699 2.69197 11.4182C2.02374 9.90338 1.83496 8.22039 2.15097 6.59518C2.45475 4.94389 3.26707 3.42884 4.4743 2.26195C5.68154 1.09506 7.22331 0.334684 8.88397 0.0871818C10.8605 -0.207566 12.8765 0.231037 14.5519 1.32028C16.2273 2.40952 17.4463 4.07413 17.979 6.00018C20.0367 6.56673 21.795 7.90822 22.885 9.74318C23.0683 10.0849 23.1121 10.4844 23.0073 10.8577C22.9024 11.231 22.6571 11.5493 22.3227 11.7456C21.9883 11.942 21.5908 12.0012 21.2137 11.9109C20.8366 11.8206 20.5091 11.5877 20.3 11.2612C19.8984 10.5847 19.3491 10.0078 18.6931 9.57348C18.0372 9.13919 17.2915 8.85877 16.512 8.75318C16.1855 8.70977 15.8824 8.56012 15.6495 8.32735C15.4165 8.09457 15.2666 7.7916 15.223 7.46518C15.1335 6.79099 14.9105 6.1414 14.5671 5.55436C14.2237 4.96732 13.7668 4.4546 13.223 4.04618C12.67 3.62951 12.0394 3.32733 11.3682 3.15734C10.697 2.98735 9.99863 2.95296 9.31397 3.05618C8.27258 3.21446 7.30664 3.69411 6.55113 4.42811C5.79561 5.16211 5.28826 6.11379 5.09997 7.15018C4.87947 8.27015 5.03962 9.43168 5.55497 10.4502C5.86438 11.03 5.93128 11.7089 5.74102 12.3379C5.55076 12.967 5.11886 13.495 4.53997 13.8062C3.97514 14.0884 3.52411 14.5557 3.26207 15.1302C3.00003 15.7047 2.94282 16.3516 3.09997 16.9632C3.19909 17.3488 3.39022 17.7046 3.65697 18.0002C3.84996 18.2159 3.97639 18.4829 4.02101 18.769C4.06563 19.055 4.02654 19.3478 3.90846 19.6121C3.79037 19.8764 3.59833 20.1009 3.35551 20.2584C3.11268 20.416 2.82945 20.5 2.53997 20.5002ZM18.85 24.0002C19.2226 23.9932 19.5935 23.9483 19.957 23.8662C21.0904 23.6173 22.1065 22.9929 22.8407 22.0943C23.5748 21.1957 23.984 20.0754 24.0018 18.9151C24.0196 17.7549 23.6451 16.6226 22.9389 15.7018C22.2327 14.781 21.2362 14.1258 20.111 13.8422C19.9957 13.8199 19.8828 13.7864 19.774 13.7422C19.2291 12.4843 18.2838 11.4418 17.0851 10.7768C15.8864 10.1118 14.5016 9.86163 13.146 10.0652C11.7321 10.2906 10.4423 11.0054 9.50177 12.0848C8.56123 13.1643 8.0297 14.5398 7.99997 15.9712C7.99384 16.2889 8.01323 16.6066 8.05797 16.9212C7.37712 17.2625 6.81714 17.8041 6.45338 18.4733C6.08961 19.1424 5.93951 19.9069 6.02327 20.6639C6.10703 21.4209 6.42063 22.134 6.92188 22.7074C7.42313 23.2808 8.08797 23.687 8.82697 23.8712C9.13662 23.9505 9.45439 23.9938 9.77397 24.0002H18.85ZM17.012 14.9142C17.2136 15.392 17.5339 15.8104 17.9426 16.1298C18.3512 16.4492 18.8346 16.6589 19.347 16.7392C19.8254 16.8486 20.252 17.1185 20.5557 17.504C20.8595 17.8895 21.0222 18.3674 21.0167 18.8581C21.0112 19.3489 20.8379 19.823 20.5256 20.2016C20.2132 20.5802 19.7807 20.8405 19.3 20.9392C19.1427 20.9754 18.9823 20.9962 18.821 21.0012H9.81397C9.64566 20.984 9.48471 20.9233 9.34691 20.8251C9.20912 20.727 9.09921 20.5946 9.02797 20.4412C8.90497 19.9832 9.32797 19.6162 9.62797 19.4912C10.1564 19.2697 10.5904 18.8699 10.8542 18.3613C11.1181 17.8528 11.1952 17.2677 11.072 16.7082C11.0227 16.485 11.0002 16.2567 11.005 16.0282C11.0218 15.3098 11.2866 14.6194 11.7545 14.0741C12.2224 13.5287 12.8645 13.162 13.572 13.0362C13.7293 13.013 13.888 13.0009 14.047 13.0002C14.6744 12.9934 15.29 13.1712 15.8172 13.5115C16.3444 13.8518 16.7598 14.3396 17.012 14.9142Z" fill="#708090"/>
</g>
<defs>
<clipPath id="clip0_9_7090">
<rect width="24" height="24" fill="white"/>
</clipPath>
</defs>
</svg>
