<svg width="24" height="24" viewBox="0 0 24 24" fill="none" xmlns="http://www.w3.org/2000/svg">
<g clip-path="url(#clip0_9_6916)">
<path d="M20.469 1.14641L20.438 1.13541L17.847 0.272408C16.8445 -0.0609425 15.7656 -0.0891337 14.747 0.191408L9.43999 1.73441C8.91368 1.87763 8.35369 1.83017 7.85899 1.60041L7.35899 1.37041C6.55121 1.03468 5.67308 0.903399 4.80243 0.988205C3.93178 1.07301 3.09549 1.37128 2.36768 1.85659C1.63987 2.34189 1.04302 2.99924 0.630012 3.77038C0.217008 4.54152 0.000608751 5.40264 -7.62939e-06 6.27741L-7.62939e-06 17.8004C0.00230566 18.9489 0.375646 20.0658 1.06438 20.9849C1.75311 21.9039 2.72036 22.5758 3.82199 22.9004L6.56199 23.7574C7.0754 23.9178 7.6101 23.9998 8.14799 24.0004C8.62578 23.9908 9.10089 23.9264 9.56399 23.8084L15.1 22.2804C15.5093 22.1685 15.9416 22.1719 16.349 22.2904L18.608 22.9414C19.2499 23.0972 19.9189 23.1052 20.5644 22.9648C21.2099 22.8244 21.8151 22.5392 22.3343 22.1308C22.8535 21.7224 23.2732 21.2015 23.5618 20.6072C23.8503 20.013 24.0002 19.361 24 18.7004V6.15441C23.9984 5.05774 23.6584 3.98829 23.0265 3.09201C22.3945 2.19573 21.5014 1.51628 20.469 1.14641ZM14 3.53441V19.4704L9.99999 20.5754V4.66841L14 3.53441ZM4.68199 20.0274C4.19847 19.8881 3.77316 19.5957 3.46989 19.1942C3.16662 18.7927 3.00174 18.3036 2.99999 17.8004V6.27741C2.99696 5.89522 3.08984 5.51838 3.27013 5.18138C3.45043 4.84437 3.71237 4.55798 4.03199 4.34841C4.41608 4.08913 4.86858 3.9499 5.33199 3.94841C5.61431 3.94772 5.89399 4.00277 6.15499 4.11041L6.99999 4.46441V20.7524L4.68199 20.0274ZM21 18.7004C20.9998 18.9017 20.9551 19.1004 20.8692 19.2824C20.7833 19.4644 20.6583 19.6252 20.5031 19.7533C20.3478 19.8814 20.1662 19.9737 19.9712 20.0235C19.7762 20.0733 19.5726 20.0794 19.375 20.0414L17 19.3704V3.15341L19.475 3.97641C19.9215 4.13974 20.3072 4.43617 20.5799 4.82565C20.8526 5.21514 20.9992 5.67894 21 6.15441V18.7004Z" fill="#708090"/>
</g>
<defs>
<clipPath id="clip0_9_6916">
<rect width="24" height="24" fill="white"/>
</clipPath>
</defs>
</svg>
