<svg width="24" height="24" viewBox="0 0 24 24" fill="none" xmlns="http://www.w3.org/2000/svg">
<g clip-path="url(#clip0_9_6828)">
<path d="M22.167 13.4793L19.7184 14.0628C19.4104 14.1412 19.1157 14.2651 18.8441 14.4303L16.8527 13.2075C17.0677 12.4173 17.0677 11.584 16.8527 10.7938L18.8441 9.57102C19.1157 9.73621 19.4104 9.86005 19.7184 9.93847C19.7184 9.93847 22.399 10.5628 22.5145 10.5628C23.3393 10.5549 24.0016 9.87983 23.9937 9.05493C23.9872 8.3736 23.5204 7.78302 22.859 7.61933L20.4064 7.03283C20.3508 7.01929 20.3031 6.98319 20.275 6.93327C20.2449 6.88522 20.2355 6.82701 20.2491 6.77197L20.8326 4.32243C21.0713 3.53282 20.6247 2.69919 19.8351 2.46051C19.0455 2.22182 18.2119 2.6684 17.9732 3.45801C17.9555 3.51655 17.9414 3.57608 17.931 3.63637L17.3475 6.08591C17.2791 6.3929 17.2566 6.70832 17.2808 7.02191L15.2893 8.24966C14.7774 7.8088 14.1806 7.47735 13.5358 7.27583V4.93082C13.8184 4.78762 14.0776 4.60227 14.3045 4.38116L16.0859 2.60076C16.6691 2.01726 16.6689 1.07146 16.0854 0.488287C15.5019 -0.0949316 14.5561 -0.0946972 13.9729 0.488803L12.1925 2.27015C12.1101 2.35265 11.9765 2.35274 11.894 2.27033C11.8939 2.27029 11.8939 2.27019 11.8938 2.27015L10.1114 0.488756C9.52793 -0.0947441 8.58195 -0.0947441 7.99845 0.488756C7.41495 1.07226 7.41495 2.01824 7.99845 2.60174L9.77984 4.38215C10.0068 4.60288 10.266 4.7879 10.5485 4.93082V7.27583C9.90513 7.47918 9.3101 7.81194 8.80001 8.25365L6.80351 7.02191C6.82845 6.70602 6.80595 6.38816 6.7368 6.07893L6.15331 3.63637C5.9749 2.83101 5.17737 2.32274 4.37201 2.50115C3.56665 2.67955 3.05838 3.47708 3.23679 4.28244C3.24021 4.29782 3.24387 4.31315 3.24776 4.32838L3.83126 6.77793C3.84485 6.83301 3.83552 6.89122 3.80538 6.93922C3.77726 6.98919 3.72963 7.02524 3.67395 7.03879L1.22538 7.61929C0.422977 7.81087 -0.0722101 8.6166 0.119368 9.41896C0.279681 10.0905 0.879446 10.5647 1.56987 10.5658C1.68537 10.5658 4.36591 9.94143 4.36591 9.94143C4.67393 9.86301 4.96859 9.73916 5.24018 9.57397L7.23166 10.7968C7.0166 11.5869 7.0166 12.4203 7.23166 13.2104L5.24018 14.4332C4.96859 14.268 4.67393 14.1442 4.36591 14.0658L1.91735 13.4823C1.12896 13.2396 0.293087 13.682 0.050368 14.4703C-0.192351 15.2587 0.250056 16.0946 1.03845 16.3373C1.09971 16.3562 1.16215 16.3711 1.22529 16.3819L3.67385 16.9654C3.72954 16.979 3.77716 17.0151 3.80529 17.065C3.83543 17.113 3.84476 17.1712 3.83116 17.2263L3.24771 19.6759C3.05524 20.4782 3.54963 21.2847 4.35199 21.4772C5.15435 21.6696 5.96084 21.1753 6.15331 20.3729L6.7368 17.9233C6.80604 17.6138 6.82854 17.2956 6.80351 16.9794L8.80001 15.7516C9.3101 16.1933 9.90513 16.5261 10.5485 16.7294V19.0705C10.2661 19.2144 10.007 19.4001 9.77984 19.6211L7.99845 21.3995C7.41495 21.983 7.41495 22.929 7.99845 23.5125C8.58195 24.096 9.52793 24.096 10.1114 23.5125L11.8918 21.7311C11.9742 21.6486 12.1079 21.6485 12.1904 21.7309C12.1904 21.731 12.1905 21.7311 12.1906 21.7311L13.971 23.5125C14.5545 24.096 15.5005 24.096 16.084 23.5125C16.6675 22.929 16.6675 21.983 16.084 21.3995L14.3026 19.6191C14.0759 19.3989 13.8174 19.214 13.5358 19.0704V16.7254C14.1792 16.5221 14.7743 16.1893 15.2844 15.7476L17.2759 16.9753C17.2509 17.2912 17.2734 17.6091 17.3426 17.9183L17.9261 20.3679C18.1185 21.1702 18.925 21.6646 19.7274 21.4722C20.5297 21.2797 21.0241 20.4732 20.8316 19.6708L20.2481 17.2213C20.2346 17.1662 20.2439 17.108 20.274 17.06C20.3022 17.01 20.3498 16.974 20.4055 16.9604L22.854 16.3769C23.6564 16.1845 24.1508 15.378 23.9583 14.5756C23.7658 13.7733 22.9594 13.2789 22.157 13.4713L22.167 13.4793ZM12.0422 13.9921C10.9423 13.9921 10.0507 13.1005 10.0507 12.0006C10.0507 10.9008 10.9423 10.0092 12.0422 10.0092C13.142 10.0092 14.0336 10.9008 14.0336 12.0006C14.0336 13.1005 13.142 13.9921 12.0422 13.9921Z" fill="#708090"/>
</g>
<defs>
<clipPath id="clip0_9_6828">
<rect width="24" height="24" fill="white"/>
</clipPath>
</defs>
</svg>
