<svg width="24" height="24" viewBox="0 0 24 24" fill="none" xmlns="http://www.w3.org/2000/svg">
<g clip-path="url(#clip0_9_6861)">
<path d="M1.15601 3.16656L1.65601 4.16656C1.84281 4.50512 2.15315 4.75846 2.52225 4.87371C2.89135 4.98897 3.2907 4.95723 3.63696 4.78513C3.98323 4.61303 4.24965 4.31386 4.38065 3.95005C4.51164 3.58624 4.49708 3.1859 4.34001 2.83256L3.84001 1.83256C3.75779 1.64761 3.63898 1.48121 3.49076 1.34339C3.34253 1.20556 3.16794 1.09916 2.9775 1.03059C2.78707 0.962023 2.58472 0.932704 2.38266 0.944402C2.18059 0.956099 1.98298 1.00857 1.80173 1.09866C1.62048 1.18874 1.45933 1.31458 1.328 1.46859C1.19666 1.6226 1.09786 1.80159 1.03753 1.9948C0.977197 2.188 0.956593 2.39142 0.976955 2.59279C0.997316 2.79417 1.05822 2.98934 1.15601 3.16656Z" fill="#708090"/>
<path d="M11.161 1.8245L10.661 2.8245C10.5664 3.00092 10.5081 3.19449 10.4894 3.39381C10.4708 3.59313 10.4922 3.79417 10.5525 3.98508C10.6127 4.17598 10.7106 4.3529 10.8403 4.50539C10.97 4.65788 11.1289 4.78287 11.3077 4.87299C11.4864 4.9631 11.6814 5.01652 11.8811 5.0301C12.0809 5.04368 12.2813 5.01714 12.4706 4.95204C12.6599 4.88695 12.8343 4.78462 12.9834 4.65108C13.1326 4.51754 13.2535 4.3555 13.339 4.1745L13.839 3.1745C13.9337 2.99809 13.992 2.80452 14.0107 2.6052C14.0293 2.40588 14.0079 2.20484 13.9476 2.01393C13.8874 1.82302 13.7895 1.64611 13.6598 1.49362C13.5301 1.34112 13.3712 1.21614 13.1924 1.12602C13.0137 1.03591 12.8187 0.982485 12.6189 0.968908C12.4192 0.955331 12.2188 0.981872 12.0295 1.04697C11.8401 1.11206 11.6658 1.21439 11.5166 1.34793C11.3675 1.48147 11.2466 1.64351 11.161 1.8245Z" fill="#708090"/>
<path d="M6 1.5V2.5C6 2.89782 6.15804 3.27936 6.43934 3.56066C6.72064 3.84196 7.10218 4 7.5 4C7.89782 4 8.27936 3.84196 8.56066 3.56066C8.84196 3.27936 9 2.89782 9 2.5V1.5C9 1.10218 8.84196 0.720644 8.56066 0.43934C8.27936 0.158035 7.89782 0 7.5 0C7.10218 0 6.72064 0.158035 6.43934 0.43934C6.15804 0.720644 6 1.10218 6 1.5Z" fill="#708090"/>
<path d="M16 7.99983C14.1428 7.99803 12.3434 8.64535 10.913 9.82983C10.4973 9.6148 10.062 9.44 9.61302 9.30783L10.349 7.83483C10.5457 7.43981 10.5841 6.98455 10.4562 6.5622C10.3283 6.13985 10.0438 5.78234 9.66102 5.56283C9.00384 5.18566 8.25769 4.99126 7.50002 4.99983C6.68881 4.98992 5.89196 5.21422 5.20502 5.64583C4.86034 5.87784 4.61314 6.22863 4.51059 6.63126C4.40804 7.0339 4.45732 7.4602 4.64902 7.82883L5.38902 9.30783C4.3483 9.6097 3.38536 10.1335 2.56647 10.8432C1.74759 11.5529 1.09221 12.4316 0.645452 13.4188C0.198696 14.406 -0.0288271 15.4784 -0.0214558 16.5619C-0.0140845 17.6455 0.228006 18.7147 0.688152 19.6957C1.1483 20.6768 1.81557 21.5465 2.64404 22.245C3.4725 22.9434 4.44248 23.4541 5.48721 23.7418C6.53194 24.0295 7.6266 24.0874 8.69584 23.9114C9.76509 23.7355 10.7835 23.33 11.681 22.7228C12.7268 23.3973 13.9156 23.8185 15.1527 23.953C16.3899 24.0874 17.6414 23.9314 18.8076 23.4973C19.9739 23.0632 21.0228 22.363 21.871 21.4524C22.7192 20.5418 23.3433 19.4458 23.6936 18.2517C24.0438 17.0576 24.1107 15.7982 23.8889 14.5737C23.6671 13.3492 23.1626 12.1933 22.4157 11.198C21.6687 10.2026 20.6998 9.39527 19.5861 8.84008C18.4724 8.28489 17.2445 7.99718 16 7.99983ZM3.00002 16.4998C3.00134 15.3068 3.47588 14.1629 4.3195 13.3193C5.16313 12.4757 6.30695 12.0011 7.50002 11.9998C7.9892 12.0054 8.47408 12.0919 8.93502 12.2558C8.24572 13.5495 7.92701 15.0084 8.014 16.4717C8.10098 17.935 8.59031 19.3459 9.42802 20.5488C8.82742 20.8421 8.16842 20.9963 7.50002 20.9998C6.30695 20.9985 5.16313 20.524 4.3195 19.6803C3.47588 18.8367 3.00134 17.6929 3.00002 16.4998ZM16 20.9998C15.2505 20.9959 14.5118 20.8211 13.84 20.4888C14.6778 19.1682 15.0791 17.6175 14.9872 16.0562C14.8954 14.495 14.3149 13.0021 13.328 11.7888C13.9825 11.373 14.7248 11.1153 15.4961 11.036C16.2675 10.9567 17.0467 11.0581 17.772 11.3322C18.4974 11.6062 19.149 12.0454 19.6752 12.6149C20.2015 13.1843 20.5879 13.8685 20.8039 14.6132C21.02 15.3579 21.0596 16.1427 20.9199 16.9054C20.7801 17.6681 20.4646 18.3877 19.9985 19.0074C19.5324 19.6271 18.9284 20.1297 18.2344 20.4755C17.5404 20.8214 16.7754 21.0009 16 20.9998Z" fill="#708090"/>
</g>
<defs>
<clipPath id="clip0_9_6861">
<rect width="24" height="24" fill="white"/>
</clipPath>
</defs>
</svg>
