<svg width="24" height="24" viewBox="0 0 24 24" fill="none" xmlns="http://www.w3.org/2000/svg">
<g clip-path="url(#clip0_9_7096)">
<path d="M17.9372 2.27005C16.9988 1.424 15.89 0.788952 14.6854 0.407721C13.4808 0.0264909 12.2085 -0.0920625 10.9542 0.0600529C9.23757 0.288624 7.62071 0.998467 6.29061 2.10749C4.96051 3.21651 3.97153 4.67939 3.43803 6.32696C2.90453 7.97452 2.84832 9.73945 3.2759 11.4176C3.70348 13.0958 4.59738 14.6186 5.85421 15.8101C6.80921 16.7111 7.00021 18.0001 7.00021 19.7791V19.9321C6.99515 21.0044 7.41567 22.0349 8.1695 22.7975C8.92333 23.5602 9.94891 23.9927 11.0212 24.0001H12.9792C14.0515 23.9927 15.0771 23.5602 15.8309 22.7975C16.5847 22.0349 17.0053 21.0044 17.0002 19.9321V19.4091C17.0002 17.7391 17.1502 16.7001 17.9422 15.9941C18.9053 15.1291 19.6756 14.0711 20.2029 12.8888C20.7302 11.7066 21.0027 10.4266 21.0027 9.13205C21.0027 7.83754 20.7302 6.55753 20.2029 5.37527C19.6756 4.19302 18.9053 3.13501 17.9422 2.27005H17.9372ZM14.0002 19.9321C14.0061 20.209 13.9019 20.4769 13.7105 20.6772C13.5191 20.8774 13.2561 20.9935 12.9792 21.0001H11.0212C10.7443 20.9935 10.4813 20.8774 10.2899 20.6772C10.0985 20.4769 9.99431 20.209 10.0002 19.9321V19.7791C10.0002 19.5201 10.0002 19.2601 9.98621 19.0001H14.0062C14.0062 19.1371 14.0002 19.2741 14.0002 19.4091V19.9321ZM15.9452 13.7551C15.2639 14.3625 14.7513 15.1359 14.4572 16.0001H13.5002V11.0831C13.9545 10.8216 14.3322 10.4454 14.5955 9.99205C14.8587 9.53874 14.9983 9.02425 15.0002 8.50005C15.0002 8.10223 14.8422 7.7207 14.5609 7.43939C14.2796 7.15809 13.898 7.00005 13.5002 7.00005C13.1024 7.00005 12.7209 7.15809 12.4396 7.43939C12.1582 7.7207 12.0002 8.10223 12.0002 8.50005C12.0002 8.10223 11.8422 7.7207 11.5609 7.43939C11.2796 7.15809 10.898 7.00005 10.5002 7.00005C10.1024 7.00005 9.72085 7.15809 9.43955 7.43939C9.15825 7.7207 9.00021 8.10223 9.00021 8.50005C9.00214 9.02425 9.14172 9.53874 9.40496 9.99205C9.6682 10.4454 10.0459 10.8216 10.5002 11.0831V16.0001H9.46221C9.14254 15.1004 8.61488 14.2891 7.92221 13.6321C7.21168 12.9581 6.6715 12.1249 6.3462 11.2011C6.0209 10.2774 5.91979 9.28954 6.05121 8.31905C6.21883 6.9825 6.82504 5.7393 7.7749 4.78419C8.72476 3.82909 9.9646 3.21603 11.3002 3.04105C11.5325 3.01373 11.7663 3.00004 12.0002 3.00005C13.4553 2.99652 14.8597 3.5344 15.9402 4.50905C16.5882 5.09214 17.1065 5.80488 17.4614 6.60109C17.8163 7.39731 18 8.25921 18.0004 9.13094C18.0009 10.0027 17.8182 10.8648 17.4641 11.6614C17.1101 12.458 16.5926 13.1713 15.9452 13.7551Z" fill="#708090"/>
</g>
<defs>
<clipPath id="clip0_9_7096">
<rect width="24" height="24" fill="white"/>
</clipPath>
</defs>
</svg>
