<svg width="24" height="24" viewBox="0 0 24 24" fill="none" xmlns="http://www.w3.org/2000/svg">
<g clip-path="url(#clip0_9_6791)">
<path d="M13.5 17C13.5 17.2967 13.4121 17.5867 13.2472 17.8334C13.0824 18.08 12.8481 18.2723 12.5741 18.3858C12.3 18.4994 11.9984 18.5291 11.7074 18.4712C11.4164 18.4133 11.1491 18.2704 10.9394 18.0607C10.7296 17.8509 10.5867 17.5836 10.5289 17.2926C10.471 17.0017 10.5007 16.7001 10.6142 16.426C10.7277 16.1519 10.92 15.9176 11.1667 15.7528C11.4133 15.588 11.7034 15.5 12 15.5C12.3979 15.5 12.7794 15.658 13.0607 15.9393C13.342 16.2206 13.5 16.6022 13.5 17ZM20.879 21.909C21.0358 22.2747 21.0408 22.6878 20.893 23.0572C20.7452 23.4266 20.4568 23.7223 20.091 23.879C19.7253 24.0357 19.3123 24.0408 18.9428 23.893C18.5734 23.7452 18.2778 23.4567 18.121 23.091L17.242 21.04C15.5748 21.7014 13.7935 22.0276 12 22C10.2066 22.027 8.42546 21.7008 6.75803 21.04L5.87903 23.091C5.80142 23.2721 5.6889 23.4361 5.54789 23.5737C5.40689 23.7113 5.24016 23.8198 5.05723 23.893C4.8743 23.9662 4.67874 24.0026 4.48174 24.0002C4.28473 23.9978 4.09012 23.9566 3.90903 23.879C3.72794 23.8014 3.5639 23.6889 3.4263 23.5479C3.28869 23.4069 3.1802 23.2401 3.10703 23.0572C3.03386 22.8743 2.99743 22.6787 2.99983 22.4817C3.00224 22.2847 3.04342 22.0901 3.12103 21.909L4.22903 19.325C3.4346 18.3674 2.99987 17.1622 3.00003 15.918V5.984C2.99388 4.86507 3.34356 3.77315 3.99857 2.86595C4.65358 1.95876 5.58 1.28325 6.64403 0.937C8.36979 0.348112 10.1768 0.0319796 12 0C13.8232 0.0318166 15.6303 0.347953 17.356 0.937C18.4201 1.28325 19.3465 1.95876 20.0015 2.86595C20.6565 3.77315 21.0062 4.86507 21 5.984V15.918C21.0005 17.1624 20.5662 18.3679 19.772 19.326L20.879 21.909ZM6.00003 6.25C6.00003 8.2 8.11803 12 12 12C15.882 12 18 8.2 18 6.25V5.984C18.0049 5.49933 17.8556 5.02564 17.5738 4.6313C17.292 4.23696 16.8922 3.94236 16.432 3.79C16.087 3.678 15.747 3.584 15.41 3.495C15.3077 3.78771 15.1172 4.04151 14.8647 4.22149C14.6122 4.40147 14.3101 4.49877 14 4.5H10C9.69052 4.4998 9.38871 4.40348 9.13631 4.22434C8.88391 4.04521 8.69337 3.7921 8.59103 3.5C8.25303 3.589 7.91303 3.683 7.56803 3.795C7.10872 3.9471 6.70948 4.24094 6.42773 4.63428C6.14598 5.02762 5.99623 5.50018 6.00003 5.984V6.25ZM12 19C13.6883 19.0577 15.3635 18.685 16.868 17.917C17.2178 17.7147 17.5071 17.4226 17.7061 17.071C17.9051 16.7194 18.0066 16.321 18 15.917V12.6C16.3833 14.1425 14.2346 15.0031 12 15.0031C9.76549 15.0031 7.61679 14.1425 6.00003 12.6V15.921C5.99409 16.3251 6.09604 16.7235 6.29538 17.075C6.49471 17.4266 6.78421 17.7186 7.13403 17.921C8.63835 18.6873 10.3128 19.0586 12 19Z" fill="#708090"/>
</g>
<defs>
<clipPath id="clip0_9_6791">
<rect width="24" height="24" fill="white"/>
</clipPath>
</defs>
</svg>
