<svg width="24" height="24" viewBox="0 0 24 24" fill="none" xmlns="http://www.w3.org/2000/svg">
<g clip-path="url(#clip0_9_6783)">
<path d="M7.7603 6.65134L10.5412 3.86948L10.5622 17.5009C10.5622 18.3293 11.2337 19.0008 12.0621 19.0008C12.8905 19.0008 13.562 18.3293 13.562 17.5009L13.541 3.88649L16.3059 6.65139C16.8815 7.24724 17.831 7.26374 18.4269 6.68823C19.0227 6.11272 19.0392 5.16317 18.4637 4.56732C18.4516 4.55481 18.4393 4.54253 18.4269 4.53048L15.215 1.3186C13.4577 -0.438713 10.6086 -0.438713 8.85127 1.31856L8.85122 1.3186L5.63939 4.53043C5.06388 5.12628 5.08038 6.07584 5.67623 6.65134C6.2575 7.21274 7.17902 7.21274 7.7603 6.65134Z" fill="#708090"/>
<path d="M22.4996 14.5002C21.6712 14.5002 20.9996 15.1718 20.9996 16.0002V20.591C20.9991 20.8166 20.8163 20.9994 20.5907 20.9999H3.40939C3.18374 20.9994 3.00094 20.8166 3.00042 20.591V16.0002C3.00042 15.1718 2.32887 14.5002 1.50048 14.5002C0.672099 14.5002 0.000549316 15.1718 0.000549316 16.0002V20.591C0.00275235 22.4727 1.52767 23.9976 3.40939 23.9998H20.5906C22.4724 23.9976 23.9973 22.4727 23.9995 20.591V16.0002C23.9995 15.1718 23.328 14.5002 22.4996 14.5002Z" fill="#708090"/>
</g>
<defs>
<clipPath id="clip0_9_6783">
<rect width="24" height="24" fill="white"/>
</clipPath>
</defs>
</svg>
