<svg width="24" height="24" viewBox="0 0 24 24" fill="none" xmlns="http://www.w3.org/2000/svg">
<g clip-path="url(#clip0_9_6899)">
<path d="M18.9393 22.4594C18.9393 23.2852 18.2699 23.9546 17.4441 23.9546H1.49532C0.66952 23.9546 9.80101e-05 23.2852 9.80101e-05 22.4594C9.80101e-05 21.6336 0.66952 20.9641 1.49532 20.9641H17.4442C18.2699 20.9642 18.9393 21.6336 18.9393 22.4594ZM24.0001 8.50416C24.0001 11.5005 21.6078 14.9834 18.5177 14.9834H17.0345C16.4722 17.3297 14.3746 18.9847 11.9618 18.9855H6.97772C4.40799 18.991 2.21443 17.1299 1.80132 14.5936L0.0629105 5.09409C-0.342839 2.74678 1.23108 0.515015 3.57839 0.109312C3.82013 0.0675465 4.06496 0.0464527 4.31025 0.0462652H14.6291C16.8867 0.0450934 18.7598 1.79222 18.9154 4.04442C22.1012 4.17502 24.0001 5.81278 24.0001 8.50416ZM15.934 4.5548C16.0435 3.83419 15.5482 3.1612 14.8276 3.05166C14.7619 3.04167 14.6956 3.03666 14.6292 3.03666H4.31025C3.58139 3.03947 2.99279 3.63258 2.99555 4.36148C2.99583 4.43428 3.00211 4.50694 3.01439 4.5787L4.7558 14.0792C4.92483 15.1772 5.86683 15.9894 6.97768 15.9951H11.9617C13.0684 15.9965 14.0123 15.1938 14.1886 14.1012V14.0773L15.934 4.5548ZM21.0097 8.50416C21.0097 8.05659 21.0097 7.00894 18.5247 7.00894L17.6116 11.993H18.5177C19.659 11.993 21.0097 10.099 21.0097 8.50416Z" fill="#708090"/>
</g>
<defs>
<clipPath id="clip0_9_6899">
<rect width="24" height="24" fill="white"/>
</clipPath>
</defs>
</svg>
