<svg width="24" height="24" viewBox="0 0 24 24" fill="none" xmlns="http://www.w3.org/2000/svg">
<g clip-path="url(#clip0_9_7125)">
<path d="M23.5846 11.0753C21.9091 6.8609 18.1282 3.84815 13.6461 3.15595C14.2603 2.24372 14.0187 1.00626 13.1065 0.392013C12.1942 -0.22219 10.9568 0.0194035 10.3425 0.931638C9.88985 1.60397 9.88985 2.48358 10.3425 3.15595C5.8616 3.84914 2.08197 6.86175 0.407036 11.0753C-0.214386 12.4085 -0.118058 13.9657 0.662926 15.2122C1.15558 15.9647 1.89761 16.5196 2.75875 16.7793L3.36508 19.9106C3.81855 22.252 5.8668 23.9443 8.25171 23.948H15.7369C18.121 23.9443 20.1691 22.2538 20.6246 19.9136L21.2299 16.7833C22.0926 16.5229 22.8356 15.9661 23.3277 15.2112C24.1085 13.9651 24.2052 12.4084 23.5846 11.0753ZM17.6924 19.3471C17.5115 20.2842 16.6913 20.9611 15.7369 20.961H8.25171C7.29775 20.9607 6.47805 20.2838 6.29725 19.3471L6.03143 17.9741C6.74163 17.9701 7.43327 17.7469 8.01175 17.3349C9.21002 18.1634 10.796 18.1634 11.9943 17.3349C13.1926 18.1634 14.7786 18.1634 15.9769 17.3349C16.5554 17.7469 17.2471 17.9702 17.9573 17.9741L17.6924 19.3471ZM20.8247 13.5813C20.6297 13.8621 20.3003 14.0183 19.9594 13.9915C19.3311 14.0065 18.7428 14.3034 18.3574 14.8C18.1731 15.015 17.8494 15.0399 17.6344 14.8556C17.6145 14.8385 17.596 14.8199 17.5788 14.8C16.921 13.9152 15.6705 13.7313 14.7858 14.3891C14.6295 14.5053 14.4911 14.6437 14.3748 14.8C14.1905 15.015 13.8668 15.0399 13.6518 14.8556C13.6319 14.8385 13.6134 14.8199 13.5963 14.8C12.9342 13.9149 11.6801 13.7342 10.795 14.3962C10.6418 14.5109 10.5059 14.6468 10.3913 14.8C10.208 15.0144 9.88558 15.0397 9.67113 14.8565C9.65088 14.8391 9.63199 14.8203 9.61465 14.8C8.95202 13.9147 7.69722 13.7341 6.81189 14.3968C6.65894 14.5112 6.52314 14.647 6.40868 14.8C6.22539 15.0144 5.90299 15.0397 5.68854 14.8565C5.66829 14.8391 5.64939 14.8203 5.63205 14.8C5.24369 14.3066 4.65672 14.0105 4.02907 13.9915C3.68904 14.0182 3.36044 13.8624 3.16586 13.5823C2.94461 13.1816 2.93421 12.6978 3.13797 12.288C6.66654 3.93951 17.3428 3.96145 20.8515 12.288C21.0569 12.6971 21.0468 13.1812 20.8247 13.5813Z" fill="#708090"/>
</g>
<defs>
<clipPath id="clip0_9_7125">
<rect width="24" height="24" fill="white"/>
</clipPath>
</defs>
</svg>
