<svg width="24" height="24" viewBox="0 0 24 24" fill="none" xmlns="http://www.w3.org/2000/svg">
<g clip-path="url(#clip0_9_7121)">
<path d="M8.50005 3C8.50005 2.40666 8.67599 1.82664 9.00564 1.33329C9.33528 0.839943 9.80382 0.455426 10.352 0.228363C10.9002 0.00129986 11.5034 -0.0581102 12.0853 0.0576455C12.6673 0.173401 13.2018 0.459124 13.6214 0.878681C14.0409 1.29824 14.3266 1.83279 14.4424 2.41473C14.5582 2.99667 14.4987 3.59987 14.2717 4.14805C14.0446 4.69623 13.6601 5.16477 13.1668 5.49441C12.6734 5.82406 12.0934 6 11.5 6C10.7044 6 9.94134 5.68393 9.37873 5.12132C8.81612 4.55871 8.50005 3.79565 8.50005 3ZM22.5 20H21.516L20.4 17.2C20.1419 16.5493 19.6939 15.9914 19.1142 15.599C18.5345 15.2066 17.8501 14.9979 17.15 15H13.5C13.3674 15 13.2403 14.9473 13.1465 14.8536C13.0527 14.7598 13 14.6326 13 14.5V13H17.5C17.8979 13 18.2794 12.842 18.5607 12.5607C18.842 12.2794 19 11.8978 19 11.5C19 11.1022 18.842 10.7206 18.5607 10.4393C18.2794 10.158 17.8979 10 17.5 10H13V8.5C13 8.10218 12.842 7.72065 12.5607 7.43934C12.2794 7.15804 11.8979 7 11.5 7C11.1022 7 10.7207 7.15804 10.4394 7.43934C10.1581 7.72065 10 8.10218 10 8.5V14.5C10.0031 15.2715 10.2609 16.0203 10.7334 16.6301C11.206 17.2399 11.8668 17.6765 12.613 17.872C12.2903 18.6647 11.7692 19.3611 11.0996 19.8942C10.43 20.4274 9.63461 20.7793 8.78975 20.9163C7.94489 21.0532 7.07901 20.9706 6.27532 20.6762C5.47164 20.3819 4.75716 19.8858 4.20057 19.2356C3.64398 18.5854 3.26399 17.803 3.0971 16.9635C2.93022 16.1241 2.98206 15.2558 3.24764 14.4422C3.51323 13.6285 3.98362 12.8969 4.61362 12.3175C5.24362 11.7382 6.01205 11.3306 6.84505 11.134C7.23226 11.0425 7.56727 10.8009 7.77637 10.4624C7.98548 10.1239 8.05155 9.71622 7.96005 9.329C7.86855 8.94179 7.62697 8.60678 7.28847 8.39767C6.94997 8.18857 6.54226 8.1225 6.15505 8.214C4.77572 8.54022 3.50782 9.22703 2.48109 10.2042C1.45437 11.1813 0.70568 12.4137 0.311641 13.7752C-0.0823984 15.1367 -0.10764 16.5785 0.238498 17.9529C0.584636 19.3274 1.28973 20.5852 2.28162 21.5977C3.27351 22.6102 4.51659 23.341 5.88365 23.7152C7.25072 24.0895 8.69268 24.0939 10.062 23.7279C11.4313 23.3619 12.6788 22.6387 13.6768 21.6323C14.6748 20.6259 15.3876 19.3723 15.742 18H17.142C17.2418 17.9999 17.3393 18.0297 17.4219 18.0855C17.5046 18.1413 17.5687 18.2205 17.606 18.313L19.106 22.057C19.2175 22.3356 19.4098 22.5743 19.6583 22.7424C19.9068 22.9105 20.2 23.0003 20.5 23H22.5C22.8979 23 23.2794 22.842 23.5607 22.5607C23.842 22.2794 24 21.8978 24 21.5C24 21.1022 23.842 20.7206 23.5607 20.4393C23.2794 20.158 22.8979 20 22.5 20Z" fill="#708090"/>
</g>
<defs>
<clipPath id="clip0_9_7121">
<rect width="24" height="24" fill="white"/>
</clipPath>
</defs>
</svg>
