<svg width="24" height="24" viewBox="0 0 24 24" fill="none" xmlns="http://www.w3.org/2000/svg">
<g clip-path="url(#clip0_9_6794)">
<path d="M17.7279 -0.00055526C16.3987 -0.0011194 15.0784 0.215397 13.8189 0.640445C13.2352 0.854666 12.6213 0.975811 11.9999 0.999445C11.3782 0.975717 10.7641 0.854577 10.1799 0.640445C8.92087 0.215365 7.60082 -0.00115377 6.27193 -0.00055526C5.44183 -0.0243109 4.61562 0.121679 3.84392 0.428468C3.07223 0.735258 2.3713 1.19639 1.78409 1.7836C1.19687 2.37081 0.735746 3.07174 0.428956 3.84343C0.122167 4.61513 -0.0238226 5.44134 -6.69786e-05 6.27145C-6.69786e-05 12.3994 3.08293 18.3884 5.39993 22.3614C5.70243 22.8759 6.1378 23.2994 6.66037 23.5876C7.18294 23.8758 7.77345 24.0181 8.36993 23.9994C9.0872 23.9603 9.76151 23.6452 10.2517 23.1201C10.7419 22.595 11.01 21.9007 10.9999 21.1824V14.9994C10.9999 14.7342 11.1053 14.4799 11.2928 14.2923C11.4804 14.1048 11.7347 13.9994 11.9999 13.9994C12.2652 13.9994 12.5195 14.1048 12.707 14.2923C12.8946 14.4799 12.9999 14.7342 12.9999 14.9994V21.1824C12.9901 21.9003 13.258 22.5942 13.7477 23.1192C14.2375 23.6441 14.9111 23.9595 15.6279 23.9994C16.2242 24.0182 16.8145 23.8762 17.3371 23.5883C17.8596 23.3005 18.2951 22.8774 18.5979 22.3634C20.9169 18.3884 23.9999 12.3994 23.9999 6.27145C24.0237 5.44134 23.8777 4.61513 23.5709 3.84343C23.2641 3.07174 22.803 2.37081 22.2158 1.7836C21.6286 1.19639 20.9276 0.735258 20.1559 0.428468C19.3843 0.121679 18.558 -0.0243109 17.7279 -0.00055526ZM15.9999 20.8594V14.9994C15.9999 13.9386 15.5785 12.9212 14.8284 12.171C14.0782 11.4209 13.0608 10.9994 11.9999 10.9994C10.9391 10.9994 9.92165 11.4209 9.17151 12.171C8.42136 12.9212 7.99993 13.9386 7.99993 14.9994V20.8594C5.85493 17.1874 2.99993 11.6754 2.99993 6.27145C2.97893 5.8362 3.04918 5.40137 3.20619 4.99488C3.36319 4.58839 3.60347 4.21923 3.91159 3.9111C4.21972 3.60298 4.58888 3.3627 4.99537 3.2057C5.40185 3.0487 5.83669 2.97844 6.27193 2.99945C7.30539 2.99876 8.33164 3.17149 9.30793 3.51045C10.1738 3.81462 11.0824 3.97967 11.9999 3.99945C12.9171 3.97968 13.8254 3.81463 14.6909 3.51045C15.6676 3.17149 16.6942 2.99876 17.7279 2.99945C18.1633 2.97782 18.5984 3.04764 19.0052 3.20442C19.412 3.36121 19.7814 3.60146 20.0897 3.90972C20.3979 4.21798 20.6382 4.58739 20.795 4.99416C20.9517 5.40094 21.0216 5.83604 20.9999 6.27145C20.9999 11.6754 18.1449 17.1874 15.9999 20.8594Z" fill="#708090"/>
</g>
<defs>
<clipPath id="clip0_9_6794">
<rect width="24" height="24" fill="white"/>
</clipPath>
</defs>
</svg>
