<svg width="24" height="24" viewBox="0 0 24 24" fill="none" xmlns="http://www.w3.org/2000/svg">
<g clip-path="url(#clip0_9_6939)">
<path d="M20.2139 4.39216L12.7339 0.19216C12.5098 0.0663698 12.257 0.000305176 11.9999 0.000305176C11.7429 0.000305176 11.4901 0.0663698 11.2659 0.19216L3.78594 4.39216C3.24458 4.69682 2.79392 5.13989 2.48009 5.67599C2.16627 6.21209 2.00056 6.82196 1.99994 7.44316V17.5002C2.00206 19.2234 2.68756 20.8755 3.90608 22.094C5.12461 23.3125 6.77668 23.998 8.49994 24.0002H15.4999C17.2232 23.998 18.8753 23.3125 20.0938 22.094C21.3123 20.8755 21.9978 19.2234 21.9999 17.5002V7.44316C21.9992 6.82198 21.8335 6.21215 21.5196 5.67607C21.2058 5.13998 20.7552 4.6969 20.2139 4.39216ZM18.9999 17.5002C18.9999 18.4284 18.6312 19.3187 17.9748 19.975C17.3184 20.6314 16.4282 21.0002 15.4999 21.0002H8.49994C7.57168 21.0002 6.68144 20.6314 6.02507 19.975C5.36869 19.3187 4.99994 18.4284 4.99994 17.5002V7.44316C4.99991 7.35439 5.02352 7.26722 5.06834 7.19059C5.11315 7.11397 5.17756 7.05066 5.25494 7.00716L11.9999 3.22116L18.7439 7.00716C18.8215 7.05053 18.8861 7.11378 18.9311 7.19042C18.9761 7.26705 18.9999 7.35429 18.9999 7.44316V17.5002Z" fill="#708090"/>
<path d="M12.0001 11.0003C13.1046 11.0003 14.0001 10.1049 14.0001 9.0003C14.0001 7.89573 13.1046 7.00031 12.0001 7.00031C10.8955 7.00031 10.0001 7.89573 10.0001 9.0003C10.0001 10.1049 10.8955 11.0003 12.0001 11.0003Z" fill="#708090"/>
</g>
<defs>
<clipPath id="clip0_9_6939">
<rect width="24" height="24" fill="white"/>
</clipPath>
</defs>
</svg>
