<svg width="24" height="24" viewBox="0 0 24 24" fill="none" xmlns="http://www.w3.org/2000/svg">
<g clip-path="url(#clip0_9_7085)">
<path d="M18.5001 24.0002H13.0341C5.7111 24.1432 -0.7459 18.2552 0.0561003 10.8852C0.304857 8.27097 1.40261 5.81006 3.18163 3.87845C4.96066 1.94684 7.32313 0.65075 9.9081 0.188196C11.6071 -0.126577 13.3548 -0.0593582 15.0246 0.384979C16.6943 0.829316 18.2443 1.63964 19.5621 2.7572C20.9569 3.92994 22.0772 5.39454 22.844 7.04761C23.6109 8.70068 24.0055 10.5019 24.0001 12.3242V18.5002C23.9985 19.9584 23.4185 21.3564 22.3874 22.3875C21.3563 23.4186 19.9583 23.9986 18.5001 24.0002ZM12.0301 3.0002C9.7846 2.99825 7.6191 3.83385 5.95693 5.34364C4.29476 6.85342 3.25542 8.92885 3.0421 11.1642C2.91981 12.3565 3.05071 13.5612 3.42621 14.6994C3.80171 15.8376 4.41335 16.8837 5.2211 17.7692C6.22835 18.8198 7.44302 19.6496 8.78803 20.2058C10.133 20.762 11.579 21.0326 13.0341 21.0002H18.5001C19.1631 21.0002 19.799 20.7368 20.2679 20.268C20.7367 19.7991 21.0001 19.1632 21.0001 18.5002V12.3242C21.005 10.9399 20.706 9.57132 20.1242 8.31515C19.5425 7.05899 18.6921 5.94582 17.6331 5.0542C16.0691 3.72502 14.0826 2.99679 12.0301 3.0002ZM14.5001 8.0002C13.8045 8.03491 13.1509 8.34374 12.6824 8.8591C12.2139 9.37447 11.9686 10.0544 12.0001 10.7502C12.0295 10.4041 11.9867 10.0556 11.8744 9.72686C11.7621 9.39812 11.5828 9.09629 11.3478 8.84047C11.1128 8.58465 10.8272 8.38042 10.5091 8.24072C10.1911 8.10101 9.84748 8.02887 9.5001 8.02887C9.15272 8.02887 8.80912 8.10101 8.49107 8.24072C8.17302 8.38042 7.88744 8.58465 7.65243 8.84047C7.41741 9.09629 7.23808 9.39812 7.12579 9.72686C7.0135 10.0556 6.9707 10.4041 7.0001 10.7502C7.0001 12.9132 9.8201 15.6012 11.2251 16.7282C11.445 16.9045 11.7183 17.0005 12.0001 17.0005C12.2819 17.0005 12.5552 16.9045 12.7751 16.7282C14.1801 15.6002 17.0001 12.9132 17.0001 10.7502C17.0316 10.0544 16.7863 9.37447 16.3178 8.8591C15.8493 8.34374 15.1957 8.03491 14.5001 8.0002Z" fill="#708090"/>
</g>
<defs>
<clipPath id="clip0_9_7085">
<rect width="24" height="24" fill="white"/>
</clipPath>
</defs>
</svg>
