<svg width="24" height="24" viewBox="0 0 24 24" fill="none" xmlns="http://www.w3.org/2000/svg">
<g clip-path="url(#clip0_9_6975)">
<path d="M1.5 5.99999H22.5C22.8978 5.99999 23.2794 5.84196 23.5607 5.56065C23.842 5.27935 24 4.89782 24 4.49999C24 4.10217 23.842 3.72064 23.5607 3.43933C23.2794 3.15803 22.8978 2.99999 22.5 2.99999H1.5C1.10218 2.99999 0.720644 3.15803 0.43934 3.43933C0.158035 3.72064 0 4.10217 0 4.49999C0 4.89782 0.158035 5.27935 0.43934 5.56065C0.720644 5.84196 1.10218 5.99999 1.5 5.99999Z" fill="#708090"/>
<path d="M22.5002 8.00003H9.50015C9.10233 8.00003 8.7208 8.15807 8.43949 8.43937C8.15819 8.72067 8.00015 9.10221 8.00015 9.50003C8.00015 9.89786 8.15819 10.2794 8.43949 10.5607C8.7208 10.842 9.10233 11 9.50015 11H22.5002C22.898 11 23.2795 10.842 23.5608 10.5607C23.8421 10.2794 24.0002 9.89786 24.0002 9.50003C24.0002 9.10221 23.8421 8.72067 23.5608 8.43937C23.2795 8.15807 22.898 8.00003 22.5002 8.00003Z" fill="#708090"/>
<path d="M22.5002 18H9.50015C9.10233 18 8.7208 18.158 8.43949 18.4393C8.15819 18.7206 8.00015 19.1022 8.00015 19.5C8.00015 19.8978 8.15819 20.2794 8.43949 20.5607C8.7208 20.842 9.10233 21 9.50015 21H22.5002C22.898 21 23.2795 20.842 23.5608 20.5607C23.8421 20.2794 24.0002 19.8978 24.0002 19.5C24.0002 19.1022 23.8421 18.7206 23.5608 18.4393C23.2795 18.158 22.898 18 22.5002 18Z" fill="#708090"/>
<path d="M22.5 13H1.5C1.10218 13 0.720644 13.158 0.43934 13.4393C0.158035 13.7206 0 14.1021 0 14.5C0 14.8978 0.158035 15.2793 0.43934 15.5606C0.720644 15.8419 1.10218 16 1.5 16H22.5C22.8978 16 23.2794 15.8419 23.5607 15.5606C23.842 15.2793 24 14.8978 24 14.5C24 14.1021 23.842 13.7206 23.5607 13.4393C23.2794 13.158 22.8978 13 22.5 13Z" fill="#708090"/>
</g>
<defs>
<clipPath id="clip0_9_6975">
<rect width="24" height="24" fill="white"/>
</clipPath>
</defs>
</svg>
