<svg width="24" height="24" viewBox="0 0 24 24" fill="none" xmlns="http://www.w3.org/2000/svg">
<g clip-path="url(#clip0_9_6919)">
<path d="M7.99991 22.3601C9.06205 23.4059 10.4912 23.9945 11.9818 24.0001C13.4724 24.0057 14.9059 23.4279 15.9759 22.3901L19.7829 18.8531C21.8418 16.7762 22.9969 13.9701 22.9969 11.0456C22.9969 8.12111 21.8418 5.31501 19.7829 3.23809C18.7636 2.212 17.5514 1.39766 16.2161 0.841965C14.8808 0.286267 13.4487 0.000183105 12.0024 0.000183105C10.5561 0.000183105 9.12405 0.286267 7.78874 0.841965C6.45343 1.39766 5.24122 2.212 4.22191 3.23809C2.15858 5.32357 1.00474 8.14107 1.01261 11.0748C1.02048 14.0084 2.18942 16.8197 4.26391 18.8941L7.99991 22.3601ZM6.34591 5.35409C7.08646 4.60813 7.9673 4.01608 8.93768 3.61207C9.90806 3.20805 10.9488 3.00005 11.9999 3.00005C13.051 3.00005 14.0918 3.20805 15.0622 3.61207C16.0325 4.01608 16.9134 4.60813 17.6539 5.35409C19.1522 6.85916 19.9972 8.89395 20.0058 11.0176C20.0144 13.1413 19.186 15.1829 17.6999 16.7001L13.8999 20.2251C13.3821 20.7187 12.6927 20.9916 11.9773 20.986C11.262 20.9804 10.5769 20.6967 10.0669 20.1951L6.34591 16.7371C4.84495 15.2231 4.00281 13.1775 4.00281 11.0456C4.00281 8.91368 4.84495 6.86808 6.34591 5.35409ZM6.99991 11.0001C6.99991 10.6023 7.15795 10.2207 7.43925 9.93943C7.72056 9.65812 8.10209 9.50009 8.49991 9.50009H10.4999V7.50009C10.4999 7.10226 10.6579 6.72073 10.9393 6.43943C11.2206 6.15812 11.6021 6.00009 11.9999 6.00009C12.3977 6.00009 12.7793 6.15812 13.0606 6.43943C13.3419 6.72073 13.4999 7.10226 13.4999 7.50009V9.50009H15.4999C15.8977 9.50009 16.2793 9.65812 16.5606 9.93943C16.8419 10.2207 16.9999 10.6023 16.9999 11.0001C16.9999 11.3979 16.8419 11.7794 16.5606 12.0607C16.2793 12.3421 15.8977 12.5001 15.4999 12.5001H13.4999V14.5001C13.4999 14.8979 13.3419 15.2794 13.0606 15.5607C12.7793 15.8421 12.3977 16.0001 11.9999 16.0001C11.6021 16.0001 11.2206 15.8421 10.9393 15.5607C10.6579 15.2794 10.4999 14.8979 10.4999 14.5001V12.5001H8.49991C8.10209 12.5001 7.72056 12.3421 7.43925 12.0607C7.15795 11.7794 6.99991 11.3979 6.99991 11.0001Z" fill="#708090"/>
</g>
<defs>
<clipPath id="clip0_9_6919">
<rect width="24" height="24" fill="white"/>
</clipPath>
</defs>
</svg>
