<svg width="24" height="24" viewBox="0 0 24 24" fill="none" xmlns="http://www.w3.org/2000/svg">
<g clip-path="url(#clip0_9_6777)">
<path d="M24 7.49939C24.0029 6.10602 23.6168 4.73951 22.8851 3.55369C22.1534 2.36787 21.1053 1.40983 19.8587 0.787396C18.612 0.164966 17.2164 -0.0971351 15.8289 0.0305972C14.4414 0.15833 13.1171 0.670824 12.005 1.51039C11.1061 0.832169 10.0661 0.365065 8.96197 0.143736C7.85787 -0.0775929 6.71811 -0.0474656 5.62725 0.231883C4.53639 0.511231 3.52244 1.03263 2.66062 1.75739C1.79881 2.48215 1.11125 3.39167 0.648969 4.41847C0.186689 5.44526 -0.0384486 6.56297 -0.0097381 7.68866C0.0189724 8.81435 0.300794 9.91913 0.814815 10.921C1.32884 11.9229 2.06186 12.7962 2.95951 13.4761C3.85715 14.156 4.89636 14.625 6.00004 14.8484V17.9994H5.00004C4.60222 17.9994 4.22069 18.1574 3.93938 18.4387C3.65808 18.72 3.50004 19.1016 3.50004 19.4994C3.50004 19.8972 3.65808 20.2787 3.93938 20.56C4.22069 20.8414 4.60222 20.9994 5.00004 20.9994H6.00004V22.4994C6.00004 22.8972 6.15808 23.2787 6.43938 23.56C6.72069 23.8414 7.10222 23.9994 7.50004 23.9994C7.89787 23.9994 8.2794 23.8414 8.5607 23.56C8.84201 23.2787 9.00004 22.8972 9.00004 22.4994V20.9994H10C10.3979 20.9994 10.7794 20.8414 11.0607 20.56C11.342 20.2787 11.5 19.8972 11.5 19.4994C11.5 19.1016 11.342 18.72 11.0607 18.4387C10.7794 18.1574 10.3979 17.9994 10 17.9994H9.00004V14.8464C10.0907 14.6243 11.1176 14.1602 12.005 13.4884C12.8896 14.1592 13.9129 14.6238 15 14.8484V17.9994H14C13.6022 17.9994 13.2207 18.1574 12.9394 18.4387C12.6581 18.72 12.5 19.1016 12.5 19.4994C12.5 19.8972 12.6581 20.2787 12.9394 20.56C13.2207 20.8414 13.6022 20.9994 14 20.9994H15V22.4994C15 22.8972 15.1581 23.2787 15.4394 23.56C15.7207 23.8414 16.1022 23.9994 16.5 23.9994C16.8979 23.9994 17.2794 23.8414 17.5607 23.56C17.842 23.2787 18 22.8972 18 22.4994V20.9994H19C19.3979 20.9994 19.7794 20.8414 20.0607 20.56C20.342 20.2787 20.5 19.8972 20.5 19.4994C20.5 19.1016 20.342 18.72 20.0607 18.4387C19.7794 18.1574 19.3979 17.9994 19 17.9994H18V14.8484C19.6928 14.5004 21.2138 13.5794 22.3068 12.2407C23.3997 10.9021 23.9977 9.22755 24 7.49939ZM3.00004 7.49939C2.99907 6.68422 3.21994 5.88416 3.63898 5.18494C4.05802 4.48572 4.65942 3.91371 5.37875 3.53021C6.09807 3.1467 6.90819 2.96617 7.72229 3.00795C8.53638 3.04974 9.32376 3.31226 10 3.76739C9.34239 4.90119 8.99602 6.18865 8.99602 7.49939C8.99602 8.81013 9.34239 10.0976 10 11.2314C9.32376 11.6865 8.53638 11.949 7.72229 11.9908C6.90819 12.0326 6.09807 11.8521 5.37875 11.4686C4.65942 11.0851 4.05802 10.5131 3.63898 9.81384C3.21994 9.11462 2.99907 8.31456 3.00004 7.49939ZM12 7.49939C12 6.60937 12.264 5.73934 12.7584 4.99932C13.2529 4.2593 13.9557 3.68253 14.778 3.34193C15.6002 3.00134 16.505 2.91222 17.378 3.08586C18.2509 3.25949 19.0527 3.68807 19.682 4.31741C20.3114 4.94675 20.7399 5.74857 20.9136 6.62148C21.0872 7.4944 20.9981 8.3992 20.6575 9.22147C20.3169 10.0437 19.7401 10.7465 19.0001 11.241C18.2601 11.7355 17.3901 11.9994 16.5 11.9994C15.307 11.9981 14.1632 11.5235 13.3195 10.6799C12.4759 9.83628 12.0014 8.69246 12 7.49939Z" fill="#708090"/>
</g>
<defs>
<clipPath id="clip0_9_6777">
<rect width="24" height="24" fill="white"/>
</clipPath>
</defs>
</svg>
