<svg width="24" height="24" viewBox="0 0 24 24" fill="none" xmlns="http://www.w3.org/2000/svg">
<g clip-path="url(#clip0_9_6788)">
<path d="M19.5861 23.0459H4.41409C3.66154 23.0499 2.92059 22.8605 2.26234 22.4957C1.60409 22.131 1.05064 21.6031 0.655086 20.9629C0.263123 20.3363 0.0388601 19.6194 0.00383618 18.8811C-0.0311878 18.1428 0.124203 17.4078 0.455086 16.7469L8.06409 3.35391C8.43838 2.62762 9.00632 2.01905 9.70507 1.59556C10.4038 1.17207 11.2061 0.950161 12.0232 0.954405C12.8402 0.95865 13.6402 1.18888 14.3345 1.61961C15.0288 2.05034 15.5904 2.66477 15.9571 3.39491L23.5001 16.6739C23.8476 17.3413 24.0156 18.0875 23.9877 18.8394C23.9599 19.5913 23.737 20.3231 23.3411 20.9629C22.9459 21.6026 22.3931 22.13 21.7356 22.4947C21.0781 22.8595 20.338 23.0492 19.5861 23.0459ZM12.0001 3.95491C11.7371 3.95159 11.4784 4.02243 11.2538 4.15932C11.0292 4.29622 10.8477 4.49362 10.7301 4.72891L10.6911 4.80291L3.10009 18.1559C3.01318 18.3524 2.97681 18.5675 2.99427 18.7816C3.01174 18.9958 3.08249 19.2021 3.20009 19.3819C3.3267 19.588 3.50474 19.7575 3.71671 19.8739C3.92867 19.9903 4.16728 20.0496 4.40909 20.0459H19.5861C19.8279 20.0496 20.0665 19.9903 20.2785 19.8739C20.4904 19.7575 20.6685 19.588 20.7951 19.3819C20.9169 19.189 20.9865 18.9678 20.9972 18.74C21.0079 18.5121 20.9593 18.2854 20.8561 18.0819L13.3091 4.79991C13.194 4.54902 13.0097 4.3362 12.7778 4.18651C12.5459 4.03681 12.2761 3.95646 12.0001 3.95491Z" fill="#708090"/>
</g>
<defs>
<clipPath id="clip0_9_6788">
<rect width="24" height="24" fill="white"/>
</clipPath>
</defs>
</svg>
