<svg width="24" height="24" viewBox="0 0 24 24" fill="none" xmlns="http://www.w3.org/2000/svg">
<g clip-path="url(#clip0_9_7131)">
<path d="M6.50008 15.9997C6.79675 15.9997 7.08676 16.0876 7.33343 16.2525C7.58011 16.4173 7.77237 16.6516 7.8859 16.9256C7.99943 17.1997 8.02913 17.5013 7.97126 17.7923C7.91338 18.0833 7.77052 18.3505 7.56074 18.5603C7.35096 18.7701 7.08368 18.913 6.79271 18.9708C6.50174 19.0287 6.20014 18.999 5.92605 18.8855C5.65196 18.772 5.4177 18.5797 5.25287 18.333C5.08805 18.0863 5.00008 17.7963 5.00008 17.4997C5.00008 17.1018 5.15811 16.7203 5.43942 16.439C5.72072 16.1577 6.10225 15.9997 6.50008 15.9997ZM9.50008 23.8607C10.8874 23.6019 12.1806 22.9781 13.2467 22.0534C14.3127 21.1287 15.113 19.9365 15.5651 18.5997C15.9929 17.3635 16.1029 16.0395 15.8851 14.7497L16.5661 14.0607C16.8455 13.7784 17.0016 13.3968 17.0001 12.9997V10.9997H17.5001C17.8284 10.9997 18.1535 10.935 18.4568 10.8094C18.7601 10.6837 19.0357 10.4996 19.2678 10.2674C19.5 10.0353 19.6841 9.75969 19.8098 9.45637C19.9354 9.15306 20.0001 8.82797 20.0001 8.49967V7.99967H21.2511C21.7421 7.9995 22.2223 7.85544 22.6323 7.5853C23.0423 7.31515 23.3642 6.93077 23.5581 6.47967C23.9182 5.65088 24.0613 4.74407 23.9741 3.84467C23.8569 2.77853 23.347 1.79419 22.5438 1.08341C21.7406 0.372621 20.7015 -0.0137127 19.6291 -0.000335248C18.9061 -0.00225336 18.19 0.139232 17.5221 0.415932C16.8542 0.692631 16.2478 1.09905 15.7381 1.61167L9.23808 8.11167C7.951 7.8964 6.63045 8.00851 5.39808 8.43766C3.60809 9.05564 2.09536 10.2885 1.12897 11.9171C0.162583 13.5456 -0.194794 15.4641 0.120412 17.3313C0.435618 19.1986 1.40297 20.8934 2.85038 22.1145C4.2978 23.3355 6.13142 24.0035 8.02508 23.9997C8.51995 23.9983 9.01367 23.9518 9.50008 23.8607ZM9.31508 11.1997C9.57118 11.2709 9.8416 11.2728 10.0987 11.2051C10.3557 11.1375 10.5902 11.0027 10.7781 10.8147L17.8591 3.73467C18.0908 3.50117 18.3666 3.31598 18.6704 3.18982C18.9743 3.06365 19.3001 2.99902 19.6291 2.99967C19.957 2.99187 20.2765 3.10446 20.527 3.31616C20.7776 3.52787 20.942 3.82402 20.9891 4.14867C21.0183 4.43483 20.9911 4.72396 20.9091 4.99967H19.5001C18.837 4.99967 18.2012 5.26306 17.7323 5.7319C17.2635 6.20074 17.0001 6.83662 17.0001 7.49967V7.99967H16.5001C15.837 7.99967 15.2012 8.26306 14.7323 8.7319C14.2635 9.20074 14.0001 9.83662 14.0001 10.4997V12.3837L13.1781 13.2147C12.9919 13.4029 12.8589 13.637 12.7925 13.8932C12.7261 14.1495 12.7287 14.4187 12.8001 14.6737C13.0787 15.643 13.0529 16.6745 12.7261 17.6287C12.4503 18.4306 11.9752 19.1493 11.3452 19.717C10.7153 20.2848 9.95133 20.683 9.12513 20.8742C8.29894 21.0654 7.43769 21.0433 6.62238 20.81C5.80706 20.5768 5.06448 20.14 4.46445 19.5407C3.86443 18.9414 3.42668 18.1994 3.19238 17.3844C2.95808 16.5693 2.93493 15.7081 3.1251 14.8817C3.31527 14.0553 3.71251 13.2908 4.27947 12.6601C4.84643 12.0295 5.56447 11.5534 6.36608 11.2767C6.87828 11.0999 7.41624 11.0094 7.95808 11.0087C8.41699 11.0104 8.87352 11.0747 9.31508 11.1997Z" fill="#708090"/>
</g>
<defs>
<clipPath id="clip0_9_7131">
<rect width="24" height="24" fill="white"/>
</clipPath>
</defs>
</svg>
