<svg width="24" height="24" viewBox="0 0 24 24" fill="none" xmlns="http://www.w3.org/2000/svg">
<g clip-path="url(#clip0_9_6973)">
<path d="M23.0691 0.533622C22.7801 0.302891 22.4424 0.140721 22.0816 0.0593126C21.7208 -0.0220957 21.3463 -0.0206224 20.9861 0.0636218C20.0721 0.32141 19.227 0.779864 18.5125 1.40558C17.7981 2.0313 17.2322 2.80852 16.8561 3.68062C13.6734 2.83962 10.3268 2.83962 7.14413 3.68062C6.7676 2.80865 6.20145 2.03156 5.48686 1.40588C4.77227 0.780206 3.9272 0.321668 3.01313 0.0636218C2.65264 -0.019545 2.27802 -0.0203302 1.91718 0.0613248C1.55634 0.14298 1.21857 0.304972 0.928998 0.535242C0.63943 0.765512 0.40553 1.05813 0.244708 1.39131C0.0838869 1.72449 0.000286461 2.08966 0.000130367 2.45962V9.95962C-0.0037286 11.4108 0.280193 12.8483 0.835472 14.1891C1.39075 15.5298 2.20636 16.7471 3.23513 17.7706L7.68113 22.2096C8.82995 23.3488 10.3823 23.9879 12.0001 23.9879C13.618 23.9879 15.1703 23.3488 16.3191 22.2096L20.7651 17.7656C21.7941 16.7423 22.6098 15.525 23.1651 14.1842C23.7204 12.8434 24.0042 11.4058 24.0001 9.95462V2.45962C24.001 2.08904 23.9176 1.7231 23.7563 1.38945C23.5951 1.0558 23.3601 0.763155 23.0691 0.533622ZM4.85013 5.97462C4.91298 6.16304 5.01262 6.33709 5.14328 6.48669C5.27393 6.63629 5.433 6.75845 5.61124 6.84609C5.78949 6.93372 5.98336 6.98508 6.18161 6.99719C6.37986 7.0093 6.57855 6.98191 6.76613 6.91662C8.45768 6.36108 10.2205 6.05224 12.0001 5.99962C13.7797 6.05279 15.5424 6.36162 17.2341 6.91662C17.4218 6.98189 17.6205 7.00923 17.8188 6.99706C18.0171 6.98488 18.211 6.93344 18.3893 6.8457C18.5675 6.75797 18.7266 6.6357 18.8572 6.486C18.9878 6.33629 19.0874 6.16213 19.1501 5.97362C19.4454 4.88973 20.0971 3.93686 21.0001 3.26862V7.16862C19.1213 7.46512 17.3346 8.18526 15.7753 9.27452C14.216 10.3638 12.925 11.7936 12.0001 13.4556C11.0751 11.7938 9.78408 10.3642 8.2248 9.27508C6.66551 8.186 4.87886 7.46601 3.00013 7.16962V3.26962C3.90316 3.93786 4.55485 4.89073 4.85013 5.97462ZM5.35713 15.6446C3.9185 14.2105 3.08062 12.2819 3.01413 10.2516C3.70715 10.4176 4.38336 10.6472 5.03413 10.9376C5.09447 11.5262 5.30902 12.0885 5.65613 12.5676C6.02478 13.0434 6.50361 13.4223 7.05133 13.6718C7.59905 13.9213 8.19924 14.0338 8.80013 13.9996C9.8165 15.5279 10.3868 17.3092 10.4471 19.1436C10.1281 19.3491 9.85287 19.6155 9.63713 19.9276L5.35713 15.6446ZM18.6441 15.6446L14.3601 19.9266C14.1444 19.6145 13.8691 19.3481 13.5501 19.1426C13.6115 17.3083 14.1829 15.5273 15.2001 13.9996C15.8014 14.0342 16.4021 13.922 16.9503 13.6727C17.4986 13.4234 17.978 13.0445 18.3471 12.5686C18.6942 12.0895 18.9088 11.5272 18.9691 10.9386C19.62 10.6484 20.2962 10.4188 20.9891 10.2526C20.9215 12.2827 20.0829 14.2108 18.6441 15.6446Z" fill="#708090"/>
</g>
<defs>
<clipPath id="clip0_9_6973">
<rect width="24" height="24" fill="white"/>
</clipPath>
</defs>
</svg>
