<svg width="24" height="24" viewBox="0 0 24 24" fill="none" xmlns="http://www.w3.org/2000/svg">
<g clip-path="url(#clip0_9_7072)">
<path d="M7.29298 2.09123L5.75298 3.63223L2.55998 0.439226C2.27707 0.165989 1.89817 0.014797 1.50488 0.0182147C1.11158 0.0216323 0.735362 0.179386 0.45725 0.457498C0.179138 0.73561 0.0213843 1.11183 0.0179667 1.50512C0.0145491 1.89842 0.165741 2.27732 0.438978 2.56023L3.63198 5.75323L2.09098 7.29323C1.95105 7.4332 1.8558 7.61155 1.8173 7.80568C1.77879 7.99982 1.79876 8.20102 1.87468 8.38381C1.9506 8.56659 2.07905 8.72273 2.24377 8.83246C2.40848 8.94219 2.60206 9.00058 2.79998 9.00023H7.56398C7.94483 9.00023 8.31008 8.84893 8.57938 8.57963C8.84869 8.31033 8.99998 7.94508 8.99998 7.56423V2.80023C9.00033 2.60231 8.94195 2.40873 8.83221 2.24401C8.72248 2.0793 8.56634 1.95085 8.38356 1.87493C8.20078 1.79901 7.99958 1.77904 7.80544 1.81754C7.6113 1.85605 7.43295 1.9513 7.29298 2.09123Z" fill="#708090"/>
<path d="M16.707 21.909L18.247 20.368L21.44 23.561C21.5783 23.7042 21.7438 23.8185 21.9269 23.8971C22.1099 23.9757 22.3067 24.0171 22.5059 24.0188C22.705 24.0206 22.9025 23.9826 23.0869 23.9072C23.2712 23.8318 23.4387 23.7204 23.5795 23.5795C23.7204 23.4387 23.8318 23.2712 23.9072 23.0869C23.9826 22.9025 24.0206 22.705 24.0188 22.5059C24.0171 22.3067 23.9757 22.1099 23.8971 21.9269C23.8185 21.7438 23.7042 21.5783 23.561 21.44L20.368 18.247L21.909 16.707C22.0489 16.567 22.1441 16.3886 22.1826 16.1945C22.2211 16.0004 22.2012 15.7992 22.1253 15.6164C22.0493 15.4336 21.9209 15.2775 21.7562 15.1677C21.5915 15.058 21.3979 14.9996 21.2 15H16.436C16.0551 15 15.6899 15.1513 15.4206 15.4206C15.1513 15.6899 15 16.0551 15 16.436V21.2C14.9996 21.3979 15.058 21.5915 15.1677 21.7562C15.2775 21.9209 15.4336 22.0493 15.6164 22.1253C15.7992 22.2012 16.0004 22.2211 16.1945 22.1826C16.3886 22.1441 16.567 22.0489 16.707 21.909Z" fill="#708090"/>
<path d="M2.09103 16.707L3.63203 18.247L0.43903 21.44C0.295765 21.5783 0.181492 21.7438 0.102878 21.9269C0.0242649 22.1099 -0.0171145 22.3067 -0.0188452 22.5059C-0.0205759 22.705 0.0173766 22.9025 0.092798 23.0869C0.168219 23.2712 0.279599 23.4387 0.420438 23.5795C0.561277 23.7204 0.728755 23.8318 0.9131 23.9072C1.09744 23.9826 1.29496 24.0206 1.49413 24.0188C1.6933 24.0171 1.89013 23.9757 2.07314 23.8971C2.25614 23.8185 2.42166 23.7042 2.56003 23.561L5.75303 20.368L7.29303 21.909C7.433 22.0489 7.61135 22.1441 7.80549 22.1826C7.99963 22.2211 8.20083 22.2012 8.38361 22.1253C8.56639 22.0493 8.72254 21.9209 8.83227 21.7562C8.942 21.5915 9.00038 21.3979 9.00003 21.2V16.436C9.00003 16.0551 8.84874 15.6899 8.57944 15.4206C8.31013 15.1513 7.94488 15 7.56403 15H2.80003C2.60211 14.9996 2.40854 15.058 2.24382 15.1677C2.0791 15.2775 1.95065 15.4336 1.87473 15.6164C1.79882 15.7992 1.77884 16.0004 1.81735 16.1945C1.85585 16.3886 1.9511 16.567 2.09103 16.707Z" fill="#708090"/>
<path d="M21.909 7.29292L20.368 5.75292L23.561 2.55992C23.7042 2.42155 23.8185 2.25603 23.8971 2.07303C23.9757 1.89002 24.0171 1.69319 24.0188 1.49402C24.0206 1.29485 23.9826 1.09733 23.9072 0.912989C23.8318 0.728644 23.7204 0.561166 23.5795 0.420327C23.4387 0.279488 23.2712 0.168109 23.0869 0.0926873C22.9025 0.017266 22.705 -0.0206865 22.5059 -0.0189558C22.3067 -0.0172251 22.1099 0.0241543 21.9269 0.102768C21.7438 0.181381 21.5783 0.295655 21.44 0.43892L18.247 3.63192L16.707 2.09092C16.567 1.95099 16.3886 1.85574 16.1945 1.81724C16.0004 1.77873 15.7992 1.79871 15.6164 1.87462C15.4336 1.95054 15.2775 2.07899 15.1677 2.24371C15.058 2.40842 14.9996 2.602 15 2.79992V7.56392C15 7.94477 15.1513 8.31002 15.4206 8.57933C15.6899 8.84863 16.0551 8.99992 16.436 8.99992H21.2C21.3979 9.00027 21.5915 8.94189 21.7562 8.83216C21.9209 8.72242 22.0493 8.56628 22.1253 8.3835C22.2012 8.20072 22.2211 7.99952 22.1826 7.80538C22.1441 7.61124 22.0489 7.43289 21.909 7.29292Z" fill="#708090"/>
</g>
<defs>
<clipPath id="clip0_9_7072">
<rect width="24" height="24" fill="white"/>
</clipPath>
</defs>
</svg>
