<svg width="24" height="24" viewBox="0 0 24 24" fill="none" xmlns="http://www.w3.org/2000/svg">
<g clip-path="url(#clip0_9_6911)">
<path d="M19.0838 9.034C17.2965 9.25862 15.5302 9.62647 13.8018 10.134C14.4918 8.062 16.3848 6.989 19.0018 6.989C19.2762 7.00925 19.5518 6.97267 19.8114 6.88155C20.071 6.79043 20.309 6.64672 20.5106 6.45942C20.7121 6.27212 20.8728 6.04525 20.9827 5.793C21.0925 5.54076 21.1492 5.26856 21.149 4.99342C21.1489 4.71829 21.092 4.44615 20.9819 4.19401C20.8718 3.94187 20.7108 3.71516 20.5091 3.52806C20.3074 3.34096 20.0692 3.1975 19.8095 3.10664C19.5498 3.01577 19.2742 2.97947 18.9998 3C15.6858 3 13.4998 5.7 13.4998 9V1.5C13.4998 1.10218 13.3418 0.720644 13.0605 0.43934C12.7792 0.158035 12.3976 0 11.9998 0C11.602 0 11.2204 0.158035 10.9391 0.43934C10.6578 0.720644 10.4998 1.10218 10.4998 1.5V9C10.4998 5.7 8.3138 3 4.9998 3C4.72835 2.98511 4.4567 3.02573 4.20147 3.11936C3.94624 3.213 3.71278 3.35769 3.51535 3.54459C3.31792 3.73149 3.16066 3.95668 3.0532 4.2064C2.94573 4.45612 2.8903 4.72513 2.8903 4.997C2.8903 5.26887 2.94573 5.53788 3.0532 5.7876C3.16066 6.03732 3.31792 6.26251 3.51535 6.44941C3.71278 6.63631 3.94624 6.781 4.20147 6.87464C4.4567 6.96827 4.72835 7.00888 4.9998 6.994C7.6148 6.994 9.5078 8.067 10.1998 10.139C8.47144 9.63147 6.70509 9.26362 4.9178 9.039C4.33203 8.96252 3.73665 9.01334 3.17232 9.18799C2.60798 9.36265 2.08798 9.65701 1.6478 10.051C1.11836 10.5356 0.697716 11.1271 0.413641 11.7862C0.129566 12.4454 -0.0114831 13.1573 -0.000196312 13.875C-0.000196312 23.27 5.4758 24 7.1538 24C8.35879 23.9386 9.5111 23.4869 10.4368 22.713C10.8717 22.314 11.4161 22.0542 11.9998 21.967C12.5838 22.0543 13.1284 22.3141 13.5638 22.713C14.4894 23.487 15.6418 23.9388 16.8468 24C18.5238 24 23.9998 23.27 23.9998 13.875C24.0121 13.1566 23.8717 12.4438 23.5879 11.7838C23.3042 11.1237 22.8835 10.5314 22.3538 10.046C21.9139 9.65167 21.3939 9.35709 20.8295 9.18242C20.2651 9.00775 19.6696 8.95712 19.0838 9.034ZM16.8468 21C16.2625 20.9127 15.7176 20.6529 15.2818 20.254C14.3564 19.4803 13.2044 19.0286 11.9998 18.967C10.7949 19.0289 9.64273 19.4805 8.7168 20.254C8.28187 20.653 7.73755 20.9128 7.1538 21C3.7208 21 2.9998 17.125 2.9998 13.875C2.98992 13.5823 3.0409 13.2908 3.14951 13.0188C3.25813 12.7468 3.42202 12.5004 3.6308 12.295C3.75281 12.1835 3.89783 12.1002 4.0556 12.0509C4.21337 12.0017 4.38004 11.9877 4.5438 12.01C6.89683 12.3005 9.20599 12.875 11.4208 13.721C11.6043 13.7972 11.8011 13.8365 11.9998 13.8365C12.1985 13.8365 12.3953 13.7972 12.5788 13.721C14.7939 12.8749 17.1034 12.3004 19.4568 12.01C19.6204 11.9876 19.787 12.0015 19.9446 12.0508C20.1022 12.1 20.2471 12.1834 20.3688 12.295C20.5776 12.5004 20.7415 12.7468 20.8501 13.0188C20.9587 13.2908 21.0097 13.5823 20.9998 13.875C20.9998 17.125 20.2788 21 16.8468 21Z" fill="#708090"/>
<path d="M17.83 14.5233C15.309 15.1003 12 16.1483 12 16.1483C14.009 16.3613 16.056 18.1993 17.114 18.4933C18.223 18.8013 18.641 17.6493 18.981 15.7683C19.02 15.6052 19.0183 15.4351 18.9759 15.2729C18.9335 15.1107 18.8518 14.9615 18.738 14.8384C18.6242 14.7153 18.4818 14.6221 18.3234 14.5672C18.1651 14.5122 17.9956 14.4971 17.83 14.5233Z" fill="#708090"/>
<path d="M5.01893 15.7683C5.35894 17.6493 5.77694 18.8013 6.88594 18.4933C7.94394 18.1993 9.98595 16.3613 11.9999 16.1483C11.9999 16.1483 8.69094 15.0963 6.16994 14.5233C6.00435 14.4971 5.83487 14.5122 5.6765 14.5672C5.51812 14.6221 5.37574 14.7153 5.26194 14.8384C5.14814 14.9615 5.06643 15.1107 5.02405 15.2729C4.98166 15.4351 4.97991 15.6052 5.01893 15.7683Z" fill="#708090"/>
</g>
<defs>
<clipPath id="clip0_9_6911">
<rect width="24" height="24" fill="white"/>
</clipPath>
</defs>
</svg>
