<svg width="24" height="24" viewBox="0 0 24 24" fill="none" xmlns="http://www.w3.org/2000/svg">
<g clip-path="url(#clip0_9_7039)">
<path d="M23.5612 21.4455L18.916 16.7984C22.3918 12.1536 21.444 5.57058 16.7993 2.09486C12.1545 -1.38086 5.5715 -0.433144 2.09578 4.21163C-1.37994 8.8564 -0.432228 15.4394 4.21255 18.9151C7.94361 21.7071 13.0682 21.7071 16.7993 18.9151L21.4464 23.5622C22.0304 24.1462 22.9772 24.1462 23.5611 23.5622C24.1451 22.9782 24.1451 22.0314 23.5611 21.4475L23.5612 21.4455ZM10.5446 18.0182C6.41658 18.0182 3.07017 14.6718 3.07017 10.5437C3.07017 6.41566 6.41658 3.06925 10.5446 3.06925C14.6727 3.06925 18.0191 6.41566 18.0191 10.5437C18.0147 14.6699 14.6709 18.0138 10.5446 18.0182Z" fill="#708090"/>
</g>
<defs>
<clipPath id="clip0_9_7039">
<rect width="24" height="24" fill="white"/>
</clipPath>
</defs>
</svg>
