<svg width="24" height="24" viewBox="0 0 24 24" fill="none" xmlns="http://www.w3.org/2000/svg">
<g clip-path="url(#clip0_9_7097)">
<path d="M23.9759 15.5001C23.9057 16.4132 23.6716 17.3061 23.2849 18.1361C23.1162 18.4964 22.8113 18.775 22.4372 18.9104C22.0632 19.0459 21.6507 19.0273 21.2904 18.8586C20.9301 18.6899 20.6515 18.385 20.516 18.011C20.3805 17.637 20.3992 17.2244 20.5679 16.8641C20.802 16.3602 20.9432 15.8182 20.9849 15.2641C21.0854 13.9474 20.6775 12.6421 19.8452 11.6169C19.0128 10.5916 17.8192 9.92427 16.5099 9.75212C16.1836 9.70876 15.8806 9.55926 15.6476 9.32668C15.4147 9.0941 15.2647 8.79136 15.2209 8.46512C15.1314 7.79079 14.9085 7.14104 14.5651 6.55384C14.2217 5.96663 13.7647 5.45374 13.2209 5.04512C12.668 4.62863 12.0376 4.3267 11.3665 4.15704C10.6954 3.98739 9.99723 3.95342 9.31286 4.05712C8.27053 4.21396 7.30335 4.69289 6.5468 5.42685C5.79025 6.16081 5.28222 7.11302 5.09386 8.15012C4.87359 9.2702 5.0341 10.4318 5.54986 11.4501C5.85923 12.0296 5.92644 12.7081 5.73678 13.3371C5.54712 13.966 5.11603 14.4942 4.53786 14.8061C3.97275 15.088 3.52124 15.5549 3.2585 16.1291C2.99576 16.7033 2.93766 17.3503 3.09386 17.9621C3.28641 18.5682 3.67122 19.095 4.18999 19.4627C4.70877 19.8304 5.33325 20.0191 5.96886 20.0001H8.49986C8.89769 20.0001 9.27922 20.1582 9.56052 20.4395C9.84183 20.7208 9.99986 21.1023 9.99986 21.5001C9.99986 21.8979 9.84183 22.2795 9.56052 22.5608C9.27922 22.8421 8.89769 23.0001 8.49986 23.0001H5.96886C4.66804 23.0255 3.39548 22.6191 2.35009 21.8446C1.30469 21.07 0.54539 19.971 0.190862 18.7191C-0.111281 17.5396 -0.032115 16.2946 0.417007 15.1628C0.866129 14.031 1.66213 13.0706 2.69086 12.4191C1.95799 10.7721 1.79396 8.92806 2.22461 7.17755C2.65527 5.42704 3.65613 3.86958 5.0695 2.75058C6.48286 1.63157 8.22837 1.01465 10.031 0.997002C11.8336 0.979358 13.5909 1.562 15.0259 2.65312C16.4565 3.73862 17.4921 5.26309 17.9739 6.99312C19.8085 7.49011 21.4121 8.61196 22.5078 10.1651C23.6036 11.7182 24.1228 13.6051 23.9759 15.5001ZM18.5629 19.0001H16.9999V14.5001C16.9999 14.1023 16.8418 13.7208 16.5605 13.4395C16.2792 13.1582 15.8977 13.0001 15.4999 13.0001C15.102 13.0001 14.7205 13.1582 14.4392 13.4395C14.1579 13.7208 13.9999 14.1023 13.9999 14.5001V19.0001H12.4369C12.2453 18.9999 12.0579 19.0566 11.8985 19.1629C11.7391 19.2693 11.6149 19.4205 11.5416 19.5975C11.4682 19.7746 11.449 19.9693 11.4865 20.1573C11.5239 20.3452 11.6163 20.5177 11.7519 20.6531L14.8149 23.7161C14.9047 23.8063 15.0115 23.8778 15.129 23.9266C15.2466 23.9755 15.3726 24.0006 15.4999 24.0006C15.6271 24.0006 15.7532 23.9755 15.8707 23.9266C15.9883 23.8778 16.095 23.8063 16.1849 23.7161L19.2479 20.6531C19.3834 20.5177 19.4758 20.3452 19.5132 20.1573C19.5507 19.9693 19.5315 19.7746 19.4582 19.5975C19.3848 19.4205 19.2606 19.2693 19.1012 19.1629C18.9418 19.0566 18.7545 18.9999 18.5629 19.0001Z" fill="#708090"/>
</g>
<defs>
<clipPath id="clip0_9_7097">
<rect width="24" height="24" fill="white"/>
</clipPath>
</defs>
</svg>
