<svg width="24" height="24" viewBox="0 0 24 24" fill="none" xmlns="http://www.w3.org/2000/svg">
<g clip-path="url(#clip0_9_7260)">
<path d="M17.561 10.5612L16.121 12.0002L17.561 13.4392C17.8424 13.7205 18.0004 14.1022 18.0004 14.5002C18.0004 14.8981 17.8424 15.2798 17.561 15.5612C17.2796 15.8425 16.8979 16.0006 16.5 16.0006C16.102 16.0006 15.7204 15.8425 15.439 15.5612L14 14.1212L12.561 15.5612C12.2796 15.8425 11.8979 16.0006 11.5 16.0006C11.102 16.0006 10.7204 15.8425 10.439 15.5612C10.1576 15.2798 9.99948 14.8981 9.99948 14.5002C9.99948 14.3031 10.0383 14.108 10.1137 13.9259C10.1891 13.7439 10.2996 13.5785 10.439 13.4392L11.879 12.0002L10.439 10.5612C10.1576 10.2798 9.99948 9.8981 9.99948 9.50015C9.99948 9.1022 10.1576 8.72055 10.439 8.43915C10.7204 8.15776 11.102 7.99967 11.5 7.99967C11.8979 7.99967 12.2796 8.15776 12.561 8.43915L14 9.87915L15.439 8.43915C15.7204 8.15776 16.102 7.99967 16.5 7.99967C16.8979 7.99967 17.2796 8.15776 17.561 8.43915C17.8424 8.72055 18.0004 9.1022 18.0004 9.50015C18.0004 9.8981 17.8424 10.2798 17.561 10.5612ZM24 7.00015V17.0002C23.9984 18.3257 23.4711 19.5966 22.5337 20.5339C21.5964 21.4713 20.3256 21.9986 19 22.0002H9.97696C9.13207 21.9977 8.29895 21.8019 7.54146 21.4277C6.78397 21.0534 6.12222 20.5107 5.60696 19.8412L0.306956 12.9112C0.106975 12.6496 -0.00137329 12.3294 -0.00137329 12.0002C-0.00137329 11.6709 0.106975 11.3507 0.306956 11.0892L5.60696 4.15915C6.12222 3.48957 6.78397 2.94686 7.54146 2.57262C8.29895 2.19838 9.13207 2.00256 9.97696 2.00015H19C20.3256 2.00174 21.5964 2.52903 22.5337 3.46637C23.4711 4.40371 23.9984 5.67456 24 7.00015ZM21 7.00015C21 6.46972 20.7892 5.96101 20.4142 5.58594C20.0391 5.21087 19.5304 5.00015 19 5.00015H9.97696C9.59287 5.0013 9.21414 5.09029 8.86974 5.26032C8.52534 5.43035 8.2244 5.67692 7.98996 5.98115L3.38896 12.0002L7.98896 18.0192C8.22351 18.3235 8.5246 18.5702 8.86919 18.7402C9.21377 18.9102 9.5927 18.9992 9.97696 19.0002H19C19.5304 19.0002 20.0391 18.7894 20.4142 18.4144C20.7892 18.0393 21 17.5306 21 17.0002V7.00015Z" fill="#708090"/>
</g>
<defs>
<clipPath id="clip0_9_7260">
<rect width="24" height="24" fill="white"/>
</clipPath>
</defs>
</svg>
