<svg width="24" height="24" viewBox="0 0 24 24" fill="none" xmlns="http://www.w3.org/2000/svg">
<path d="M16.5 0H7.50001C4.46383 0.00332812 2.00331 2.4638 2.00003 5.49998V18.5C2.00331 21.5362 4.46383 23.9967 7.50001 24H16.5C19.5362 23.9967 21.9967 21.5362 22 18.5V5.49998C21.9967 2.4638 19.5362 0.00332812 16.5 0ZM7.50001 3H16.5C17.8807 3 19 4.11928 19 5.49998V11H5.00003V5.49998C5.00003 4.11928 6.11931 3 7.50001 3ZM16.5 21H7.50001C6.11931 21 5.00003 19.8807 5.00003 18.5V14H19V18.5C19 19.8807 17.8807 21 16.5 21Z" fill="#708090"/>
<path d="M11.5 6H12.4999C13.3284 6 13.9999 6.67158 13.9999 7.5C13.9999 8.32842 13.3284 9 12.4999 9H11.5C10.6715 9 9.99997 8.32842 9.99997 7.5C9.99997 6.67158 10.6715 6 11.5 6Z" fill="#708090"/>
<path d="M11.5 16H12.4999C13.3284 16 13.9999 16.6716 13.9999 17.5C13.9999 18.3284 13.3284 19 12.4999 19H11.5C10.6715 19 9.99997 18.3284 9.99997 17.5C9.99997 16.6716 10.6715 16 11.5 16Z" fill="#708090"/>
</svg>
