<svg width="24" height="24" viewBox="0 0 24 24" fill="none" xmlns="http://www.w3.org/2000/svg">
<g clip-path="url(#clip0_9_6853)">
<path d="M11.16 11.6936L10.443 10.9476C10.1673 10.6611 9.78919 10.4957 9.39166 10.4878C8.99414 10.48 8.60975 10.6302 8.32297 10.9056C8.18094 11.0421 8.06718 11.2053 7.9882 11.3858C7.90922 11.5662 7.86657 11.7605 7.86267 11.9574C7.85877 12.1544 7.8937 12.3502 7.96547 12.5336C8.03725 12.7171 8.14445 12.8846 8.28097 13.0266L9.43997 14.2326C9.65577 14.4611 9.91497 14.6442 10.2024 14.7713C10.4899 14.8984 10.7998 14.9668 11.114 14.9726H11.151C11.7739 14.9708 12.371 14.7237 12.813 14.2846L16.774 10.3226C17.0552 10.0414 17.2131 9.65989 17.2131 9.26214C17.2131 8.8644 17.0552 8.48293 16.774 8.20164C16.6347 8.06225 16.4693 7.95168 16.2872 7.87624C16.1052 7.80079 15.91 7.76196 15.713 7.76196C15.5159 7.76196 15.3208 7.80079 15.1387 7.87624C14.9567 7.95168 14.7913 8.06225 14.652 8.20164L11.16 11.6936Z" fill="#708090"/>
<path d="M12 23.9991C11.7903 23.9992 11.5828 23.9552 11.391 23.8701C11 23.6991 1.90904 19.5681 1.90904 11.9991V7.24613C1.90779 6.09141 2.27054 4.96568 2.94572 4.02893C3.62091 3.09218 4.57418 2.39208 5.67004 2.02813L11.525 0.0761297C11.8335 -0.0258649 12.1666 -0.0258649 12.475 0.0761297L18.33 2.02813C19.4258 2.39221 20.379 3.09235 21.0542 4.02907C21.7293 4.96579 22.0921 6.09145 22.091 7.24613V11.9991C22.091 20.6171 12.867 23.7911 12.475 23.9221C12.3219 23.9734 12.1615 23.9994 12 23.9991ZM12 3.08013L6.61904 4.87413C6.1211 5.03998 5.68799 5.35832 5.38108 5.78405C5.07416 6.20978 4.90902 6.7213 4.90904 7.24613V11.9991C4.90904 16.7341 10.33 19.9511 12.077 20.8641C13.834 20.1311 19.091 17.4811 19.091 11.9991V7.24613C19.0911 6.7213 18.9259 6.20978 18.619 5.78405C18.3121 5.35832 17.879 5.03998 17.381 4.87413L12 3.08013Z" fill="#708090"/>
</g>
<defs>
<clipPath id="clip0_9_6853">
<rect width="24" height="24" fill="white"/>
</clipPath>
</defs>
</svg>
