<svg width="24" height="24" viewBox="0 0 24 24" fill="none" xmlns="http://www.w3.org/2000/svg">
<g clip-path="url(#clip0_9_7019)">
<path d="M17.7349 21.016H13.4999V4.543L16.6849 7.728C16.9663 8.00926 17.3479 8.16722 17.7457 8.16713C17.9427 8.16708 18.1378 8.12823 18.3198 8.0528C18.5018 7.97737 18.6671 7.86683 18.8064 7.7275C18.9456 7.58817 19.0561 7.42277 19.1314 7.24075C19.2068 7.05873 19.2455 6.86365 19.2455 6.66665C19.2455 6.46965 19.2066 6.27459 19.1312 6.0926C19.0557 5.91062 18.9452 5.74527 18.8059 5.606L14.0749 0.876006C13.5165 0.341495 12.7733 0.0431366 12.0004 0.0431366C11.2274 0.0431366 10.4842 0.341495 9.92587 0.876006L5.19387 5.606C4.91247 5.88726 4.75434 6.26879 4.75424 6.66665C4.75415 7.06451 4.91211 7.44611 5.19337 7.7275C5.47463 8.00889 5.85616 8.16703 6.25402 8.16713C6.65187 8.16722 7.03347 8.00926 7.31487 7.728L10.4999 4.479V21.016H6.26487C5.86704 21.016 5.48551 21.174 5.20421 21.4553C4.9229 21.7366 4.76487 22.1182 4.76487 22.516C4.76487 22.9138 4.9229 23.2953 5.20421 23.5766C5.48551 23.858 5.86704 24.016 6.26487 24.016H17.7349C18.1327 24.016 18.5142 23.858 18.7955 23.5766C19.0768 23.2953 19.2349 22.9138 19.2349 22.516C19.2349 22.1182 19.0768 21.7366 18.7955 21.4553C18.5142 21.174 18.1327 21.016 17.7349 21.016Z" fill="#708090"/>
</g>
<defs>
<clipPath id="clip0_9_7019">
<rect width="24" height="24" fill="white"/>
</clipPath>
</defs>
</svg>
