<svg width="24" height="24" viewBox="0 0 24 24" fill="none" xmlns="http://www.w3.org/2000/svg">
<g clip-path="url(#clip0_9_7112)">
<path d="M8.09385 1.32807C7.96935 1.07872 7.77783 0.868991 7.54079 0.722404C7.30375 0.575817 7.03056 0.498169 6.75185 0.498169C6.47315 0.498169 6.19996 0.575817 5.96291 0.722404C5.72587 0.868991 5.53436 1.07872 5.40985 1.32807L0.159853 11.8281C0.045528 12.0566 -0.00849979 12.3106 0.00289592 12.566C0.0142916 12.8213 0.090733 13.0694 0.224967 13.2869C0.359202 13.5044 0.546777 13.684 0.769898 13.8086C0.993018 13.9332 1.24428 13.9988 1.49985 13.9991C1.77846 13.9992 2.05159 13.9216 2.28862 13.7752C2.52565 13.6288 2.71722 13.4192 2.84185 13.1701L3.42885 11.9991H10.0749L10.6599 13.1701C10.7843 13.4189 10.9756 13.6283 11.2122 13.7747C11.4489 13.9211 11.7216 13.9988 11.9999 13.9991C12.2556 13.9991 12.5071 13.9338 12.7305 13.8093C12.9539 13.6848 13.1417 13.5053 13.2762 13.2878C13.4107 13.0702 13.4873 12.8219 13.4988 12.5665C13.5103 12.311 13.4563 12.0568 13.3419 11.8281L8.09385 1.32807ZM4.92885 8.99907L6.75185 5.35307L8.57485 8.99907H4.92885Z" fill="#708090"/>
<path d="M13.0001 23.5001C12.8031 23.5002 12.608 23.4615 12.4259 23.3862C12.2439 23.3108 12.0785 23.2004 11.9391 23.0611L6.93911 18.0611C6.65772 17.7797 6.49963 17.3981 6.49963 17.0001C6.49963 16.6022 6.65772 16.2205 6.93911 15.9391C7.22051 15.6577 7.60216 15.4996 8.00011 15.4996C8.39806 15.4996 8.77972 15.6577 9.06111 15.9391L13.0001 19.8791L21.4391 11.4391C21.7205 11.1577 22.1021 10.9996 22.5001 10.9996C22.898 10.9996 23.2797 11.1577 23.5611 11.4391C23.8425 11.7205 24.0006 12.1022 24.0006 12.5001C24.0006 12.8981 23.8425 13.2797 23.5611 13.5611L14.0611 23.0611C13.9217 23.2004 13.7563 23.3108 13.5743 23.3862C13.3922 23.4615 13.1971 23.5002 13.0001 23.5001Z" fill="#708090"/>
</g>
<defs>
<clipPath id="clip0_9_7112">
<rect width="24" height="24" fill="white"/>
</clipPath>
</defs>
</svg>
