<svg width="24" height="24" viewBox="0 0 24 24" fill="none" xmlns="http://www.w3.org/2000/svg">
<g clip-path="url(#clip0_9_6891)">
<path d="M20.7001 14.0252C20.0336 13.3901 19.1483 13.0358 18.2276 13.0358C17.3069 13.0358 16.4216 13.3901 15.7551 14.0252L15.3441 14.4252C12.7885 13.2598 10.7426 11.2068 9.58611 8.64719L9.9741 8.25319C10.6187 7.60099 10.9834 6.72306 10.9907 5.80611C10.998 4.88916 10.6472 4.00554 10.0131 3.34319L7.8611 1.02519C7.20193 0.39532 6.32742 0.0404326 5.41573 0.032815C4.50403 0.0251974 3.62372 0.365422 2.95411 0.984188L1.93711 1.86819C1.91111 1.89119 1.88611 1.91419 1.86211 1.93819C-6.0379 10.2082 13.7851 30.0382 22.0621 22.1382C22.0851 22.1132 22.1081 22.0892 22.1311 22.0632L23.0161 21.0472C23.6567 20.3782 24.0074 19.4834 23.992 18.5573C23.9766 17.6312 23.5965 16.7486 22.9341 16.1012L20.7001 14.0252ZM20.8561 18.9672C20.8321 18.9912 20.8081 19.0172 20.7851 19.0422L19.9081 20.0502C14.6541 24.7732 -0.909895 10.1272 3.94911 4.10019L4.9571 3.22319C4.9831 3.19919 5.0091 3.17619 5.0331 3.15119C5.11838 3.06065 5.23501 3.00609 5.35917 2.99866C5.48332 2.99122 5.60563 3.03147 5.70111 3.11119L7.85311 5.42419C7.90242 5.47026 7.94158 5.52612 7.96807 5.5882C7.99457 5.65027 8.00782 5.71719 8.00697 5.78468C8.00612 5.85216 7.9912 5.91873 7.96316 5.98012C7.93511 6.04151 7.89456 6.09637 7.8441 6.14119L6.7361 7.26719C6.53175 7.47521 6.39245 7.73828 6.33526 8.02422C6.27808 8.31016 6.30547 8.60657 6.4141 8.87719C7.15912 10.8722 8.32445 12.6837 9.83106 14.1887C11.3377 15.6938 13.1503 16.8572 15.1461 17.6002C15.4145 17.7025 15.7066 17.7256 15.9878 17.6668C16.2689 17.6079 16.5273 17.4696 16.7321 17.2682L17.8591 16.1592L17.8691 16.1502C18.1471 15.9372 18.3191 15.9402 18.6161 16.1902L20.8531 18.2642C20.9456 18.3578 20.9975 18.4841 20.9975 18.6157C20.9975 18.7473 20.9456 18.8736 20.8531 18.9672H20.8561ZM23.5601 6.43919C23.8415 6.72045 23.9996 7.10198 23.9997 7.49984C23.9998 7.89769 23.8419 8.27929 23.5606 8.56069C23.2793 8.84208 22.8978 9.00022 22.5 9.00031C22.1021 9.00041 21.7205 8.84245 21.4391 8.56119L19.5001 6.62119L17.5601 8.56119C17.2787 8.84245 16.8971 9.00041 16.4993 9.00031C16.1014 9.00022 15.7199 8.84208 15.4386 8.56069C15.1573 8.27929 14.9994 7.89769 14.9995 7.49984C14.9996 7.10198 15.1577 6.72045 15.4391 6.43919L17.3781 4.50019L15.4391 2.56119C15.1577 2.27993 14.9996 1.8984 14.9995 1.50054C14.9994 1.10268 15.1573 0.721083 15.4386 0.439688C15.7199 0.158293 16.1014 0.000154883 16.4993 6.11085e-05C16.8971 -3.26656e-05 17.2787 0.157926 17.5601 0.439188L19.5001 2.37919L21.4391 0.439188C21.7205 0.157926 22.1021 -3.26913e-05 22.5 6.10769e-05C22.8978 0.000154845 23.2793 0.158293 23.5606 0.439688C23.8419 0.721083 23.9998 1.10268 23.9997 1.50054C23.9996 1.8984 23.8415 2.27993 23.5601 2.56119L21.6211 4.50019L23.5601 6.43919Z" fill="#708090"/>
</g>
<defs>
<clipPath id="clip0_9_6891">
<rect width="24" height="24" fill="white"/>
</clipPath>
</defs>
</svg>
