<svg width="24" height="24" viewBox="0 0 24 24" fill="none" xmlns="http://www.w3.org/2000/svg">
<g clip-path="url(#clip0_9_7138)">
<path d="M3.44797 20.0712C3.76028 20.6537 4.22462 21.1407 4.7916 21.4803C5.35859 21.82 6.00703 21.9997 6.66797 22.0002H10.5V22.5002C10.5 22.898 10.658 23.2796 10.9393 23.5609C11.2206 23.8422 11.6021 24.0002 12 24.0002C12.3978 24.0002 12.7793 23.8422 13.0606 23.5609C13.3419 23.2796 13.5 22.898 13.5 22.5002V22.0002H17.332C17.993 21.9996 18.6415 21.8198 19.2085 21.4799C19.7755 21.1401 20.2398 20.6529 20.552 20.0702C20.8697 19.4808 21.0221 18.8163 20.9928 18.1473C20.9636 17.4783 20.7539 16.8297 20.386 16.2702L19.261 14.5602C19.4331 14.384 19.5796 14.1843 19.696 13.9672C19.9245 13.5444 20.0342 13.0676 20.0134 12.5874C19.9926 12.1073 19.8422 11.6417 19.578 11.2402L17.847 8.60621C17.9257 8.50319 17.9962 8.3942 18.058 8.28021C18.2876 7.86213 18.4007 7.39004 18.3854 6.9133C18.3701 6.43656 18.2269 5.97269 17.971 5.57021C17.9339 5.51378 17.8938 5.45937 17.851 5.40721L14.052 0.915205C14.028 0.888205 14 0.861205 13.979 0.836205C13.4506 0.317924 12.7401 0.0275879 12 0.0275879C11.2599 0.0275879 10.5493 0.317924 10.021 0.836205C9.99697 0.860205 9.97297 0.886205 9.95097 0.912205L6.13497 5.40021C6.09235 5.45162 6.05262 5.50537 6.01597 5.5612C5.7579 5.96319 5.61289 6.42727 5.59617 6.90467C5.57945 7.38207 5.69165 7.85516 5.92097 8.27421C5.98635 8.39466 6.06126 8.50969 6.14497 8.61821L4.42197 11.2372C4.15716 11.6383 4.00598 12.1037 3.98449 12.5839C3.96301 13.064 4.07204 13.541 4.29997 13.9642C4.41638 14.1813 4.56282 14.381 4.73497 14.5572L3.60997 16.2672C3.24189 16.8275 3.03247 17.4771 3.00394 18.1468C2.97542 18.8166 3.12886 19.4816 3.44797 20.0712ZM6.11997 17.9152L8.25097 14.6752C8.38717 14.468 8.46986 14.2302 8.49167 13.9832C8.51347 13.7362 8.4737 13.4877 8.37592 13.2598C8.27813 13.0319 8.12538 12.8319 7.93133 12.6775C7.73729 12.5231 7.50799 12.4193 7.26397 12.3752L9.49997 8.97421C9.61575 8.79458 9.69197 8.59237 9.72358 8.38102C9.75518 8.16966 9.74144 7.954 9.68327 7.74837C9.62509 7.54273 9.52382 7.35183 9.38619 7.18835C9.24855 7.02487 9.07769 6.89256 8.88497 6.80021L12 3.13521L15.1 6.80021C14.9077 6.8932 14.7374 7.02619 14.6007 7.19029C14.4639 7.35438 14.3638 7.54579 14.307 7.75171C14.2502 7.95763 14.238 8.17331 14.2713 8.38431C14.3046 8.59531 14.3825 8.79677 14.5 8.97521L16.737 12.3752C16.493 12.4193 16.2637 12.5231 16.0696 12.6775C15.8756 12.8319 15.7228 13.0319 15.625 13.2598C15.5272 13.4877 15.4875 13.7362 15.5093 13.9832C15.5311 14.2302 15.6138 14.468 15.75 14.6752L17.882 17.9152C17.9543 18.0224 17.9954 18.1476 18.0009 18.2768C18.0064 18.406 17.9759 18.5342 17.913 18.6472C17.8593 18.7545 17.7765 18.8445 17.6742 18.9071C17.5718 18.9697 17.4539 19.0023 17.334 19.0012H6.66797C6.54801 19.0023 6.43014 18.9697 6.32778 18.9071C6.22543 18.8445 6.14269 18.7545 6.08897 18.6472C6.02602 18.5342 5.99559 18.406 6.00106 18.2768C6.00653 18.1476 6.04769 18.0224 6.11997 17.9152Z" fill="#708090"/>
<path d="M11.5001 17.0006C12.3285 17.0006 13.0001 16.329 13.0001 15.5006C13.0001 14.6722 12.3285 14.0006 11.5001 14.0006C10.6716 14.0006 10.0001 14.6722 10.0001 15.5006C10.0001 16.329 10.6716 17.0006 11.5001 17.0006Z" fill="#708090"/>
<path d="M12.4999 12C13.3284 12 13.9999 11.3284 13.9999 10.5C13.9999 9.67157 13.3284 9 12.4999 9C11.6715 9 10.9999 9.67157 10.9999 10.5C10.9999 11.3284 11.6715 12 12.4999 12Z" fill="#708090"/>
</g>
<defs>
<clipPath id="clip0_9_7138">
<rect width="24" height="24" fill="white"/>
</clipPath>
</defs>
</svg>
