<svg width="24" height="24" viewBox="0 0 24 24" fill="none" xmlns="http://www.w3.org/2000/svg">
<g clip-path="url(#clip0_9_6855)">
<path d="M12.7498 7.00085C11.4463 7.06559 10.4404 8.17208 10.4998 9.47586C10.5593 8.17208 9.55337 7.06559 8.24982 7.00085C6.94627 7.06559 5.94038 8.17208 5.99982 9.47586C5.99982 11.4229 8.53782 13.7409 9.79983 14.7559C10.2085 15.085 10.7912 15.085 11.1999 14.7559C12.4638 13.7409 14.9998 11.4229 14.9998 9.47586C15.0593 8.17208 14.0534 7.06559 12.7498 7.00085Z" fill="#708090"/>
<path d="M23.562 21.4384L18.9193 16.7946C22.3931 12.1528 21.4463 5.57383 16.8046 2.09993C12.1628 -1.37398 5.58379 -0.42715 2.10993 4.21465C-1.36392 8.85644 -0.41719 15.4354 4.22461 18.9093C7.95361 21.7001 13.0756 21.7001 16.8046 18.9093L21.4484 23.5541C22.032 24.1377 22.9784 24.1377 23.562 23.5541C24.1457 22.9704 24.1457 22.0241 23.562 21.4404V21.4384ZM3.08151 10.5422C3.08151 6.41627 6.42623 3.07155 10.5522 3.07155C14.6781 3.07155 18.0228 6.41627 18.0228 10.5422C18.0228 14.6681 14.6781 18.0129 10.5522 18.0129C6.42806 18.0085 3.08592 14.6663 3.08151 10.5422Z" fill="#708090"/>
</g>
<defs>
<clipPath id="clip0_9_6855">
<rect width="24" height="24" fill="white"/>
</clipPath>
</defs>
</svg>
