<svg width="24" height="24" viewBox="0 0 24 24" fill="none" xmlns="http://www.w3.org/2000/svg">
<g clip-path="url(#clip0_9_7101)">
<path d="M12 0C9.62663 0 7.30655 0.703788 5.33316 2.02236C3.35977 3.34094 1.8217 5.21509 0.913451 7.4078C0.00519943 9.60051 -0.232441 12.0133 0.230582 14.3411C0.693605 16.6689 1.83649 18.8071 3.51472 20.4853C5.19295 22.1635 7.33115 23.3064 9.65892 23.7694C11.9867 24.2324 14.3995 23.9948 16.5922 23.0866C18.7849 22.1783 20.6591 20.6402 21.9776 18.6668C23.2962 16.6935 24 14.3734 24 12C23.9966 8.81846 22.7312 5.76821 20.4815 3.51852C18.2318 1.26883 15.1815 0.00344108 12 0V0ZM12 21C10.22 21 8.47992 20.4722 6.99987 19.4832C5.51983 18.4943 4.36628 17.0887 3.68509 15.4442C3.0039 13.7996 2.82567 11.99 3.17294 10.2442C3.5202 8.49836 4.37737 6.89471 5.63604 5.63604C6.89472 4.37737 8.49836 3.5202 10.2442 3.17293C11.99 2.82567 13.7996 3.0039 15.4442 3.68508C17.0887 4.36627 18.4943 5.51983 19.4832 6.99987C20.4722 8.47991 21 10.22 21 12C20.9974 14.3861 20.0483 16.6738 18.361 18.361C16.6738 20.0483 14.3861 20.9974 12 21Z" fill="#708090"/>
<path d="M10.5 11.0549L8.09997 12.5549C7.93295 12.6595 7.78818 12.7959 7.67391 12.9564C7.55965 13.117 7.47813 13.2984 7.43402 13.4905C7.38991 13.6825 7.38407 13.8814 7.41683 14.0757C7.44959 14.27 7.52032 14.4559 7.62497 14.6229C7.72953 14.7899 7.86598 14.9347 8.02651 15.049C8.18704 15.1632 8.36851 15.2447 8.56056 15.2888C8.7526 15.333 8.95146 15.3388 9.14576 15.306C9.34006 15.2733 9.52601 15.2025 9.69297 15.0979L12.562 13.2979C12.8498 13.1175 13.087 12.8668 13.2511 12.5694C13.4152 12.2719 13.5009 11.9376 13.5 11.5979V7.77191C13.5 7.37409 13.3419 6.99256 13.0606 6.71125C12.7793 6.42995 12.3978 6.27191 12 6.27191C11.6021 6.27191 11.2206 6.42995 10.9393 6.71125C10.658 6.99256 10.5 7.37409 10.5 7.77191V11.0549Z" fill="#708090"/>
</g>
<defs>
<clipPath id="clip0_9_7101">
<rect width="24" height="24" fill="white"/>
</clipPath>
</defs>
</svg>
