<svg width="24" height="24" viewBox="0 0 24 24" fill="none" xmlns="http://www.w3.org/2000/svg">
<g clip-path="url(#clip0_9_6862)">
<path d="M12.0001 23.9993C11.2987 24.0007 10.604 23.8636 9.95581 23.5957C9.30763 23.3278 8.71877 22.9345 8.22305 22.4383L1.56505 15.7763C1.06887 15.2804 0.675268 14.6916 0.406722 14.0435C0.138176 13.3955 -4.57764e-05 12.7008 -4.57764e-05 11.9993C-4.57764e-05 11.2978 0.138176 10.6032 0.406722 9.95512C0.675268 9.30704 1.06887 8.71824 1.56505 8.22233L8.22305 1.56333C9.22575 0.563447 10.584 0.00195312 12.0001 0.00195312C13.4161 0.00195313 14.7744 0.563447 15.7771 1.56333L22.4351 8.22233C22.9312 8.71824 23.3248 9.30704 23.5934 9.95512C23.8619 10.6032 24.0002 11.2978 24.0002 11.9993C24.0002 12.7008 23.8619 13.3955 23.5934 14.0435C23.3248 14.6916 22.9312 15.2804 22.4351 15.7763L15.7771 22.4353C15.2816 22.932 14.6928 23.3259 14.0447 23.5943C13.3965 23.8627 12.7016 24.0004 12.0001 23.9993ZM10.3441 20.3163C10.7837 20.7548 11.3792 21.001 12.0001 21.001C12.6209 21.001 13.2165 20.7548 13.6561 20.3163L20.3141 13.6583C20.7532 13.2191 21 12.6234 21 12.0023C21 11.3812 20.7532 10.7855 20.3141 10.3463L13.6561 3.68533C13.2165 3.24688 12.6209 3.00066 12.0001 3.00066C11.3792 3.00066 10.7837 3.24688 10.3441 3.68533L3.68605 10.3433C3.24687 10.7825 3.00014 11.3782 3.00014 11.9993C3.00014 12.6204 3.24687 13.2161 3.68605 13.6553L10.3441 20.3163Z" fill="#708090"/>
</g>
<defs>
<clipPath id="clip0_9_6862">
<rect width="24" height="24" fill="white"/>
</clipPath>
</defs>
</svg>
