<svg width="24" height="24" viewBox="0 0 24 24" fill="none" xmlns="http://www.w3.org/2000/svg">
<g clip-path="url(#clip0_9_6812)">
<path d="M23.561 4.4385L19.561 0.438504C19.4217 0.299172 19.2563 0.188647 19.0742 0.113241C18.8922 0.0378345 18.697 -0.000976562 18.5 -0.000976562C18.102 -0.000976562 17.7204 0.157109 17.439 0.438504C17.1576 0.719899 16.9995 1.10155 16.9995 1.4995C16.9995 1.89746 17.1576 2.27911 17.439 2.5605L18.379 3.4995L17.04 4.8385C15.9907 4.17784 14.7477 3.89422 13.5157 4.03436C12.2837 4.1745 11.1361 4.73005 10.262 5.6095L5.18 10.6825C4.48213 11.3771 3.92883 12.2031 3.55207 13.1128C3.17532 14.0225 2.98258 14.9979 2.985 15.9825V18.8825L0.437 21.4415C0.294098 21.5802 0.18025 21.746 0.102098 21.9292C0.0239466 22.1124 -0.0169446 22.3093 -0.0181897 22.5084C-0.0194348 22.7076 0.0189912 22.905 0.0948466 23.0891C0.170702 23.2733 0.282468 23.4405 0.423624 23.581C0.56478 23.7215 0.732501 23.8324 0.917001 23.9074C1.1015 23.9824 1.29909 24.0199 1.49823 24.0177C1.69737 24.0155 1.89409 23.9737 2.0769 23.8947C2.25971 23.8157 2.42496 23.7011 2.563 23.5575L5.109 20.9995H8C8.98509 21.002 9.96088 20.8089 10.8707 20.4312C11.7805 20.0535 12.6063 19.4989 13.3 18.7995L18.382 13.7265C19.2535 12.8503 19.8045 11.7061 19.9462 10.4785C20.0879 9.2508 19.812 8.01119 19.163 6.9595L20.5 5.6205L21.439 6.5605C21.7204 6.8419 22.102 6.99998 22.5 6.99998C22.898 6.99998 23.2796 6.8419 23.561 6.5605C23.8424 6.27911 24.0005 5.89746 24.0005 5.4995C24.0005 5.10155 23.8424 4.7199 23.561 4.4385ZM16.255 11.6095L11.173 16.6825C10.7573 17.1007 10.2629 17.4324 9.71827 17.6585C9.17366 17.8845 8.58966 18.0004 8 17.9995H5.985V15.9845C5.9894 15.4435 6.09102 14.9076 6.285 14.4025L7.442 15.5605C7.58133 15.6998 7.74674 15.8104 7.92879 15.8858C8.11084 15.9612 8.30595 16 8.503 16C8.70005 16 8.89516 15.9612 9.07721 15.8858C9.25926 15.8104 9.42467 15.6998 9.564 15.5605C9.70333 15.4212 9.81386 15.2558 9.88926 15.0737C9.96467 14.8917 10.0035 14.6966 10.0035 14.4995C10.0035 14.3025 9.96467 14.1073 9.88926 13.9253C9.81386 13.7432 9.70333 13.5778 9.564 13.4385L8.114 11.9915L9.994 10.1145L11.439 11.5605C11.7204 11.8419 12.102 12 12.5 12C12.898 12 13.2796 11.8419 13.561 11.5605C13.8424 11.2791 14.0005 10.8975 14.0005 10.4995C14.0005 10.1016 13.8424 9.7199 13.561 9.4385L12.117 7.9995L12.382 7.7345C12.8573 7.28062 13.4893 7.02736 14.1465 7.02736C14.8037 7.02736 15.4357 7.28062 15.911 7.7345L16.254 8.0785C16.7216 8.54703 16.9843 9.18187 16.9845 9.8438C16.9847 10.5057 16.7223 11.1407 16.255 11.6095Z" fill="#708090"/>
</g>
<defs>
<clipPath id="clip0_9_6812">
<rect width="24" height="24" fill="white"/>
</clipPath>
</defs>
</svg>
